{
.appVersion = "3180";
.formatVersion = 3;
DisplayStrings = (
"o/dot i",
r,
ey,
ulEi,
"/dot"
);
axes = (
{
name = "Dot Size";
tag = DTSZ;
},
{
name = "Dot Spacing";
tag = DTSP;
}
);
classes = (
{
automatic = 1;
code = "A B C D E F G H I J K L M N O P Q R S T U V W X Y Z";
name = Uppercase;
},
{
code = "b h k l ";
name = LowercaseAsc;
},
{
code = "a d g q
";
name = a_left;
},
{
code = "b h k l";
name = b_left;
},
{
code = "m n p r u y
";
name = n_left;
},
{
code = "c o e";
name = c_left;
},
{
code = "f t";
name = f_left;
},
{
code = "i j r m n u y
";
name = i_left;
},
{
code = s;
name = s_left;
},
{
code = "v w";
name = v_left;
},
{
code = x;
name = x_left;
},
{
code = space;
name = spaces_right;
},
{
code = "a d h i m n u
";
name = a_right;
}
);
customParameters = (
{
name = fsType;
value = (
);
},
{
name = blueFuzz;
value = 0;
},
{
name = blueScale;
value = 0.037;
},
{
name = blueShift;
value = 5;
},
{
name = "Use Extension Kerning";
value = 1;
},
{
name = "Use Line Breaks";
value = 1;
},
{
name = "Enforce Compatibility Check";
value = 1;
},
{
name = "Use Typo Metrics";
value = 1;
}
);
date = "2022-10-16 06:14:26 +0000";
familyName = Hand;
featurePrefixes = (
{
automatic = 1;
code = "languagesystem DFLT dflt;

languagesystem latn dflt;
languagesystem latn AZE;
languagesystem latn CRT;
languagesystem latn KAZ;
languagesystem latn TAT;
languagesystem latn TRK;
languagesystem latn ROM;
languagesystem latn MOL;
languagesystem latn CAT;
languagesystem latn NLD;
languagesystem latn NAV;
languagesystem latn NSM;
languagesystem latn SKS;
languagesystem latn SSM;
languagesystem latn ISM;
languagesystem latn KSM;
languagesystem latn LSM;
";
name = Languagesystems;
}
);
features = (
{
code = "sub a' @a_left by a a.a;
sub a' @b_left by a a.b;
sub a' @c_left by a a.c;
sub a' @i_left by a a.b;
sub a' @s_left by a a.s;
sub a' @v_left by a a.v;
sub a' @x_left by a a.v;
sub b' @b_left by b b.b;
sub b' @c_left by b b.c;
sub b' @s_left by b b.s;
sub b' @v_left by b b.v;

glyphs = (
{
color = 1;
glyphname = A;
kernLeft = KO_A;
kernRight = KO_A;
lastChange = "2023-04-03 11:53:58 +0000";
layers = (
{
anchors = (
{
name = bottom;
pos = (309,0);
},
{
name = ogonek;
pos = (521,0);
},
{
name = top;
pos = (361,652);
}
);
layerId = "220B7CD1-1E4F-4884-BA06-A44A5DCE8B14";
shapes = (
{
closed = 1;
nodes = (
(45,-13,o),
(47,-11,o),
(50,-4,cs),
(60,23,o),
(157,224,o),
(172,247,c),
(204,248,o),
(263,251,o),
(315,251,cs),
(376,251,o),
(434,249,o),
(455,248,c),
(481,169,o),
(516,52,o),
(523,22,cs),
(526,10,o),
(529,6,o),
(532,3,cs),
(540,-5,o),
(558,-13,o),
(586,-13,cs),
(596,-13,o),
(597,-10,o),
(597,-5,cs),
(597,-1,o),
(596,1,o),
(593,10,cs),
(563,102,o),
(408,563,o),
(387,634,cs),
(385,642,o),
(361,652,o),
(337,652,cs),
(330,652,o),
(327,651,o),
(325,646,cs),
(269,533,o),
(40,82,o),
(5,26,cs),
(3,22,o),
(0,16,o),
(0,14,cs),
(0,-4,o),
(20,-13,o),
(40,-13,cs)
);
},
{
closed = 1;
nodes = (
(217,336,o),
(308,524,o),
(344,578,c),
(360,533,o),
(424,350,o),
(441,290,c),
(193,290,l)
);
}
);
width = 637;
},
{
anchors = (
{
name = bottom;
pos = (309,0);
},
{
name = ogonek;
pos = (521,0);
},
{
name = top;
pos = (361,652);
}
);
layerId = "2C50D5C7-CD05-484C-A32A-B9C1F3C11D26";
shapes = (
{
closed = 1;
nodes = (
(45,-13,o),
(47,-11,o),
(50,-4,cs),
(60,23,o),
(157,224,o),
(172,247,c),
(204,248,o),
(263,251,o),
(315,251,cs),
(376,251,o),
(434,249,o),
(455,248,c),
(481,169,o),
(516,52,o),
(523,22,cs),
(526,10,o),
(529,6,o),
(532,3,cs),
(540,-5,o),
(558,-13,o),
(586,-13,cs),
(596,-13,o),
(597,-10,o),
(597,-5,cs),
(597,-1,o),
(596,1,o),
(593,10,cs),
(563,102,o),
(408,563,o),
(387,634,cs),
(385,642,o),
(361,652,o),
(337,652,cs),
(330,652,o),
(327,651,o),
(325,646,cs),
(269,533,o),
(40,82,o),
(5,26,cs),
(3,22,o),
(0,16,o),
(0,14,cs),
(0,-4,o),
(20,-13,o),
(40,-13,cs)
);
},
{
closed = 1;
nodes = (
(217,336,o),
(308,524,o),
(344,578,c),
(360,533,o),
(424,350,o),
(441,290,c),
(193,290,l)
);
}
);
width = 637;
}
);
note = A;
unicode = 65;
userData = {
KernOnName = A;
};
},
{
color = 1;
glyphname = B;
kernLeft = KO_D;
kernRight = KO_B;
lastChange = "2023-04-03 11:53:58 +0000";
layers = (
{
anchors = (
{
name = bottom;
pos = (216,0);
},
{
name = top;
pos = (256,652);
}
);
background = {
shapes = (
{
closed = 1;
nodes = (
(226,0,ls),
(373,0,o),
(452,102,o),
(452,196,cs),
(452,272,o),
(403,341,o),
(297,350,c),
(323,360,o),
(432,397,o),
(432,510,cs),
(432,593,o),
(370,639,o),
(247,639,cs),
(104,639,l),
(95,422,o),
(75,76,o),
(68,0,c)
);
},
{
closed = 1;
nodes = (
(146,37,o),
(134,43,o),
(134,82,cs),
(134,142,o),
(138,278,o),
(142,320,c),
(171,320,o),
(200,320,o),
(229,320,cs),
(291,320,o),
(392,305,o),
(392,199,cs),
(392,91,o),
(325,37,o),
(223,37,cs)
);
},
{
closed = 1;
nodes = (
(151,460,o),
(158,551,o),
(165,596,c),
(184,598,o),
(220,602,o),
(239,602,cs),
(327,602,o),
(373,575,o),
(373,503,cs),
(373,460,o),
(353,419,o),
(325,397,cs),
(283,364,o),
(236,357,o),
(146,357,c)
);
}
);
};
layerId = "220B7CD1-1E4F-4884-BA06-A44A5DCE8B14";
shapes = (
{
closed = 0;
nodes = (
(140,611,l),
(98,21,l)
);
},
{
closed = 0;
nodes = (
(147,613,l),
(181,621,o),
(211,623,o),
(245,623,cs),
(338,623,o),
(401,585,o),
(401,510,cs),
(401,445,o),
(357,343,o),
(157,343,c),
(321,343,o),
(420,306,o),
(420,192,cs),
(420,46,o),
(288,0,o),
(113,22,cs)
);
}
);
width = 531;
},
{
anchors = (
{
name = bottom;
pos = (216,0);
},
{
name = top;
pos = (256,652);
}
);
layerId = "2C50D5C7-CD05-484C-A32A-B9C1F3C11D26";
shapes = (
{
closed = 0;
nodes = (
(140,611,l),
(98,21,l)
);
},
{
closed = 0;
nodes = (
(147,613,l),
(181,621,o),
(211,623,o),
(245,623,cs),
(338,623,o),
(401,585,o),
(401,510,cs),
(401,445,o),
(357,343,o),
(157,343,c),
(321,343,o),
(420,306,o),
(420,192,cs),
(420,46,o),
(288,0,o),
(113,22,cs)
);
}
);
width = 531;
}
);
metricLeft = "=H";
note = B;
unicode = 66;
userData = {
KernOnName = B;
};
},
{
color = 1;
glyphname = C;
kernLeft = KO_C;
kernRight = KO_C;
lastChange = "2023-04-03 11:53:58 +0000";
layers = (
{
anchors = (
{
name = bottom;
pos = (365,0);
},
{
name = top;
pos = (404,652);
}
);
layerId = "220B7CD1-1E4F-4884-BA06-A44A5DCE8B14";
shapes = (
{
closed = 1;
nodes = (
(493,-13,o),
(577,10,o),
(603,26,cs),
(613,32,o),
(616,50,o),
(616,68,cs),
(616,76,o),
(616,82,o),
(613,82,cs),
(610,82,o),
(603,79,o),
(593,74,cs),
(560,57,o),
(485,32,o),
(388,32,cs),
(244,32,o),
(121,121,o),
(121,316,cs),
(121,513,o),
(243,613,o),
(396,613,cs),
(525,613,o),
(587,555,o),
(605,555,cs),
(611,555,o),
(616,581,o),
(616,596,cs),
(616,603,o),
(618,610,o),
(597,620,cs),
(556,640,o),
(491,652,o),
(384,652,cs),
(149,652,o),
(60,476,o),
(60,312,cs),
(60,58,o),
(241,-13,o),
(398,-13,cs)
);
}
);
width = 671;
},
{
anchors = (
{
name = bottom;
pos = (365,0);
},
{
name = top;
pos = (404,652);
}
);
layerId = "2C50D5C7-CD05-484C-A32A-B9C1F3C11D26";
shapes = (
{
closed = 1;
nodes = (
(493,-13,o),
(577,10,o),
(603,26,cs),
(613,32,o),
(616,50,o),
(616,68,cs),
(616,76,o),
(616,82,o),
(613,82,cs),
(610,82,o),
(603,79,o),
(593,74,cs),
(560,57,o),
(485,32,o),
(388,32,cs),
(244,32,o),
(121,121,o),
(121,316,cs),
(121,513,o),
(243,613,o),
(396,613,cs),
(525,613,o),
(587,555,o),
(605,555,cs),
(611,555,o),
(616,581,o),
(616,596,cs),
(616,603,o),
(618,610,o),
(597,620,cs),
(556,640,o),
(491,652,o),
(384,652,cs),
(149,652,o),
(60,476,o),
(60,312,cs),
(60,58,o),
(241,-13,o),
(398,-13,cs)
);
}
);
width = 671;
}
);
note = C;
unicode = 67;
userData = {
KernOnName = C;
};
},
{
color = 1;
glyphname = D;
kernLeft = KO_D;
kernRight = KO_D;
lastChange = "2023-04-03 11:53:58 +0000";
layers = (
{
anchors = (
{
name = bottom;
pos = (331,0);
},
{
name = center;
pos = (371,326);
},
{
name = top;
pos = (371,652);
}
);
layerId = "220B7CD1-1E4F-4884-BA06-A44A5DCE8B14";
shapes = (
{
closed = 1;
nodes = (
(280,0,ls),
(557,0,o),
(676,157,o),
(676,365,cs),
(676,552,o),
(561,639,o),
(360,639,cs),
(134,639,l),
(125,422,o),
(101,37,o),
(98,0,c)
);
},
{
closed = 1;
nodes = (
(176,37,o),
(164,43,o),
(164,82,cs),
(164,262,o),
(183,458,o),
(195,596,c),
(241,601,o),
(283,603,o),
(322,603,cs),
(517,603,o),
(608,537,o),
(608,349,cs),
(608,123,o),
(467,37,o),
(253,37,cs)
);
}
);
width = 732;
},
{
anchors = (
{
name = bottom;
pos = (331,0);
},
{
name = center;
pos = (371,326);
},
{
name = top;
pos = (371,652);
}
);
layerId = "2C50D5C7-CD05-484C-A32A-B9C1F3C11D26";
shapes = (
{
closed = 1;
nodes = (
(280,0,ls),
(557,0,o),
(676,157,o),
(676,365,cs),
(676,552,o),
(561,639,o),
(360,639,cs),
(134,639,l),
(125,422,o),
(101,37,o),
(98,0,c)
);
},
{
closed = 1;
nodes = (
(176,37,o),
(164,43,o),
(164,82,cs),
(164,262,o),
(183,458,o),
(195,596,c),
(241,601,o),
(283,603,o),
(322,603,cs),
(517,603,o),
(608,537,o),
(608,349,cs),
(608,123,o),
(467,37,o),
(253,37,cs)
);
}
);
width = 732;
}
);
metricLeft = "=H";
note = D;
unicode = 68;
userData = {
KernOnName = D;
};
},
{
color = 1;
glyphname = E;
kernLeft = KO_E;
kernRight = KO_E;
lastChange = "2023-04-03 11:53:58 +0000";
layers = (
{
anchors = (
{
name = bottom;
pos = (279,0);
},
{
name = ogonek;
pos = (419,0);
},
{
name = top;
pos = (309,652);
},
{
name = topleft;
pos = (22,652);
}
);
background = {
shapes = (
{
closed = 1;
nodes = (
(482,0,ls),
(489,0,o),
(499,26,o),
(499,44,cs),
(499,52,o),
(499,58,o),
(494,58,cs),
(487,58,o),
(435,37,o),
(254,37,cs),
(177,37,o),
(165,43,o),
(165,82,cs),
(165,149,o),
(167,228,o),
(172,312,c),
(212,312,ls),
(353,312,o),
(421,304,o),
(425,304,cs),
(429,304,o),
(435,326,o),
(435,341,cs),
(435,349,o),
(432,355,o),
(430,355,cs),
(174,355,l),
(181,458,o),
(189,552,o),
(196,596,c),
(228,596,ls),
(369,596,o),
(438,587,o),
(441,587,cs),
(445,587,o),
(451,610,o),
(451,625,cs),
(451,633,o),
(449,639,o),
(446,639,cs),
(135,639,l),
(126,422,o),
(106,76,o),
(98,0,c)
);
}
);
};
layerId = "220B7CD1-1E4F-4884-BA06-A44A5DCE8B14";
shapes = (
{
closed = 0;
nodes = (
(129,35,l),
(133,70,o),
(154,422,o),
(166,615,c),
(171,616,o),
(190,618,o),
(195,619,c),
(433,622,l)
);
},
{
closed = 0;
nodes = (
(148,337,l),
(154,337,o),
(170,337,o),
(175,337,cs),
(258,339,o),
(326,336,o),
(418,325,c)
);
},
{
closed = 0;
nodes = (
(126,32,l),
(132,31,o),
(148,26,o),
(155,25,cs),
(238,14,o),
(394,15,o),
(485,28,c)
);
}
);
width = 553;
},
{
anchors = (
{
name = bottom;
pos = (279,0);
},
{
name = ogonek;
pos = (419,0);
},
{
name = top;
pos = (309,652);
},
{
name = topleft;
pos = (22,652);
}
);
layerId = "2C50D5C7-CD05-484C-A32A-B9C1F3C11D26";
shapes = (
{
closed = 0;
nodes = (
(129,35,l),
(133,70,o),
(154,422,o),
(166,615,c),
(171,616,o),
(190,618,o),
(195,619,c),
(433,622,l)
);
},
{
closed = 0;
nodes = (
(148,337,l),
(154,337,o),
(170,337,o),
(175,337,cs),
(258,339,o),
(326,336,o),
(418,325,c)
);
},
{
closed = 0;
nodes = (
(126,32,l),
(132,31,o),
(148,26,o),
(155,25,cs),
(238,14,o),
(394,15,o),
(485,28,c)
);
}
);
width = 553;
}
);
metricLeft = H;
note = E;
unicode = 69;
userData = {
KernOnName = E;
};
},
{
color = 1;
glyphname = F;
kernLeft = KO_F;
kernRight = KO_F;
lastChange = "2023-04-03 11:53:58 +0000";
layers = (
{
anchors = (
{
name = bottom;
pos = (124,0);
},
{
name = top;
pos = (288,652);
}
);
layerId = "220B7CD1-1E4F-4884-BA06-A44A5DCE8B14";
shapes = (
{
closed = 1;
nodes = (
(159,-13,o),
(161,-10,o),
(161,-5,cs),
(161,67,o),
(166,232,o),
(168,292,c),
(209,292,ls),
(350,292,o),
(418,283,o),
(421,283,cs),
(425,283,o),
(431,306,o),
(431,321,cs),
(431,329,o),
(429,335,o),
(426,335,cs),
(171,335,l),
(178,458,o),
(187,552,o),
(193,596,c),
(226,596,ls),
(367,596,o),
(435,587,o),
(439,587,cs),
(443,587,o),
(449,610,o),
(449,625,cs),
(449,633,o),
(447,639,o),
(444,639,cs),
(133,639,l),
(133,559,o),
(119,254,o),
(107,113,cs),
(104,81,o),
(98,17,o),
(98,14,cs),
(98,-4,o),
(128,-13,o),
(151,-13,cs)
);
}
);
width = 504;
},
{
anchors = (
{
name = bottom;
pos = (124,0);
},
{
name = top;
pos = (288,652);
}
);
layerId = "2C50D5C7-CD05-484C-A32A-B9C1F3C11D26";
shapes = (
{
closed = 1;
nodes = (
(159,-13,o),
(161,-10,o),
(161,-5,cs),
(161,67,o),
(166,232,o),
(168,292,c),
(209,292,ls),
(350,292,o),
(418,283,o),
(421,283,cs),
(425,283,o),
(431,306,o),
(431,321,cs),
(431,329,o),
(429,335,o),
(426,335,cs),
(171,335,l),
(178,458,o),
(187,552,o),
(193,596,c),
(226,596,ls),
(367,596,o),
(435,587,o),
(439,587,cs),
(443,587,o),
(449,610,o),
(449,625,cs),
(449,633,o),
(447,639,o),
(444,639,cs),
(133,639,l),
(133,559,o),
(119,254,o),
(107,113,cs),
(104,81,o),
(98,17,o),
(98,14,cs),
(98,-4,o),
(128,-13,o),
(151,-13,cs)
);
}
);
width = 504;
}
);
metricLeft = "=H";
note = F;
unicode = 70;
userData = {
KernOnName = F;
};
},
{
color = 1;
glyphname = G;
kernLeft = KO_C;
kernRight = KO_G;
lastChange = "2023-04-03 11:53:58 +0000";
layers = (
{
anchors = (
{
name = bottom;
pos = (356,0);
},
{
name = top;
pos = (390,652);
}
);
layerId = "220B7CD1-1E4F-4884-BA06-A44A5DCE8B14";
shapes = (
{
closed = 1;
nodes = (
(485,-13,o),
(564,0,o),
(626,23,c),
(631,116,o),
(637,209,o),
(642,302,c),
(443,302,ls),
(435,302,o),
(428,282,o),
(428,264,cs),
(428,258,o),
(431,254,o),
(436,254,cs),
(441,254,o),
(464,259,o),
(584,259,c),
(582,190,o),
(574,71,o),
(572,53,c),
(544,42,o),
(476,31,o),
(391,31,cs),
(252,31,o),
(121,105,o),
(121,319,cs),
(121,516,o),
(243,615,o),
(396,615,cs),
(472,615,o),
(547,587,o),
(581,565,cs),
(602,551,o),
(611,547,o),
(619,547,cs),
(626,547,o),
(631,568,o),
(631,588,cs),
(631,597,o),
(627,602,o),
(622,606,cs),
(605,620,o),
(535,652,o),
(384,652,cs),
(149,652,o),
(60,476,o),
(60,312,cs),
(60,120,o),
(177,-13,o),
(377,-13,cs)
);
}
);
width = 718;
},
{
anchors = (
{
name = bottom;
pos = (356,0);
},
{
name = top;
pos = (390,652);
}
);
layerId = "2C50D5C7-CD05-484C-A32A-B9C1F3C11D26";
shapes = (
{
closed = 1;
nodes = (
(485,-13,o),
(564,0,o),
(626,23,c),
(631,116,o),
(637,209,o),
(642,302,c),
(443,302,ls),
(435,302,o),
(428,282,o),
(428,264,cs),
(428,258,o),
(431,254,o),
(436,254,cs),
(441,254,o),
(464,259,o),
(584,259,c),
(582,190,o),
(574,71,o),
(572,53,c),
(544,42,o),
(476,31,o),
(391,31,cs),
(252,31,o),
(121,105,o),
(121,319,cs),
(121,516,o),
(243,615,o),
(396,615,cs),
(472,615,o),
(547,587,o),
(581,565,cs),
(602,551,o),
(611,547,o),
(619,547,cs),
(626,547,o),
(631,568,o),
(631,588,cs),
(631,597,o),
(627,602,o),
(622,606,cs),
(605,620,o),
(535,652,o),
(384,652,cs),
(149,652,o),
(60,476,o),
(60,312,cs),
(60,120,o),
(177,-13,o),
(377,-13,cs)
);
}
);
width = 718;
}
);
metricLeft = C;
note = G;
unicode = 71;
userData = {
KernOnName = G;
};
},
{
color = 1;
glyphname = H;
kernLeft = KO_H;
kernRight = KO_H;
lastChange = "2023-04-03 11:53:58 +0000";
layers = (
{
anchors = (
{
name = bottom;
pos = (378,0);
},
{
name = center;
pos = (398,326);
},
{
name = top;
pos = (423,652);
},
{
name = topleft;
pos = (22,652);
}
);
layerId = "220B7CD1-1E4F-4884-BA06-A44A5DCE8B14";
shapes = (
{
closed = 1;
nodes = (
(159,-13,o),
(161,-10,o),
(161,-5,cs),
(161,107,o),
(164,214,o),
(171,309,c),
(249,313,o),
(327,315,o),
(404,315,cs),
(476,315,o),
(548,313,o),
(618,310,c),
(609,160,o),
(598,20,o),
(598,14,cs),
(598,-4,o),
(628,-13,o),
(651,-13,cs),
(659,-13,o),
(662,-10,o),
(662,-5,cs),
(662,317,o),
(697,612,o),
(697,626,cs),
(697,644,o),
(666,652,o),
(643,652,cs),
(634,652,o),
(633,650,o),
(633,645,cs),
(632,597,o),
(627,476,o),
(620,353,c),
(173,353,l),
(183,509,o),
(196,618,o),
(196,626,cs),
(196,644,o),
(166,652,o),
(143,652,cs),
(134,652,o),
(133,650,o),
(133,645,cs),
(130,537,o),
(98,26,o),
(98,14,cs),
(98,-4,o),
(128,-13,o),
(151,-13,cs)
);
}
);
width = 786;
},
{
anchors = (
{
name = bottom;
pos = (378,0);
},
{
name = center;
pos = (398,326);
},
{
name = top;
pos = (423,652);
},
{
name = topleft;
pos = (22,652);
}
);
layerId = "2C50D5C7-CD05-484C-A32A-B9C1F3C11D26";
shapes = (
{
closed = 1;
nodes = (
(159,-13,o),
(161,-10,o),
(161,-5,cs),
(161,107,o),
(164,214,o),
(171,309,c),
(249,313,o),
(327,315,o),
(404,315,cs),
(476,315,o),
(548,313,o),
(618,310,c),
(609,160,o),
(598,20,o),
(598,14,cs),
(598,-4,o),
(628,-13,o),
(651,-13,cs),
(659,-13,o),
(662,-10,o),
(662,-5,cs),
(662,317,o),
(697,612,o),
(697,626,cs),
(697,644,o),
(666,652,o),
(643,652,cs),
(634,652,o),
(633,650,o),
(633,645,cs),
(632,597,o),
(627,476,o),
(620,353,c),
(173,353,l),
(183,509,o),
(196,618,o),
(196,626,cs),
(196,644,o),
(166,652,o),
(143,652,cs),
(134,652,o),
(133,650,o),
(133,645,cs),
(130,537,o),
(98,26,o),
(98,14,cs),
(98,-4,o),
(128,-13,o),
(151,-13,cs)
);
}
);
width = 786;
}
);
note = H;
unicode = 72;
userData = {
KernOnName = H;
};
},
{
color = 1;
glyphname = I;
kernLeft = KO_I;
kernRight = KO_I;
lastChange = "2023-04-03 11:53:58 +0000";
layers = (
{
anchors = (
{
name = bottom;
pos = (129,0);
},
{
name = ogonek;
pos = (268,10);
},
{
name = top;
pos = (183,652);
},
{
name = topleft;
pos = (27,652);
}
);
layerId = "220B7CD1-1E4F-4884-BA06-A44A5DCE8B14";
shapes = (
{
closed = 1;
nodes = (
(164,-13,o),
(166,-10,o),
(166,-5,cs),
(166,317,o),
(201,612,o),
(201,626,cs),
(201,644,o),
(171,652,o),
(148,652,cs),
(139,652,o),
(138,650,o),
(138,645,cs),
(135,537,o),
(103,26,o),
(103,14,cs),
(103,-4,o),
(133,-13,o),
(156,-13,cs)
);
}
);
width = 290;
},
{
anchors = (
{
name = bottom;
pos = (129,0);
},
{
name = ogonek;
pos = (268,10);
},
{
name = top;
pos = (183,652);
},
{
name = topleft;
pos = (27,652);
}
);
layerId = "2C50D5C7-CD05-484C-A32A-B9C1F3C11D26";
shapes = (
{
closed = 1;
nodes = (
(164,-13,o),
(166,-10,o),
(166,-5,cs),
(166,317,o),
(201,612,o),
(201,626,cs),
(201,644,o),
(171,652,o),
(148,652,cs),
(139,652,o),
(138,650,o),
(138,645,cs),
(135,537,o),
(103,26,o),
(103,14,cs),
(103,-4,o),
(133,-13,o),
(156,-13,cs)
);
}
);
width = 290;
}
);
note = I;
unicode = 73;
userData = {
KernOnName = I;
};
},
{
color = 1;
glyphname = J;
kernLeft = KO_J;
kernRight = KO_J;
lastChange = "2023-04-03 11:53:59 +0000";
layers = (
{
anchors = (
{
name = bottom;
pos = (225,0);
},
{
name = top;
pos = (282,652);
}
);
layerId = "220B7CD1-1E4F-4884-BA06-A44A5DCE8B14";
shapes = (
{
closed = 1;
nodes = (
(184,-13,o),
(239,24,o),
(269,115,cs),
(297,200,o),
(306,543,o),
(306,626,cs),
(306,644,o),
(276,652,o),
(253,652,cs),
(244,652,o),
(243,650,o),
(243,645,cs),
(243,252,o),
(225,82,o),
(186,48,cs),
(170,34,o),
(152,26,o),
(130,26,cs),
(87,26,o),
(40,49,o),
(29,49,cs),
(24,49,o),
(20,42,o),
(20,31,cs),
(20,12,o),
(23,5,o),
(35,-1,c),
(53,-10,o),
(79,-13,o),
(121,-13,cs)
);
}
);
width = 396;
},
{
anchors = (
{
name = bottom;
pos = (225,0);
},
{
name = top;
pos = (282,652);
}
);
layerId = "2C50D5C7-CD05-484C-A32A-B9C1F3C11D26";
shapes = (
{
closed = 1;
nodes = (
(184,-13,o),
(239,24,o),
(269,115,cs),
(297,200,o),
(306,543,o),
(306,626,cs),
(306,644,o),
(276,652,o),
(253,652,cs),
(244,652,o),
(243,650,o),
(243,645,cs),
(243,252,o),
(225,82,o),
(186,48,cs),
(170,34,o),
(152,26,o),
(130,26,cs),
(87,26,o),
(40,49,o),
(29,49,cs),
(24,49,o),
(20,42,o),
(20,31,cs),
(20,12,o),
(23,5,o),
(35,-1,c),
(53,-10,o),
(79,-13,o),
(121,-13,cs)
);
}
);
width = 396;
}
);
note = J;
unicode = 74;
},
{
color = 1;
glyphname = K;
kernLeft = KO_H;
kernRight = KO_K;
lastChange = "2023-04-03 11:53:59 +0000";
layers = (
{
anchors = (
{
name = bottom;
pos = (288,0);
},
{
name = top;
pos = (332,652);
}
);
layerId = "220B7CD1-1E4F-4884-BA06-A44A5DCE8B14";
shapes = (
{
closed = 1;
nodes = (
(159,-13,o),
(161,-10,o),
(161,-5,cs),
(161,111,o),
(166,222,o),
(171,316,c),
(178,311,o),
(187,302,o),
(200,292,cs),
(277,228,o),
(450,69,o),
(539,-8,cs),
(542,-11,o),
(546,-13,o),
(555,-13,cs),
(564,-13,o),
(580,-2,o),
(590,7,cs),
(596,13,o),
(601,18,o),
(601,20,cs),
(601,23,o),
(600,24,o),
(594,29,cs),
(457,134,o),
(277,297,o),
(241,331,c),
(290,374,o),
(499,557,o),
(581,633,cs),
(587,639,o),
(589,641,o),
(589,644,cs),
(589,649,o),
(574,652,o),
(559,652,cs),
(541,652,o),
(533,650,o),
(522,640,cs),
(368,500,o),
(215,359,o),
(171,322,c),
(181,492,o),
(196,617,o),
(196,626,cs),
(196,644,o),
(166,652,o),
(143,652,cs),
(134,652,o),
(133,650,o),
(133,645,cs),
(130,537,o),
(98,26,o),
(98,14,cs),
(98,-4,o),
(128,-13,o),
(151,-13,cs)
);
}
);
width = 631;
},
{
anchors = (
{
name = bottom;
pos = (288,0);
},
{
name = top;
pos = (332,652);
}
);
layerId = "2C50D5C7-CD05-484C-A32A-B9C1F3C11D26";
shapes = (
{
closed = 1;
nodes = (
(159,-13,o),
(161,-10,o),
(161,-5,cs),
(161,111,o),
(166,222,o),
(171,316,c),
(178,311,o),
(187,302,o),
(200,292,cs),
(277,228,o),
(450,69,o),
(539,-8,cs),
(542,-11,o),
(546,-13,o),
(555,-13,cs),
(564,-13,o),
(580,-2,o),
(590,7,cs),
(596,13,o),
(601,18,o),
(601,20,cs),
(601,23,o),
(600,24,o),
(594,29,cs),
(457,134,o),
(277,297,o),
(241,331,c),
(290,374,o),
(499,557,o),
(581,633,cs),
(587,639,o),
(589,641,o),
(589,644,cs),
(589,649,o),
(574,652,o),
(559,652,cs),
(541,652,o),
(533,650,o),
(522,640,cs),
(368,500,o),
(215,359,o),
(171,322,c),
(181,492,o),
(196,617,o),
(196,626,cs),
(196,644,o),
(166,652,o),
(143,652,cs),
(134,652,o),
(133,650,o),
(133,645,cs),
(130,537,o),
(98,26,o),
(98,14,cs),
(98,-4,o),
(128,-13,o),
(151,-13,cs)
);
}
);
width = 631;
}
);
metricLeft = "=H";
note = K;
unicode = 75;
},
{
color = 1;
glyphname = L;
kernLeft = KO_L;
kernRight = KO_L;
lastChange = "2023-04-03 11:53:59 +0000";
layers = (
{
anchors = (
{
name = bottom;
pos = (279,0);
},
{
name = center;
pos = (236,326);
},
{
name = top;
pos = (243,652);
},
{
name = topright;
pos = (416,524);
}
);
layerId = "220B7CD1-1E4F-4884-BA06-A44A5DCE8B14";
shapes = (
{
closed = 1;
nodes = (
(439,0,ls),
(447,0,o),
(457,26,o),
(457,44,cs),
(457,52,o),
(457,58,o),
(454,58,cs),
(452,58,o),
(362,37,o),
(253,37,cs),
(176,37,o),
(164,43,o),
(164,82,cs),
(164,322,o),
(197,620,o),
(197,626,cs),
(197,644,o),
(167,652,o),
(144,652,cs),
(136,652,o),
(134,650,o),
(134,645,cs),
(127,428,o),
(105,76,o),
(98,0,c)
);
}
);
width = 483;
},
{
anchors = (
{
name = bottom;
pos = (279,0);
},
{
name = center;
pos = (236,326);
},
{
name = top;
pos = (243,652);
},
{
name = topright;
pos = (416,524);
}
);
layerId = "2C50D5C7-CD05-484C-A32A-B9C1F3C11D26";
shapes = (
{
closed = 1;
nodes = (
(439,0,ls),
(447,0,o),
(457,26,o),
(457,44,cs),
(457,52,o),
(457,58,o),
(454,58,cs),
(452,58,o),
(362,37,o),
(253,37,cs),
(176,37,o),
(164,43,o),
(164,82,cs),
(164,322,o),
(197,620,o),
(197,626,cs),
(197,644,o),
(167,652,o),
(144,652,cs),
(136,652,o),
(134,650,o),
(134,645,cs),
(127,428,o),
(105,76,o),
(98,0,c)
);
}
);
width = 483;
}
);
metricLeft = "=H";
note = L;
unicode = 76;
userData = {
KernOnName = L;
};
},
{
color = 1;
glyphname = M;
kernLeft = KO_M;
kernRight = KO_M;
lastChange = "2023-04-03 11:53:59 +0000";
layers = (
{
anchors = (
{
name = bottom;
pos = (470,0);
},
{
name = top;
pos = (504,652);
}
);
layerId = "220B7CD1-1E4F-4884-BA06-A44A5DCE8B14";
shapes = (
{
closed = 1;
nodes = (
(144,-13,o),
(145,-10,o),
(145,-5,cs),
(145,49,o),
(188,379,o),
(213,562,c),
(256,466,o),
(393,134,o),
(447,5,cs),
(451,-4,o),
(462,-13,o),
(477,-13,cs),
(482,-13,o),
(486,-8,o),
(488,-4,cs),
(591,183,o),
(756,477,o),
(811,576,c),
(811,559,o),
(815,427,o),
(814,281,cs),
(813,194,o),
(809,83,o),
(809,14,cs),
(809,-4,o),
(838,-13,o),
(859,-13,cs),
(867,-13,o),
(869,-10,o),
(869,-3,cs),
(869,210,o),
(866,412,o),
(864,625,cs),
(864,645,o),
(828,652,o),
(807,652,cs),
(798,652,o),
(796,651,o),
(792,644,cs),
(750,567,o),
(588,262,o),
(483,76,c),
(429,191,o),
(323,443,o),
(250,628,cs),
(244,644,o),
(219,652,o),
(189,652,cs),
(178,652,o),
(176,650,o),
(175,637,cs),
(153,429,o),
(90,24,o),
(90,14,cs),
(90,-4,o),
(117,-13,o),
(137,-13,cs)
);
}
);
width = 979;
},
{
anchors = (
{
name = bottom;
pos = (470,0);
},
{
name = top;
pos = (504,652);
}
);
layerId = "2C50D5C7-CD05-484C-A32A-B9C1F3C11D26";
shapes = (
{
closed = 1;
nodes = (
(144,-13,o),
(145,-10,o),
(145,-5,cs),
(145,49,o),
(188,379,o),
(213,562,c),
(256,466,o),
(393,134,o),
(447,5,cs),
(451,-4,o),
(462,-13,o),
(477,-13,cs),
(482,-13,o),
(486,-8,o),
(488,-4,cs),
(591,183,o),
(756,477,o),
(811,576,c),
(811,559,o),
(815,427,o),
(814,281,cs),
(813,194,o),
(809,83,o),
(809,14,cs),
(809,-4,o),
(838,-13,o),
(859,-13,cs),
(867,-13,o),
(869,-10,o),
(869,-3,cs),
(869,210,o),
(866,412,o),
(864,625,cs),
(864,645,o),
(828,652,o),
(807,652,cs),
(798,652,o),
(796,651,o),
(792,644,cs),
(750,567,o),
(588,262,o),
(483,76,c),
(429,191,o),
(323,443,o),
(250,628,cs),
(244,644,o),
(219,652,o),
(189,652,cs),
(178,652,o),
(176,650,o),
(175,637,cs),
(153,429,o),
(90,24,o),
(90,14,cs),
(90,-4,o),
(117,-13,o),
(137,-13,cs)
);
}
);
width = 979;
}
);
note = M;
unicode = 77;
userData = {
KernOnName = M;
};
},
{
color = 1;
glyphname = N;
kernLeft = KO_N;
kernRight = KO_N;
lastChange = "2023-04-03 11:53:59 +0000";
layers = (
{
anchors = (
{
name = bottom;
pos = (418,0);
},
{
name = top;
pos = (452,646);
}
);
layerId = "220B7CD1-1E4F-4884-BA06-A44A5DCE8B14";
shapes = (
{
closed = 1;
nodes = (
(154,-13,o),
(156,-11,o),
(156,-3,cs),
(156,160,o),
(175,544,o),
(176,563,c),
(206,518,o),
(560,123,o),
(676,-1,cs),
(681,-6,o),
(687,-13,o),
(691,-13,cs),
(698,-13,o),
(731,10,o),
(731,19,cs),
(731,132,o),
(765,613,o),
(765,626,cs),
(765,644,o),
(739,652,o),
(716,652,cs),
(707,652,o),
(706,651,o),
(706,642,cs),
(706,290,o),
(686,81,o),
(685,77,c),
(607,152,o),
(243,564,o),
(187,641,cs),
(183,646,o),
(176,652,o),
(172,652,cs),
(162,652,o),
(132,630,o),
(132,621,cs),
(132,508,o),
(98,26,o),
(98,14,cs),
(98,-4,o),
(123,-13,o),
(146,-13,cs)
);
}
);
width = 854;
},
{
anchors = (
{
name = bottom;
pos = (418,0);
},
{
name = top;
pos = (452,646);
}
);
layerId = "2C50D5C7-CD05-484C-A32A-B9C1F3C11D26";
shapes = (
{
closed = 1;
nodes = (
(154,-13,o),
(156,-11,o),
(156,-3,cs),
(156,160,o),
(175,544,o),
(176,563,c),
(206,518,o),
(560,123,o),
(676,-1,cs),
(681,-6,o),
(687,-13,o),
(691,-13,cs),
(698,-13,o),
(731,10,o),
(731,19,cs),
(731,132,o),
(765,613,o),
(765,626,cs),
(765,644,o),
(739,652,o),
(716,652,cs),
(707,652,o),
(706,651,o),
(706,642,cs),
(706,290,o),
(686,81,o),
(685,77,c),
(607,152,o),
(243,564,o),
(187,641,cs),
(183,646,o),
(176,652,o),
(172,652,cs),
(162,652,o),
(132,630,o),
(132,621,cs),
(132,508,o),
(98,26,o),
(98,14,cs),
(98,-4,o),
(123,-13,o),
(146,-13,cs)
);
}
);
width = 854;
}
);
metricLeft = "=H";
metricRight = "=H";
note = N;
unicode = 78;
},
{
color = 1;
glyphname = O;
kernLeft = KO_O;
kernRight = KO_O;
lastChange = "2023-04-03 11:53:59 +0000";
layers = (
{
anchors = (
{
name = bottom;
pos = (364,0);
},
{
name = center;
pos = (381,326);
},
{
name = ogonek;
pos = (432,10);
},
{
name = top;
pos = (398,652);
},
{
name = topleft;
pos = (44,652);
},
{
name = topright;
pos = (561,602);
}
);
layerId = "220B7CD1-1E4F-4884-BA06-A44A5DCE8B14";
shapes = (
{
closed = 1;
nodes = (
(590,-13,o),
(689,134,o),
(689,349,cs),
(689,528,o),
(600,652,o),
(382,652,cs),
(166,652,o),
(67,506,o),
(67,291,cs),
(67,112,o),
(156,-13,o),
(374,-13,cs)
);
},
{
closed = 1;
nodes = (
(200,24,o),
(128,135,o),
(128,294,cs),
(128,485,o),
(208,615,o),
(381,615,cs),
(556,615,o),
(628,505,o),
(628,346,cs),
(628,154,o),
(548,24,o),
(375,24,cs)
);
}
);
width = 749;
},
{
anchors = (
{
name = bottom;
pos = (364,0);
},
{
name = center;
pos = (381,326);
},
{
name = ogonek;
pos = (432,10);
},
{
name = top;
pos = (398,652);
},
{
name = topleft;
pos = (44,652);
},
{
name = topright;
pos = (561,602);
}
);
layerId = "2C50D5C7-CD05-484C-A32A-B9C1F3C11D26";
shapes = (
{
closed = 1;
nodes = (
(590,-13,o),
(689,134,o),
(689,349,cs),
(689,528,o),
(600,652,o),
(382,652,cs),
(166,652,o),
(67,506,o),
(67,291,cs),
(67,112,o),
(156,-13,o),
(374,-13,cs)
);
},
{
closed = 1;
nodes = (
(200,24,o),
(128,135,o),
(128,294,cs),
(128,485,o),
(208,615,o),
(381,615,cs),
(556,615,o),
(628,505,o),
(628,346,cs),
(628,154,o),
(548,24,o),
(375,24,cs)
);
}
);
width = 749;
}
);
note = O;
unicode = 79;
userData = {
KernOnName = O;
};
},
{
color = 1;
glyphname = P;
kernLeft = KO_H;
kernRight = KO_P;
lastChange = "2023-04-03 11:53:59 +0000";
layers = (
{
anchors = (
{
name = bottom;
pos = (257,0);
},
{
name = top;
pos = (291,652);
}
);
layerId = "220B7CD1-1E4F-4884-BA06-A44A5DCE8B14";
shapes = (
{
closed = 1;
nodes = (
(159,-13,o),
(161,-10,o),
(161,-5,cs),
(161,86,o),
(163,174,o),
(167,251,c),
(173,245,o),
(186,244,o),
(222,244,cs),
(386,244,o),
(494,345,o),
(494,470,cs),
(494,575,o),
(420,639,o),
(268,639,cs),
(133,639,l),
(129,523,o),
(98,26,o),
(98,14,cs),
(98,-4,o),
(128,-13,o),
(151,-13,cs)
);
},
{
closed = 1;
nodes = (
(177,432,o),
(190,548,o),
(193,596,c),
(210,598,o),
(226,602,o),
(253,602,cs),
(394,602,o),
(434,539,o),
(434,457,cs),
(434,401,o),
(412,360,o),
(380,331,cs),
(313,270,o),
(213,269,o),
(168,277,c)
);
}
);
width = 532;
},
{
anchors = (
{
name = bottom;
pos = (257,0);
},
{
name = top;
pos = (291,652);
}
);
layerId = "2C50D5C7-CD05-484C-A32A-B9C1F3C11D26";
shapes = (
{
closed = 1;
nodes = (
(159,-13,o),
(161,-10,o),
(161,-5,cs),
(161,86,o),
(163,174,o),
(167,251,c),
(173,245,o),
(186,244,o),
(222,244,cs),
(386,244,o),
(494,345,o),
(494,470,cs),
(494,575,o),
(420,639,o),
(268,639,cs),
(133,639,l),
(129,523,o),
(98,26,o),
(98,14,cs),
(98,-4,o),
(128,-13,o),
(151,-13,cs)
);
},
{
closed = 1;
nodes = (
(177,432,o),
(190,548,o),
(193,596,c),
(210,598,o),
(226,602,o),
(253,602,cs),
(394,602,o),
(434,539,o),
(434,457,cs),
(434,401,o),
(412,360,o),
(380,331,cs),
(313,270,o),
(213,269,o),
(168,277,c)
);
}
);
width = 532;
}
);
metricLeft = "=H";
note = P;
unicode = 80;
userData = {
KernOnName = P;
};
},
{
color = 1;
glyphname = Q;
kernLeft = KO_Q;
kernRight = KO_Q;
lastChange = "2023-04-03 11:53:59 +0000";
layers = (
{
layerId = "220B7CD1-1E4F-4884-BA06-A44A5DCE8B14";
shapes = (
{
closed = 1;
nodes = (
(731,-85,o),
(743,-57,o),
(743,-42,cs),
(743,-39,o),
(742,-35,o),
(735,-35,cs),
(658,-35,o),
(556,-16,o),
(457,-3,c),
(601,30,o),
(689,166,o),
(689,349,cs),
(689,528,o),
(600,652,o),
(382,652,cs),
(166,652,o),
(67,506,o),
(67,291,cs),
(67,139,o),
(132,31,o),
(284,-4,cs),
(396,-30,o),
(578,-69,o),
(660,-80,cs),
(686,-83,o),
(700,-85,o),
(709,-85,cs)
);
},
{
closed = 1;
nodes = (
(200,24,o),
(128,135,o),
(128,294,cs),
(128,485,o),
(208,615,o),
(381,615,cs),
(556,615,o),
(628,505,o),
(628,346,cs),
(628,154,o),
(548,24,o),
(375,24,cs)
);
}
);
width = 749;
},
{
layerId = "2C50D5C7-CD05-484C-A32A-B9C1F3C11D26";
shapes = (
{
closed = 1;
nodes = (
(731,-85,o),
(743,-57,o),
(743,-42,cs),
(743,-39,o),
(742,-35,o),
(735,-35,cs),
(658,-35,o),
(556,-16,o),
(457,-3,c),
(601,30,o),
(689,166,o),
(689,349,cs),
(689,528,o),
(600,652,o),
(382,652,cs),
(166,652,o),
(67,506,o),
(67,291,cs),
(67,139,o),
(132,31,o),
(284,-4,cs),
(396,-30,o),
(578,-69,o),
(660,-80,cs),
(686,-83,o),
(700,-85,o),
(709,-85,cs)
);
},
{
closed = 1;
nodes = (
(200,24,o),
(128,135,o),
(128,294,cs),
(128,485,o),
(208,615,o),
(381,615,cs),
(556,615,o),
(628,505,o),
(628,346,cs),
(628,154,o),
(548,24,o),
(375,24,cs)
);
}
);
width = 749;
}
);
metricLeft = "=O";
metricWidth = O;
note = Q;
unicode = 81;
userData = {
KernOnName = Q;
};
},
{
color = 1;
glyphname = R;
kernLeft = KO_R;
kernRight = KO_R;
lastChange = "2023-04-03 11:53:59 +0000";
layers = (
{
anchors = (
{
name = bottom;
pos = (278,0);
},
{
name = top;
pos = (312,652);
}
);
layerId = "220B7CD1-1E4F-4884-BA06-A44A5DCE8B14";
shapes = (
{
closed = 1;
nodes = (
(159,-13,o),
(161,-10,o),
(161,-5,cs),
(161,112,o),
(164,218,o),
(170,307,c),
(177,298,o),
(196,296,o),
(204,293,c),
(254,253,o),
(385,125,o),
(492,8,cs),
(503,-4,o),
(513,-13,o),
(523,-13,cs),
(540,-13,o),
(566,7,o),
(566,14,cs),
(566,17,o),
(565,21,o),
(558,27,cs),
(542,40,o),
(321,262,o),
(278,306,c),
(404,314,o),
(483,407,o),
(483,491,cs),
(483,566,o),
(424,639,o),
(282,639,cs),
(136,639,l),
(130,529,o),
(98,26,o),
(98,14,cs),
(98,-4,o),
(128,-13,o),
(151,-13,cs)
);
},
{
closed = 1;
nodes = (
(180,485,o),
(191,559,o),
(195,597,c),
(211,600,o),
(226,602,o),
(251,602,cs),
(384,602,o),
(423,554,o),
(423,480,cs),
(423,440,o),
(407,411,o),
(383,388,cs),
(329,337,o),
(235,324,o),
(172,331,c)
);
}
);
width = 566;
},
{
anchors = (
{
name = bottom;
pos = (278,0);
},
{
name = top;
pos = (312,652);
}
);
layerId = "2C50D5C7-CD05-484C-A32A-B9C1F3C11D26";
shapes = (
{
closed = 1;
nodes = (
(159,-13,o),
(161,-10,o),
(161,-5,cs),
(161,112,o),
(164,218,o),
(170,307,c),
(177,298,o),
(196,296,o),
(204,293,c),
(254,253,o),
(385,125,o),
(492,8,cs),
(503,-4,o),
(513,-13,o),
(523,-13,cs),
(540,-13,o),
(566,7,o),
(566,14,cs),
(566,17,o),
(565,21,o),
(558,27,cs),
(542,40,o),
(321,262,o),
(278,306,c),
(404,314,o),
(483,407,o),
(483,491,cs),
(483,566,o),
(424,639,o),
(282,639,cs),
(136,639,l),
(130,529,o),
(98,26,o),
(98,14,cs),
(98,-4,o),
(128,-13,o),
(151,-13,cs)
);
},
{
closed = 1;
nodes = (
(180,485,o),
(191,559,o),
(195,597,c),
(211,600,o),
(226,602,o),
(251,602,cs),
(384,602,o),
(423,554,o),
(423,480,cs),
(423,440,o),
(407,411,o),
(383,388,cs),
(329,337,o),
(235,324,o),
(172,331,c)
);
}
);
width = 566;
}
);
metricLeft = "=H";
note = R;
unicode = 82;
userData = {
KernOnName = R;
};
},
{
color = 1;
glyphname = S;
kernLeft = KO_S;
kernRight = KO_S;
lastChange = "2023-04-03 11:53:59 +0000";
layers = (
{
anchors = (
{
name = bottom;
pos = (233,0);
},
{
name = top;
pos = (297,652);
}
);
layerId = "220B7CD1-1E4F-4884-BA06-A44A5DCE8B14";
shapes = (
{
closed = 1;
nodes = (
(329,-13,o),
(435,59,o),
(435,175,cs),
(435,218,o),
(417,251,o),
(385,282,cs),
(353,313,o),
(252,375,o),
(218,409,cs),
(187,440,o),
(172,472,o),
(172,510,cs),
(172,587,o),
(228,613,o),
(264,613,cs),
(338,613,o),
(378,574,o),
(402,550,cs),
(414,538,o),
(421,529,o),
(427,529,cs),
(437,529,o),
(442,544,o),
(442,572,cs),
(442,578,o),
(440,587,o),
(434,593,cs),
(398,632,o),
(339,652,o),
(288,652,cs),
(163,652,o),
(113,569,o),
(113,487,cs),
(113,434,o),
(136,397,o),
(168,367,cs),
(215,323,o),
(305,272,o),
(339,235,cs),
(363,209,o),
(379,180,o),
(379,141,cs),
(379,61,o),
(304,29,o),
(264,29,cs),
(194,29,o),
(142,63,o),
(112,89,cs),
(94,105,o),
(86,117,o),
(82,117,cs),
(71,117,o),
(67,77,o),
(67,68,cs),
(67,63,o),
(68,52,o),
(75,45,cs),
(106,15,o),
(159,-13,o),
(242,-13,cs)
);
}
);
width = 516;
},
{
anchors = (
{
name = bottom;
pos = (233,0);
},
{
name = top;
pos = (297,652);
}
);
layerId = "2C50D5C7-CD05-484C-A32A-B9C1F3C11D26";
shapes = (
{
closed = 1;
nodes = (
(329,-13,o),
(435,59,o),
(435,175,cs),
(435,218,o),
(417,251,o),
(385,282,cs),
(353,313,o),
(252,375,o),
(218,409,cs),
(187,440,o),
(172,472,o),
(172,510,cs),
(172,587,o),
(228,613,o),
(264,613,cs),
(338,613,o),
(378,574,o),
(402,550,cs),
(414,538,o),
(421,529,o),
(427,529,cs),
(437,529,o),
(442,544,o),
(442,572,cs),
(442,578,o),
(440,587,o),
(434,593,cs),
(398,632,o),
(339,652,o),
(288,652,cs),
(163,652,o),
(113,569,o),
(113,487,cs),
(113,434,o),
(136,397,o),
(168,367,cs),
(215,323,o),
(305,272,o),
(339,235,cs),
(363,209,o),
(379,180,o),
(379,141,cs),
(379,61,o),
(304,29,o),
(264,29,cs),
(194,29,o),
(142,63,o),
(112,89,cs),
(94,105,o),
(86,117,o),
(82,117,cs),
(71,117,o),
(67,77,o),
(67,68,cs),
(67,63,o),
(68,52,o),
(75,45,cs),
(106,15,o),
(159,-13,o),
(242,-13,cs)
);
}
);
width = 516;
}
);
note = S;
unicode = 83;
},
{
color = 1;
glyphname = T;
kernLeft = KO_T;
kernRight = KO_T;
lastChange = "2023-04-03 11:53:59 +0000";
layers = (
{
anchors = (
{
name = bottom;
pos = (250,0);
},
{
name = center;
pos = (290,326);
},
{
name = top;
pos = (287,652);
}
);
layerId = "220B7CD1-1E4F-4884-BA06-A44A5DCE8B14";
shapes = (
{
closed = 1;
nodes = (
(282,-13,o),
(284,-10,o),
(284,-5,cs),
(284,264,o),
(306,514,o),
(314,596,c),
(320,596,l),
(452,596,o),
(514,588,o),
(524,588,cs),
(534,588,o),
(539,607,o),
(539,630,cs),
(539,638,o),
(537,639,o),
(532,639,cs),
(49,639,ls),
(39,639,o),
(34,620,o),
(34,597,cs),
(34,590,o),
(37,588,o),
(42,588,cs),
(53,588,o),
(104,596,o),
(247,596,c),
(253,596,l),
(248,358,o),
(221,24,o),
(221,14,cs),
(221,-4,o),
(251,-13,o),
(273,-13,cs)
);
}
);
width = 527;
},
{
anchors = (
{
name = bottom;
pos = (250,0);
},
{
name = center;
pos = (290,326);
},
{
name = top;
pos = (287,652);
}
);
layerId = "2C50D5C7-CD05-484C-A32A-B9C1F3C11D26";
shapes = (
{
closed = 1;
nodes = (
(282,-13,o),
(284,-10,o),
(284,-5,cs),
(284,264,o),
(306,514,o),
(314,596,c),
(320,596,l),
(452,596,o),
(514,588,o),
(524,588,cs),
(534,588,o),
(539,607,o),
(539,630,cs),
(539,638,o),
(537,639,o),
(532,639,cs),
(49,639,ls),
(39,639,o),
(34,620,o),
(34,597,cs),
(34,590,o),
(37,588,o),
(42,588,cs),
(53,588,o),
(104,596,o),
(247,596,c),
(253,596,l),
(248,358,o),
(221,24,o),
(221,14,cs),
(221,-4,o),
(251,-13,o),
(273,-13,cs)
);
}
);
width = 527;
}
);
note = T;
unicode = 84;
userData = {
KernOnName = T;
};
},
{
color = 1;
glyphname = U;
kernLeft = KO_U;
kernRight = KO_U;
lastChange = "2023-04-03 11:53:59 +0000";
layers = (
{
anchors = (
{
name = bottom;
pos = (348,0);
},
{
name = ogonek;
pos = (385,0);
},
{
name = top;
pos = (384,652);
},
{
name = topright;
pos = (636,608);
}
);
layerId = "220B7CD1-1E4F-4884-BA06-A44A5DCE8B14";
shapes = (
{
closed = 1;
nodes = (
(421,-13,o),
(483,6,o),
(529,48,cs),
(624,135,o),
(653,317,o),
(653,626,cs),
(653,644,o),
(631,652,o),
(610,652,cs),
(601,652,o),
(600,650,o),
(600,645,cs),
(600,293,o),
(567,144,o),
(501,79,cs),
(466,45,o),
(408,27,o),
(359,27,cs),
(298,27,o),
(243,42,o),
(207,80,cs),
(164,125,o),
(148,212,o),
(148,307,cs),
(148,411,o),
(166,589,o),
(166,626,cs),
(166,644,o),
(136,652,o),
(113,652,cs),
(104,652,o),
(103,650,o),
(103,645,cs),
(103,635,o),
(87,456,o),
(87,298,cs),
(87,195,o),
(101,104,o),
(151,53,cs),
(193,10,o),
(267,-13,o),
(340,-13,cs)
);
}
);
width = 708;
},
{
anchors = (
{
name = bottom;
pos = (348,0);
},
{
name = ogonek;
pos = (385,0);
},
{
name = top;
pos = (384,652);
},
{
name = topright;
pos = (636,608);
}
);
layerId = "2C50D5C7-CD05-484C-A32A-B9C1F3C11D26";
shapes = (
{
closed = 1;
nodes = (
(421,-13,o),
(483,6,o),
(529,48,cs),
(624,135,o),
(653,317,o),
(653,626,cs),
(653,644,o),
(631,652,o),
(610,652,cs),
(601,652,o),
(600,650,o),
(600,645,cs),
(600,293,o),
(567,144,o),
(501,79,cs),
(466,45,o),
(408,27,o),
(359,27,cs),
(298,27,o),
(243,42,o),
(207,80,cs),
(164,125,o),
(148,212,o),
(148,307,cs),
(148,411,o),
(166,589,o),
(166,626,cs),
(166,644,o),
(136,652,o),
(113,652,cs),
(104,652,o),
(103,650,o),
(103,645,cs),
(103,635,o),
(87,456,o),
(87,298,cs),
(87,195,o),
(101,104,o),
(151,53,cs),
(193,10,o),
(267,-13,o),
(340,-13,cs)
);
}
);
width = 708;
}
);
note = U;
unicode = 85;
},
{
color = 1;
glyphname = V;
kernLeft = KO_V;
kernRight = KO_V;
lastChange = "2023-04-03 11:53:59 +0000";
layers = (
{
anchors = (
{
name = bottom;
pos = (280,0);
},
{
name = top;
pos = (337,652);
}
);
layerId = "220B7CD1-1E4F-4884-BA06-A44A5DCE8B14";
shapes = (
{
closed = 1;
nodes = (
(300,-13,o),
(302,-11,o),
(305,-6,cs),
(365,107,o),
(583,558,o),
(608,613,cs),
(610,617,o),
(613,623,o),
(613,626,cs),
(613,641,o),
(590,652,o),
(569,652,cs),
(564,652,o),
(561,651,o),
(559,644,cs),
(528,548,o),
(326,121,o),
(290,64,c),
(251,151,o),
(115,593,o),
(103,628,cs),
(100,637,o),
(85,652,o),
(46,652,cs),
(36,652,o),
(35,650,o),
(35,645,cs),
(35,641,o),
(36,639,o),
(39,630,cs),
(66,538,o),
(221,77,o),
(245,6,cs),
(248,-3,o),
(268,-13,o),
(292,-13,cs)
);
}
);
width = 618;
},
{
anchors = (
{
name = bottom;
pos = (280,0);
},
{
name = top;
pos = (337,652);
}
);
layerId = "2C50D5C7-CD05-484C-A32A-B9C1F3C11D26";
shapes = (
{
closed = 1;
nodes = (
(300,-13,o),
(302,-11,o),
(305,-6,cs),
(365,107,o),
(583,558,o),
(608,613,cs),
(610,617,o),
(613,623,o),
(613,626,cs),
(613,641,o),
(590,652,o),
(569,652,cs),
(564,652,o),
(561,651,o),
(559,644,cs),
(528,548,o),
(326,121,o),
(290,64,c),
(251,151,o),
(115,593,o),
(103,628,cs),
(100,637,o),
(85,652,o),
(46,652,cs),
(36,652,o),
(35,650,o),
(35,645,cs),
(35,641,o),
(36,639,o),
(39,630,cs),
(66,538,o),
(221,77,o),
(245,6,cs),
(248,-3,o),
(268,-13,o),
(292,-13,cs)
);
}
);
width = 618;
}
);
note = V;
unicode = 86;
userData = {
KernOnName = V;
};
},
{
color = 1;
glyphname = W;
kernLeft = KO_W;
kernRight = KO_W;
lastChange = "2023-04-03 11:53:59 +0000";
layers = (
{
anchors = (
{
name = bottom;
pos = (473,0);
},
{
name = top;
pos = (507,652);
}
);
layerId = "220B7CD1-1E4F-4884-BA06-A44A5DCE8B14";
shapes = (
{
closed = 1;
nodes = (
(210,-13,o),
(213,-12,o),
(217,-4,cs),
(226,14,o),
(389,341,o),
(481,550,c),
(528,420,o),
(684,50,o),
(695,11,cs),
(699,-4,o),
(725,-13,o),
(755,-13,cs),
(765,-13,o),
(768,-10,o),
(769,3,cs),
(774,50,o),
(933,616,o),
(933,626,cs),
(933,644,o),
(906,652,o),
(886,652,cs),
(878,652,o),
(878,650,o),
(878,645,cs),
(878,591,o),
(784,248,o),
(736,69,c),
(676,194,o),
(563,506,o),
(509,635,cs),
(505,644,o),
(492,652,o),
(477,652,cs),
(472,652,o),
(468,647,o),
(467,644,cs),
(400,476,o),
(304,256,o),
(201,69,c),
(172,204,o),
(124,612,o),
(124,626,cs),
(124,644,o),
(92,652,o),
(72,652,cs),
(63,652,o),
(60,650,o),
(60,642,cs),
(60,638,o),
(60,631,o),
(61,623,cs),
(71,530,o),
(124,210,o),
(147,15,cs),
(149,-5,o),
(181,-13,o),
(202,-13,cs)
);
}
);
width = 958;
},
{
anchors = (
{
name = bottom;
pos = (473,0);
},
{
name = top;
pos = (507,652);
}
);
layerId = "2C50D5C7-CD05-484C-A32A-B9C1F3C11D26";
shapes = (
{
closed = 1;
nodes = (
(210,-13,o),
(213,-12,o),
(217,-4,cs),
(226,14,o),
(389,341,o),
(481,550,c),
(528,420,o),
(684,50,o),
(695,11,cs),
(699,-4,o),
(725,-13,o),
(755,-13,cs),
(765,-13,o),
(768,-10,o),
(769,3,cs),
(774,50,o),
(933,616,o),
(933,626,cs),
(933,644,o),
(906,652,o),
(886,652,cs),
(878,652,o),
(878,650,o),
(878,645,cs),
(878,591,o),
(784,248,o),
(736,69,c),
(676,194,o),
(563,506,o),
(509,635,cs),
(505,644,o),
(492,652,o),
(477,652,cs),
(472,652,o),
(468,647,o),
(467,644,cs),
(400,476,o),
(304,256,o),
(201,69,c),
(172,204,o),
(124,612,o),
(124,626,cs),
(124,644,o),
(92,652,o),
(72,652,cs),
(63,652,o),
(60,650,o),
(60,642,cs),
(60,638,o),
(60,631,o),
(61,623,cs),
(71,530,o),
(124,210,o),
(147,15,cs),
(149,-5,o),
(181,-13,o),
(202,-13,cs)
);
}
);
width = 958;
}
);
note = W;
unicode = 87;
userData = {
KernOnName = W;
};
},
{
color = 1;
glyphname = X;
kernLeft = KO_X;
kernRight = KO_X;
lastChange = "2023-04-03 11:53:59 +0000";
layers = (
{
anchors = (
{
name = bottom;
pos = (291,0);
},
{
name = top;
pos = (335,645);
}
);
layerId = "220B7CD1-1E4F-4884-BA06-A44A5DCE8B14";
shapes = (
{
closed = 1;
nodes = (
(54,-13,o),
(56,-13,o),
(66,1,cs),
(127,86,o),
(200,174,o),
(300,297,c),
(350,224,o),
(478,28,o),
(501,0,cs),
(509,-10,o),
(511,-13,o),
(518,-13,cs),
(530,-13,o),
(550,-4,o),
(562,6,cs),
(567,10,o),
(568,13,o),
(568,14,cs),
(568,15,o),
(564,21,o),
(557,31,cs),
(525,75,o),
(430,200,o),
(346,331,c),
(408,409,o),
(463,484,o),
(529,577,cs),
(534,585,o),
(536,590,o),
(536,598,cs),
(536,622,o),
(523,652,o),
(510,652,cs),
(507,652,o),
(506,650,o),
(503,644,cs),
(481,592,o),
(400,465,o),
(324,366,c),
(248,474,o),
(181,581,o),
(141,645,cs),
(137,651,o),
(132,652,o),
(123,652,cs),
(102,652,o),
(76,636,o),
(76,628,cs),
(76,625,o),
(77,623,o),
(83,614,cs),
(104,583,o),
(175,493,o),
(277,334,c),
(203,243,o),
(127,155,o),
(34,52,cs),
(28,46,o),
(26,43,o),
(26,38,cs),
(26,20,o),
(35,-13,o),
(50,-13,cs)
);
}
);
width = 598;
},
{
anchors = (
{
name = bottom;
pos = (291,0);
},
{
name = top;
pos = (335,645);
}
);
layerId = "2C50D5C7-CD05-484C-A32A-B9C1F3C11D26";
shapes = (
{
closed = 1;
nodes = (
(54,-13,o),
(56,-13,o),
(66,1,cs),
(127,86,o),
(200,174,o),
(300,297,c),
(350,224,o),
(478,28,o),
(501,0,cs),
(509,-10,o),
(511,-13,o),
(518,-13,cs),
(530,-13,o),
(550,-4,o),
(562,6,cs),
(567,10,o),
(568,13,o),
(568,14,cs),
(568,15,o),
(564,21,o),
(557,31,cs),
(525,75,o),
(430,200,o),
(346,331,c),
(408,409,o),
(463,484,o),
(529,577,cs),
(534,585,o),
(536,590,o),
(536,598,cs),
(536,622,o),
(523,652,o),
(510,652,cs),
(507,652,o),
(506,650,o),
(503,644,cs),
(481,592,o),
(400,465,o),
(324,366,c),
(248,474,o),
(181,581,o),
(141,645,cs),
(137,651,o),
(132,652,o),
(123,652,cs),
(102,652,o),
(76,636,o),
(76,628,cs),
(76,625,o),
(77,623,o),
(83,614,cs),
(104,583,o),
(175,493,o),
(277,334,c),
(203,243,o),
(127,155,o),
(34,52,cs),
(28,46,o),
(26,43,o),
(26,38,cs),
(26,20,o),
(35,-13,o),
(50,-13,cs)
);
}
);
width = 598;
}
);
note = X;
unicode = 88;
userData = {
KernOnName = X;
};
},
{
color = 1;
glyphname = Y;
kernLeft = KO_Y;
kernRight = KO_Y;
lastChange = "2023-04-03 11:53:59 +0000";
layers = (
{
anchors = (
{
name = bottom;
pos = (279,0);
},
{
name = top;
pos = (313,642);
},
{
name = topleft;
pos = (95,652);
}
);
layerId = "220B7CD1-1E4F-4884-BA06-A44A5DCE8B14";
shapes = (
{
closed = 1;
nodes = (
(310,-13,o),
(311,-10,o),
(311,-5,cs),
(314,85,o),
(317,174,o),
(320,264,c),
(375,363,o),
(487,531,o),
(521,590,cs),
(529,604,o),
(531,610,o),
(531,614,cs),
(531,626,o),
(520,652,o),
(506,652,cs),
(502,652,o),
(499,650,o),
(497,646,cs),
(484,621,o),
(363,418,o),
(301,320,c),
(267,378,o),
(204,504,o),
(123,630,cs),
(110,651,o),
(76,652,o),
(62,652,cs),
(48,652,o),
(45,650,o),
(45,643,cs),
(45,638,o),
(53,626,o),
(58,618,cs),
(77,590,o),
(145,502,o),
(266,275,c),
(259,188,o),
(248,25,o),
(248,14,cs),
(248,-4,o),
(278,-13,o),
(301,-13,cs)
);
}
);
width = 566;
},
{
anchors = (
{
name = bottom;
pos = (279,0);
},
{
name = top;
pos = (313,642);
},
{
name = topleft;
pos = (95,652);
}
);
layerId = "2C50D5C7-CD05-484C-A32A-B9C1F3C11D26";
shapes = (
{
closed = 1;
nodes = (
(310,-13,o),
(311,-10,o),
(311,-5,cs),
(314,85,o),
(317,174,o),
(320,264,c),
(375,363,o),
(487,531,o),
(521,590,cs),
(529,604,o),
(531,610,o),
(531,614,cs),
(531,626,o),
(520,652,o),
(506,652,cs),
(502,652,o),
(499,650,o),
(497,646,cs),
(484,621,o),
(363,418,o),
(301,320,c),
(267,378,o),
(204,504,o),
(123,630,cs),
(110,651,o),
(76,652,o),
(62,652,cs),
(48,652,o),
(45,650,o),
(45,643,cs),
(45,638,o),
(53,626,o),
(58,618,cs),
(77,590,o),
(145,502,o),
(266,275,c),
(259,188,o),
(248,25,o),
(248,14,cs),
(248,-4,o),
(278,-13,o),
(301,-13,cs)
);
}
);
width = 566;
}
);
note = Y;
unicode = 89;
userData = {
KernOnName = Y;
};
},
{
color = 1;
glyphname = Z;
kernLeft = KO_Z;
kernRight = KO_Z;
lastChange = "2023-04-03 11:53:59 +0000";
layers = (
{
anchors = (
{
name = bottom;
pos = (289,0);
},
{
name = center;
pos = (276,326);
},
{
name = top;
pos = (313,652);
}
);
layerId = "220B7CD1-1E4F-4884-BA06-A44A5DCE8B14";
shapes = (
{
closed = 1;
nodes = (
(484,0,ls),
(490,0,o),
(501,23,o),
(501,43,cs),
(501,53,o),
(499,61,o),
(494,61,cs),
(487,61,o),
(461,46,o),
(206,46,cs),
(112,46,l),
(125,72,o),
(470,551,o),
(490,578,cs),
(498,588,o),
(499,598,o),
(499,605,cs),
(499,619,o),
(490,639,o),
(481,639,cs),
(109,639,ls),
(100,639,o),
(91,616,o),
(91,594,cs),
(91,584,o),
(92,578,o),
(97,578,cs),
(110,578,o),
(122,594,o),
(338,594,cs),
(431,594,l),
(368,482,o),
(143,179,o),
(52,58,cs),
(44,48,o),
(44,44,o),
(44,38,cs),
(44,24,o),
(52,0,o),
(61,0,cs)
);
}
);
width = 539;
},
{
anchors = (
{
name = bottom;
pos = (289,0);
},
{
name = center;
pos = (276,326);
},
{
name = top;
pos = (313,652);
}
);
layerId = "2C50D5C7-CD05-484C-A32A-B9C1F3C11D26";
shapes = (
{
closed = 1;
nodes = (
(484,0,ls),
(490,0,o),
(501,23,o),
(501,43,cs),
(501,53,o),
(499,61,o),
(494,61,cs),
(487,61,o),
(461,46,o),
(206,46,cs),
(112,46,l),
(125,72,o),
(470,551,o),
(490,578,cs),
(498,588,o),
(499,598,o),
(499,605,cs),
(499,619,o),
(490,639,o),
(481,639,cs),
(109,639,ls),
(100,639,o),
(91,616,o),
(91,594,cs),
(91,584,o),
(92,578,o),
(97,578,cs),
(110,578,o),
(122,594,o),
(338,594,cs),
(431,594,l),
(368,482,o),
(143,179,o),
(52,58,cs),
(44,48,o),
(44,44,o),
(44,38,cs),
(44,24,o),
(52,0,o),
(61,0,cs)
);
}
);
width = 539;
}
);
note = Z;
unicode = 90;
},
{
color = 1;
glyphname = a;
kernLeft = KO_a;
kernRight = KO_a;
lastChange = "2023-04-03 11:53:59 +0000";
layers = (
{
anchors = (
{
name = bottom;
pos = (303,0);
},
{
name = ogonek;
pos = (529,10);
},
{
name = top;
pos = (339,524);
}
);
background = {
shapes = (
{
closed = 1;
nodes = (
(205,-13,o),
(379,210,o),
(451,355,c),
(445,262,o),
(438,121,o),
(438,63,cs),
(438,40,o),
(438,26,o),
(441,20,cs),
(446,9,o),
(480,-13,o),
(491,-13,cs),
(533,-13,o),
(618,88,o),
(651,131,cs),
(653,133,o),
(654,137,o),
(654,141,cs),
(654,154,o),
(644,170,o),
(640,170,cs),
(637,170,o),
(636,167,o),
(633,164,c),
(612,136,o),
(530,41,o),
(511,41,cs),
(499,41,o),
(495,48,o),
(495,89,cs),
(495,237,o),
(511,451,o),
(511,460,c),
(516,460,o),
(523,472,o),
(523,490,cs),
(523,495,o),
(520,496,o),
(519,496,cs),
(442,513,o),
(338,524,o),
(320,524,cs),
(253,524,o),
(191,484,o),
(142,417,cs),
(91,348,o),
(88,141,o),
(88,63,cs),
(88,40,o),
(89,26,o),
(92,20,cs),
(97,9,o),
(131,-13,o),
(142,-13,cs)
);
},
{
closed = 1;
nodes = (
(149,41,o),
(145,48,o),
(145,89,cs),
(145,339,o),
(199,481,o),
(282,481,cs),
(320,481,o),
(377,476,o),
(460,460,c),
(418,319,o),
(194,41,o),
(161,41,cs)
);
}
);
};
layerId = "220B7CD1-1E4F-4884-BA06-A44A5DCE8B14";
shapes = (
{
closed = 0;
nodes = (
(164,393,l),
(187,433,l)
);
},
{
closed = 0;
nodes = (
(484,483,l),
(413,509,o),
(272,512,o),
(236,485,cs),
(93,378,o),
(117,50,o),
(127,37,c),
(163,10,l),
(227,32,o),
(463,373,o),
(493,455,c),
(476,287,o),
(459,83,o),
(476,47,c),
(499,6,l),
(539,8,o),
(634,128,o),
(644,141,c)
);
}
);
width = 645;
},
{
anchors = (
{
name = bottom;
pos = (303,0);
},
{
name = ogonek;
pos = (529,10);
},
{
name = top;
pos = (339,524);
}
);
layerId = "2C50D5C7-CD05-484C-A32A-B9C1F3C11D26";
shapes = (
{
closed = 0;
nodes = (
(164,393,l),
(187,433,l)
);
},
{
closed = 0;
nodes = (
(484,483,l),
(413,509,o),
(272,512,o),
(236,485,cs),
(93,378,o),
(117,50,o),
(127,37,c),
(163,10,l),
(227,32,o),
(463,373,o),
(493,455,c),
(476,287,o),
(459,83,o),
(476,47,c),
(499,6,l),
(539,8,o),
(634,128,o),
(644,141,c)
);
}
);
width = 645;
}
);
note = a;
unicode = 97;
userData = {
KernOnName = a;
};
},
{
color = 1;
glyphname = b;
kernLeft = KO_b;
kernRight = KO_b;
lastChange = "2023-04-03 11:53:59 +0000";
layers = (
{
anchors = (
{
name = bottom;
pos = (301,0);
},
{
name = cross;
pos = (208,639);
},
{
name = top;
pos = (419,524);
}
);
layerId = "220B7CD1-1E4F-4884-BA06-A44A5DCE8B14";
shapes = (
{
closed = 1;
nodes = (
(374,-13,o),
(434,28,o),
(480,94,cs),
(511,139,o),
(519,255,o),
(519,333,cs),
(519,438,o),
(516,481,o),
(510,491,cs),
(503,503,o),
(470,524,o),
(458,524,cs),
(395,524,o),
(234,311,o),
(169,166,c),
(178,282,o),
(207,688,o),
(208,729,cs),
(208,747,o),
(180,756,o),
(159,756,cs),
(151,756,o),
(150,753,o),
(150,748,cs),
(146,593,o),
(120,205,o),
(110,52,c),
(105,52,o),
(98,39,o),
(98,21,cs),
(98,16,o),
(101,15,o),
(102,15,cs),
(178,-1,o),
(280,-13,o),
(307,-13,cs)
);
},
{
closed = 1;
nodes = (
(305,30,o),
(248,35,o),
(164,52,c),
(199,193,o),
(409,470,o),
(442,470,cs),
(462,470,o),
(463,438,o),
(463,341,cs),
(463,142,o),
(417,30,o),
(343,30,cs)
);
}
);
width = 582;
},
{
anchors = (
{
name = bottom;
pos = (301,0);
},
{
name = cross;
pos = (208,639);
},
{
name = top;
pos = (419,524);
}
);
layerId = "2C50D5C7-CD05-484C-A32A-B9C1F3C11D26";
shapes = (
{
closed = 1;
nodes = (
(374,-13,o),
(434,28,o),
(480,94,cs),
(511,139,o),
(519,255,o),
(519,333,cs),
(519,438,o),
(516,481,o),
(510,491,cs),
(503,503,o),
(470,524,o),
(458,524,cs),
(395,524,o),
(234,311,o),
(169,166,c),
(178,282,o),
(207,688,o),
(208,729,cs),
(208,747,o),
(180,756,o),
(159,756,cs),
(151,756,o),
(150,753,o),
(150,748,cs),
(146,593,o),
(120,205,o),
(110,52,c),
(105,52,o),
(98,39,o),
(98,21,cs),
(98,16,o),
(101,15,o),
(102,15,cs),
(178,-1,o),
(280,-13,o),
(307,-13,cs)
);
},
{
closed = 1;
nodes = (
(305,30,o),
(248,35,o),
(164,52,c),
(199,193,o),
(409,470,o),
(442,470,cs),
(462,470,o),
(463,438,o),
(463,341,cs),
(463,142,o),
(417,30,o),
(343,30,cs)
);
}
);
width = 582;
}
);
note = b;
unicode = 98;
userData = {
KernOnName = b;
};
},
{
color = 1;
glyphname = c;
kernLeft = KO_c;
kernRight = KO_c;
lastChange = "2023-04-03 11:53:59 +0000";
layers = (
{
anchors = (
{
name = bottom;
pos = (230,0);
},
{
name = top;
pos = (285,524);
}
);
layerId = "220B7CD1-1E4F-4884-BA06-A44A5DCE8B14";
shapes = (
{
closed = 1;
nodes = (
(311,-13,o),
(368,16,o),
(411,62,cs),
(417,68,o),
(418,71,o),
(418,77,cs),
(418,89,o),
(412,103,o),
(406,103,cs),
(402,103,o),
(400,100,o),
(387,88,cs),
(366,69,o),
(319,30,o),
(258,30,cs),
(168,30,o),
(125,112,o),
(125,227,cs),
(125,387,o),
(188,489,o),
(258,489,cs),
(301,489,o),
(331,478,o),
(364,440,cs),
(373,430,o),
(377,426,o),
(385,426,cs),
(394,426,o),
(402,448,o),
(402,464,cs),
(402,472,o),
(398,480,o),
(388,489,cs),
(360,514,o),
(331,524,o),
(270,524,cs),
(179,524,o),
(63,450,o),
(63,222,cs),
(63,53,o),
(139,-13,o),
(237,-13,cs)
);
}
);
width = 448;
},
{
anchors = (
{
name = bottom;
pos = (230,0);
},
{
name = top;
pos = (285,524);
}
);
layerId = "2C50D5C7-CD05-484C-A32A-B9C1F3C11D26";
shapes = (
{
closed = 1;
nodes = (
(311,-13,o),
(368,16,o),
(411,62,cs),
(417,68,o),
(418,71,o),
(418,77,cs),
(418,89,o),
(412,103,o),
(406,103,cs),
(402,103,o),
(400,100,o),
(387,88,cs),
(366,69,o),
(319,30,o),
(258,30,cs),
(168,30,o),
(125,112,o),
(125,227,cs),
(125,387,o),
(188,489,o),
(258,489,cs),
(301,489,o),
(331,478,o),
(364,440,cs),
(373,430,o),
(377,426,o),
(385,426,cs),
(394,426,o),
(402,448,o),
(402,464,cs),
(402,472,o),
(398,480,o),
(388,489,cs),
(360,514,o),
(331,524,o),
(270,524,cs),
(179,524,o),
(63,450,o),
(63,222,cs),
(63,53,o),
(139,-13,o),
(237,-13,cs)
);
}
);
width = 448;
}
);
note = c;
unicode = 99;
userData = {
KernOnName = c;
};
},
{
color = 4;
glyphname = d;
kernLeft = KO_a;
kernRight = KO_d;
lastChange = "2023-04-03 11:53:59 +0000";
layers = (
{
anchors = (
{
name = bottom;
pos = (303,0);
},
{
name = center;
pos = (323,262);
},
{
name = cross;
pos = (480,639);
},
{
name = top;
pos = (253,524);
},
{
name = topright;
pos = (638,630);
}
);
background = {
shapes = (
{
closed = 1;
nodes = (
(205,-13,o),
(379,210,o),
(451,355,c),
(445,262,o),
(438,121,o),
(438,63,cs),
(438,40,o),
(438,26,o),
(441,20,cs),
(446,9,o),
(480,-13,o),
(491,-13,cs),
(533,-13,o),
(618,88,o),
(651,131,cs),
(653,133,o),
(654,136,o),
(654,141,cs),
(654,154,o),
(644,170,o),
(641,170,cs),
(637,170,o),
(636,167,o),
(633,164,c),
(612,136,o),
(530,42,o),
(511,42,cs),
(499,42,o),
(495,48,o),
(495,89,cs),
(495,237,o),
(511,451,o),
(511,460,c),
(516,460,o),
(523,472,o),
(523,490,cs),
(523,495,o),
(521,497,o),
(519,497,cs),
(515,497,l),
(524,632,o),
(530,709,o),
(530,729,cs),
(530,747,o),
(503,756,o),
(481,756,cs),
(474,756,o),
(472,753,o),
(472,748,cs),
(471,655,o),
(469,602,o),
(462,508,c),
(397,518,o),
(334,524,o),
(320,524,cs),
(253,524,o),
(191,484,o),
(142,417,cs),
(91,348,o),
(88,141,o),
(88,63,cs),
(88,40,o),
(89,26,o),
(92,20,cs),
(97,9,o),
(131,-13,o),
(142,-13,cs)
);
},
{
closed = 1;
nodes = (
(149,42,o),
(145,48,o),
(145,89,cs),
(145,339,o),
(199,481,o),
(282,481,cs),
(320,481,o),
(377,476,o),
(460,460,c),
(418,319,o),
(194,42,o),
(161,42,cs)
);
}
);
};
layerId = "220B7CD1-1E4F-4884-BA06-A44A5DCE8B14";
shapes = (
{
closed = 0;
nodes = (
(165,405,l),
(273,569,o),
(427,492,o),
(475,482,c)
);
},
{
closed = 0;
nodes = (
(158,392,l),
(117,290,o),
(116,186,o),
(116,129,cs),
(116,101,o),
(114,21,o),
(145,22,cs),
(235,24,o),
(445,360,o),
(484,436,c),
(505,739,l)
);
},
{
closed = 0;
nodes = (
(484,412,l),
(483,386,l),
(466,54,l),
(473,43,o),
(473,27,o),
(488,22,c),
(565,22,o),
(607,96,o),
(640,148,c)
);
}
);
width = 645;
},
{
anchors = (
{
name = bottom;
pos = (303,0);
},
{
name = center;
pos = (323,262);
},
{
name = cross;
pos = (480,639);
},
{
name = top;
pos = (253,524);
},
{
name = topright;
pos = (638,630);
}
);
layerId = "2C50D5C7-CD05-484C-A32A-B9C1F3C11D26";
shapes = (
{
closed = 0;
nodes = (
(165,405,l),
(273,569,o),
(427,492,o),
(475,482,c)
);
},
{
closed = 0;
nodes = (
(158,392,l),
(117,290,o),
(116,186,o),
(116,129,cs),
(116,101,o),
(114,21,o),
(145,22,cs),
(235,24,o),
(445,360,o),
(484,436,c),
(505,739,l)
);
},
{
closed = 0;
nodes = (
(484,412,l),
(483,386,l),
(466,54,l),
(473,43,o),
(473,27,o),
(488,22,c),
(565,22,o),
(607,96,o),
(640,148,c)
);
}
);
width = 645;
}
);
metricLeft = a;
note = d;
unicode = 100;
userData = {
KernOnName = d;
};
},
{
color = 1;
glyphname = e;
kernLeft = KO_e;
kernRight = KO_e;
lastChange = "2023-04-03 11:53:59 +0000";
layers = (
{
anchors = (
{
name = bottom;
pos = (234,0);
},
{
name = ogonek;
pos = (371,0);
},
{
name = top;
pos = (299,524);
}
);
background = {
shapes = (
{
closed = 1;
nodes = (
(314,-13,o),
(371,16,o),
(414,62,cs),
(420,68,o),
(421,71,o),
(421,77,cs),
(421,89,o),
(415,103,o),
(409,103,cs),
(405,103,o),
(403,100,o),
(390,88,cs),
(369,69,o),
(317,30,o),
(256,30,cs),
(165,30,o),
(126,112,o),
(126,227,cs),
(126,246,o),
(126,275,o),
(128,282,c),
(154,276,o),
(194,271,o),
(236,271,cs),
(318,271,o),
(419,311,o),
(419,413,cs),
(419,472,o),
(381,524,o),
(283,524,cs),
(171,524,o),
(66,450,o),
(66,222,cs),
(66,53,o),
(142,-13,o),
(240,-13,cs)
);
},
{
closed = 1;
nodes = (
(188,310,o),
(144,325,o),
(139,333,c),
(158,441,o),
(211,492,o),
(270,492,cs),
(329,492,o),
(354,456,o),
(354,416,cs),
(354,348,o),
(311,310,o),
(234,310,cs)
);
}
);
};
layerId = "220B7CD1-1E4F-4884-BA06-A44A5DCE8B14";
shapes = (
{
closed = 0;
nodes = (
(110,321,l),
(144,294,o),
(191,287,o),
(263,287,cs),
(324,287,o),
(388,334,o),
(388,413,cs),
(388,458,o),
(370,508,o),
(280,508,cs),
(165,508,o),
(110,366,o),
(101,279,cs),
(92,192,o),
(101,6,o),
(242,6,cs),
(308,6,o),
(372,43,o),
(407,82,c)
);
},
{
closed = 0;
nodes = (
(243,287,l),
(300,286,l)
);
}
);
width = 465;
},
{
anchors = (
{
name = bottom;
pos = (234,0);
},
{
name = ogonek;
pos = (371,0);
},
{
name = top;
pos = (299,524);
}
);
layerId = "2C50D5C7-CD05-484C-A32A-B9C1F3C11D26";
shapes = (
{
closed = 0;
nodes = (
(110,321,l),
(144,294,o),
(191,287,o),
(263,287,cs),
(324,287,o),
(388,334,o),
(388,413,cs),
(388,458,o),
(370,508,o),
(280,508,cs),
(165,508,o),
(110,366,o),
(101,279,cs),
(92,192,o),
(101,6,o),
(242,6,cs),
(308,6,o),
(372,43,o),
(407,82,c)
);
},
{
closed = 0;
nodes = (
(243,287,l),
(300,286,l)
);
}
);
width = 465;
}
);
note = e;
unicode = 101;
userData = {
KernOnName = e;
};
},
{
color = 1;
glyphname = f;
kernLeft = KO_f;
kernRight = KO_f;
lastChange = "2023-04-03 11:53:59 +0000";
layers = (
{
anchors = (
{
name = bottom;
pos = (153,0);
},
{
name = top;
pos = (199,652);
}
);
layerId = "220B7CD1-1E4F-4884-BA06-A44A5DCE8B14";
shapes = (
{
closed = 1;
nodes = (
(54,-244,o),
(97,-225,o),
(134,-190,cs),
(171,-155,o),
(199,-99,o),
(199,-28,cs),
(199,453,l),
(398,453,ls),
(414,453,o),
(421,474,o),
(421,491,cs),
(421,497,o),
(418,499,o),
(413,499,cs),
(199,499,l),
(202,571,ls),
(206,668,o),
(239,704,o),
(290,704,cs),
(352,704,o),
(401,687,o),
(407,685,cs),
(410,684,o),
(423,678,o),
(428,678,cs),
(434,678,o),
(438,691,o),
(438,703,cs),
(438,709,o),
(437,713,o),
(432,717,cs),
(407,734,o),
(356,756,o),
(314,756,cs),
(273,756,o),
(235,736,o),
(200,703,cs),
(156,662,o),
(135,606,o),
(135,504,cs),
(135,499,l),
(61,499,ls),
(45,499,o),
(39,478,o),
(39,461,cs),
(39,454,o),
(41,453,o),
(46,453,cs),
(140,453,l),
(140,40,ls),
(140,-169,o),
(105,-193,o),
(24,-193,cs),
(-46,-193,o),
(-135,-161,o),
(-168,-147,cs),
(-174,-145,o),
(-181,-141,o),
(-183,-141,cs),
(-186,-141,o),
(-190,-146,o),
(-190,-164,cs),
(-190,-174,o),
(-186,-185,o),
(-180,-189,cs),
(-168,-198,o),
(-68,-244,o),
(21,-244,cs)
);
}
);
width = 305;
},
{
anchors = (
{
name = bottom;
pos = (153,0);
},
{
name = top;
pos = (199,652);
}
);
layerId = "2C50D5C7-CD05-484C-A32A-B9C1F3C11D26";
shapes = (
{
closed = 1;
nodes = (
(54,-244,o),
(97,-225,o),
(134,-190,cs),
(171,-155,o),
(199,-99,o),
(199,-28,cs),
(199,453,l),
(398,453,ls),
(414,453,o),
(421,474,o),
(421,491,cs),
(421,497,o),
(418,499,o),
(413,499,cs),
(199,499,l),
(202,571,ls),
(206,668,o),
(239,704,o),
(290,704,cs),
(352,704,o),
(401,687,o),
(407,685,cs),
(410,684,o),
(423,678,o),
(428,678,cs),
(434,678,o),
(438,691,o),
(438,703,cs),
(438,709,o),
(437,713,o),
(432,717,cs),
(407,734,o),
(356,756,o),
(314,756,cs),
(273,756,o),
(235,736,o),
(200,703,cs),
(156,662,o),
(135,606,o),
(135,504,cs),
(135,499,l),
(61,499,ls),
(45,499,o),
(39,478,o),
(39,461,cs),
(39,454,o),
(41,453,o),
(46,453,cs),
(140,453,l),
(140,40,ls),
(140,-169,o),
(105,-193,o),
(24,-193,cs),
(-46,-193,o),
(-135,-161,o),
(-168,-147,cs),
(-174,-145,o),
(-181,-141,o),
(-183,-141,cs),
(-186,-141,o),
(-190,-146,o),
(-190,-164,cs),
(-190,-174,o),
(-186,-185,o),
(-180,-189,cs),
(-168,-198,o),
(-68,-244,o),
(21,-244,cs)
);
}
);
width = 305;
}
);
note = f;
unicode = 102;
userData = {
KernOnName = f;
};
},
{
color = 1;
glyphname = g;
kernLeft = KO_g;
kernRight = KO_g;
lastChange = "2023-04-03 11:53:59 +0000";
layers = (
{
anchors = (
{
name = bottom;
pos = (278,-244);
},
{
name = top;
pos = (348,524);
}
);
layerId = "220B7CD1-1E4F-4884-BA06-A44A5DCE8B14";
shapes = (
{
closed = 1;
nodes = (
(356,-244,o),
(402,-228,o),
(438,-193,cs),
(475,-157,o),
(502,-103,o),
(502,-28,cs),
(502,307,o),
(502,399,o),
(516,460,c),
(521,460,o),
(528,472,o),
(528,490,cs),
(528,495,o),
(525,496,o),
(524,496,cs),
(447,513,o),
(343,524,o),
(325,524,cs),
(258,524,o),
(196,484,o),
(147,417,cs),
(96,348,o),
(93,141,o),
(93,63,cs),
(93,40,o),
(94,26,o),
(97,20,cs),
(102,9,o),
(136,-13,o),
(147,-13,cs),
(210,-13,o),
(384,210,o),
(456,355,c),
(448,268,o),
(447,129,o),
(447,45,cs),
(447,-164,o),
(413,-193,o),
(332,-193,cs),
(215,-193,o),
(97,-128,o),
(90,-128,cs),
(85,-128,o),
(82,-135,o),
(82,-149,cs),
(82,-159,o),
(86,-171,o),
(92,-174,cs),
(136,-197,o),
(234,-244,o),
(324,-244,cs)
);
},
{
closed = 1;
nodes = (
(154,42,o),
(150,48,o),
(150,89,cs),
(150,339,o),
(204,481,o),
(287,481,cs),
(325,481,o),
(382,476,o),
(465,460,c),
(423,319,o),
(199,42,o),
(166,42,cs)
);
}
);
width = 590;
},
{
anchors = (
{
name = bottom;
pos = (278,-244);
},
{
name = top;
pos = (348,524);
}
);
layerId = "2C50D5C7-CD05-484C-A32A-B9C1F3C11D26";
shapes = (
{
closed = 1;
nodes = (
(356,-244,o),
(402,-228,o),
(438,-193,cs),
(475,-157,o),
(502,-103,o),
(502,-28,cs),
(502,307,o),
(502,399,o),
(516,460,c),
(521,460,o),
(528,472,o),
(528,490,cs),
(528,495,o),
(525,496,o),
(524,496,cs),
(447,513,o),
(343,524,o),
(325,524,cs),
(258,524,o),
(196,484,o),
(147,417,cs),
(96,348,o),
(93,141,o),
(93,63,cs),
(93,40,o),
(94,26,o),
(97,20,cs),
(102,9,o),
(136,-13,o),
(147,-13,cs),
(210,-13,o),
(384,210,o),
(456,355,c),
(448,268,o),
(447,129,o),
(447,45,cs),
(447,-164,o),
(413,-193,o),
(332,-193,cs),
(215,-193,o),
(97,-128,o),
(90,-128,cs),
(85,-128,o),
(82,-135,o),
(82,-149,cs),
(82,-159,o),
(86,-171,o),
(92,-174,cs),
(136,-197,o),
(234,-244,o),
(324,-244,cs)
);
},
{
closed = 1;
nodes = (
(154,42,o),
(150,48,o),
(150,89,cs),
(150,339,o),
(204,481,o),
(287,481,cs),
(325,481,o),
(382,476,o),
(465,460,c),
(423,319,o),
(199,42,o),
(166,42,cs)
);
}
);
width = 590;
}
);
note = g;
unicode = 103;
userData = {
KernOnName = g;
};
},
{
color = 1;
glyphname = h;
kernLeft = KO_h;
kernRight = KO_n;
lastChange = "2023-04-03 11:53:59 +0000";
layers = (
{
anchors = (
{
name = bottom;
pos = (326,0);
},
{
name = center;
pos = (326,378);
},
{
name = cross;
pos = (209,639);
},
{
name = top;
pos = (180,718);
}
);
layerId = "220B7CD1-1E4F-4884-BA06-A44A5DCE8B14";
shapes = (
{
closed = 1;
nodes = (
(154,-13,o),
(157,-10,o),
(157,-5,cs),
(157,44,o),
(185,111,o),
(223,178,cs),
(295,307,o),
(433,470,o),
(451,470,cs),
(463,470,o),
(467,463,o),
(466,422,cs),
(465,351,o),
(444,140,o),
(444,63,cs),
(444,40,o),
(444,26,o),
(447,20,cs),
(452,9,o),
(486,-13,o),
(497,-13,cs),
(539,-13,o),
(625,88,o),
(657,131,cs),
(659,133,o),
(660,137,o),
(660,141,cs),
(660,154,o),
(650,170,o),
(646,170,cs),
(643,170,o),
(642,167,o),
(639,164,c),
(618,136,o),
(536,41,o),
(518,41,cs),
(505,41,o),
(500,48,o),
(501,89,cs),
(502,164,o),
(521,370,o),
(524,448,cs),
(525,471,o),
(523,485,o),
(520,491,cs),
(515,503,o),
(482,524,o),
(471,524,cs),
(411,524,o),
(229,286,o),
(168,141,c),
(168,152,o),
(208,683,o),
(208,729,cs),
(208,747,o),
(180,756,o),
(159,756,cs),
(151,756,o),
(150,753,o),
(150,748,cs),
(150,617,o),
(107,17,o),
(107,14,cs),
(107,-4,o),
(128,-13,o),
(147,-13,cs)
);
}
);
width = 651;
},
{
anchors = (
{
name = bottom;
pos = (326,0);
},
{
name = center;
pos = (326,378);
},
{
name = cross;
pos = (209,639);
},
{
name = top;
pos = (180,718);
}
);
layerId = "2C50D5C7-CD05-484C-A32A-B9C1F3C11D26";
shapes = (
{
closed = 1;
nodes = (
(154,-13,o),
(157,-10,o),
(157,-5,cs),
(157,44,o),
(185,111,o),
(223,178,cs),
(295,307,o),
(433,470,o),
(451,470,cs),
(463,470,o),
(467,463,o),
(466,422,cs),
(465,351,o),
(444,140,o),
(444,63,cs),
(444,40,o),
(444,26,o),
(447,20,cs),
(452,9,o),
(486,-13,o),
(497,-13,cs),
(539,-13,o),
(625,88,o),
(657,131,cs),
(659,133,o),
(660,137,o),
(660,141,cs),
(660,154,o),
(650,170,o),
(646,170,cs),
(643,170,o),
(642,167,o),
(639,164,c),
(618,136,o),
(536,41,o),
(518,41,cs),
(505,41,o),
(500,48,o),
(501,89,cs),
(502,164,o),
(521,370,o),
(524,448,cs),
(525,471,o),
(523,485,o),
(520,491,cs),
(515,503,o),
(482,524,o),
(471,524,cs),
(411,524,o),
(229,286,o),
(168,141,c),
(168,152,o),
(208,683,o),
(208,729,cs),
(208,747,o),
(180,756,o),
(159,756,cs),
(151,756,o),
(150,753,o),
(150,748,cs),
(150,617,o),
(107,17,o),
(107,14,cs),
(107,-4,o),
(128,-13,o),
(147,-13,cs)
);
}
);
width = 651;
}
);
metricRight = n;
note = h;
unicode = 104;
userData = {
KernOnName = h;
};
},
{
color = 1;
glyphname = i;
kernLeft = KO_i;
kernRight = KO_i;
lastChange = "2023-04-03 11:53:59 +0000";
layers = (
{
anchors = (
{
name = bottom;
pos = (156,0);
}
);
background = {
shapes = (
{
closed = 1;
nodes = (
(200,-13,o),
(285,88,o),
(318,131,cs),
(320,133,o),
(321,137,o),
(321,141,cs),
(321,154,o),
(311,170,o),
(307,170,cs),
(304,170,o),
(303,167,o),
(300,164,c),
(279,136,o),
(197,41,o),
(178,41,cs),
(166,41,o),
(162,48,o),
(162,89,cs),
(162,164,o),
(187,451,o),
(187,497,cs),
(187,515,o),
(160,524,o),
(138,524,cs),
(131,524,o),
(130,521,o),
(130,516,cs),
(130,447,o),
(109,191,o),
(107,63,cs),
(107,40,o),
(106,26,o),
(109,20,cs),
(114,9,o),
(147,-13,o),
(158,-13,cs)
);
},
{
closed = 1;
nodes = (
(191,664,o),
(210,689,o),
(210,710,cs),
(210,744,o),
(196,756,o),
(181,756,cs),
(160,756,o),
(137,732,o),
(137,699,cs),
(137,675,o),
(151,664,o),
(171,664,cs)
);
}
);
};
layerId = "220B7CD1-1E4F-4884-BA06-A44A5DCE8B14";
shapes = (
{
closed = 0;
nodes = (
(157,485,l),
(129,58,ls),
(128,36,o),
(135,11,o),
(164,16,cs),
(227,26,o),
(273,99,o),
(308,152,c)
);
},
{
closed = 0;
nodes = (
(137,675,l),
(154,701,o),
(170,726,o),
(187,752,c)
);
},
{
closed = 0;
nodes = (
(288,121,l),
(305,149,l)
);
}
);
width = 312;
},
{
anchors = (
{
name = bottom;
pos = (156,0);
}
);
layerId = "2C50D5C7-CD05-484C-A32A-B9C1F3C11D26";
shapes = (
{
closed = 0;
nodes = (
(157,485,l),
(129,58,ls),
(128,36,o),
(135,11,o),
(164,16,cs),
(227,26,o),
(273,99,o),
(308,152,c)
);
},
{
closed = 0;
nodes = (
(137,675,l),
(154,701,o),
(170,726,o),
(187,752,c)
);
},
{
closed = 0;
nodes = (
(288,121,l),
(305,149,l)
);
}
);
width = 312;
}
);
note = i;
unicode = 105;
userData = {
KernOnName = i;
};
},
{
color = 1;
glyphname = j;
kernLeft = KO_j;
kernRight = KO_j;
lastChange = "2023-04-03 11:53:59 +0000";
layers = (
{
layerId = "220B7CD1-1E4F-4884-BA06-A44A5DCE8B14";
shapes = (
{
closed = 1;
nodes = (
(23,-244,o),
(87,-212,o),
(121,-159,cs),
(148,-117,o),
(171,-82,o),
(184,146,cs),
(189,241,o),
(191,356,o),
(191,497,cs),
(191,515,o),
(164,524,o),
(142,524,cs),
(135,524,o),
(134,521,o),
(134,516,cs),
(134,382,o),
(131,255,o),
(124,146,cs),
(114,-19,o),
(95,-139,o),
(65,-168,cs),
(47,-185,o),
(20,-193,o),
(-9,-193,cs),
(-62,-193,o),
(-113,-178,o),
(-119,-178,cs),
(-127,-178,o),
(-130,-179,o),
(-130,-192,cs),
(-130,-211,o),
(-128,-220,o),
(-120,-224,cs),
(-110,-229,o),
(-63,-244,o),
(-18,-244,cs)
);
},
{
closed = 1;
nodes = (
(195,664,o),
(214,689,o),
(214,710,cs),
(214,744,o),
(200,756,o),
(185,756,cs),
(164,756,o),
(141,732,o),
(141,699,cs),
(141,675,o),
(155,664,o),
(175,664,cs)
);
}
);
width = 286;
},
{
layerId = "2C50D5C7-CD05-484C-A32A-B9C1F3C11D26";
shapes = (
{
closed = 1;
nodes = (
(23,-244,o),
(87,-212,o),
(121,-159,cs),
(148,-117,o),
(171,-82,o),
(184,146,cs),
(189,241,o),
(191,356,o),
(191,497,cs),
(191,515,o),
(164,524,o),
(142,524,cs),
(135,524,o),
(134,521,o),
(134,516,cs),
(134,382,o),
(131,255,o),
(124,146,cs),
(114,-19,o),
(95,-139,o),
(65,-168,cs),
(47,-185,o),
(20,-193,o),
(-9,-193,cs),
(-62,-193,o),
(-113,-178,o),
(-119,-178,cs),
(-127,-178,o),
(-130,-179,o),
(-130,-192,cs),
(-130,-211,o),
(-128,-220,o),
(-120,-224,cs),
(-110,-229,o),
(-63,-244,o),
(-18,-244,cs)
);
},
{
closed = 1;
nodes = (
(195,664,o),
(214,689,o),
(214,710,cs),
(214,744,o),
(200,756,o),
(185,756,cs),
(164,756,o),
(141,732,o),
(141,699,cs),
(141,675,o),
(155,664,o),
(175,664,cs)
);
}
);
width = 286;
}
);
note = j;
unicode = 106;
userData = {
KernOnName = j;
};
},
{
color = 1;
glyphname = k;
kernLeft = KO_k;
kernRight = KO_k;
lastChange = "2023-04-03 11:53:59 +0000";
layers = (
{
anchors = (
{
name = bottom;
pos = (290,0);
},
{
name = top;
pos = (398,640);
}
);
layerId = "220B7CD1-1E4F-4884-BA06-A44A5DCE8B14";
shapes = (
{
closed = 1;
nodes = (
(154,-13,o),
(157,-10,o),
(157,-5,cs),
(157,36,o),
(165,79,o),
(178,122,cs),
(232,301,o),
(377,480,o),
(447,480,cs),
(470,480,o),
(487,456,o),
(487,436,cs),
(487,363,o),
(365,275,o),
(229,233,c),
(320,171,o),
(463,25,o),
(484,0,cs),
(492,-9,o),
(496,-13,o),
(499,-13,cs),
(503,-13,o),
(507,-8,o),
(510,0,cs),
(513,9,o),
(515,21,o),
(515,35,cs),
(515,45,o),
(508,57,o),
(496,71,cs),
(471,102,o),
(376,188,o),
(326,229,c),
(412,269,o),
(535,336,o),
(535,425,cs),
(535,477,o),
(504,524,o),
(452,524,cs),
(404,524,o),
(267,431,o),
(171,203,c),
(171,236,o),
(208,683,o),
(208,729,cs),
(208,747,o),
(180,756,o),
(159,756,cs),
(151,756,o),
(150,753,o),
(150,748,cs),
(146,560,o),
(107,18,o),
(107,14,cs),
(107,-4,o),
(128,-13,o),
(147,-13,cs)
);
}
);
width = 559;
},
{
anchors = (
{
name = bottom;
pos = (290,0);
},
{
name = top;
pos = (398,640);
}
);
layerId = "2C50D5C7-CD05-484C-A32A-B9C1F3C11D26";
shapes = (
{
closed = 1;
nodes = (
(154,-13,o),
(157,-10,o),
(157,-5,cs),
(157,36,o),
(165,79,o),
(178,122,cs),
(232,301,o),
(377,480,o),
(447,480,cs),
(470,480,o),
(487,456,o),
(487,436,cs),
(487,363,o),
(365,275,o),
(229,233,c),
(320,171,o),
(463,25,o),
(484,0,cs),
(492,-9,o),
(496,-13,o),
(499,-13,cs),
(503,-13,o),
(507,-8,o),
(510,0,cs),
(513,9,o),
(515,21,o),
(515,35,cs),
(515,45,o),
(508,57,o),
(496,71,cs),
(471,102,o),
(376,188,o),
(326,229,c),
(412,269,o),
(535,336,o),
(535,425,cs),
(535,477,o),
(504,524,o),
(452,524,cs),
(404,524,o),
(267,431,o),
(171,203,c),
(171,236,o),
(208,683,o),
(208,729,cs),
(208,747,o),
(180,756,o),
(159,756,cs),
(151,756,o),
(150,753,o),
(150,748,cs),
(146,560,o),
(107,18,o),
(107,14,cs),
(107,-4,o),
(128,-13,o),
(147,-13,cs)
);
}
);
width = 559;
}
);
note = k;
unicode = 107;
userData = {
KernOnName = k;
};
},
{
color = 1;
glyphname = l;
kernLeft = KO_l;
kernRight = KO_l;
lastChange = "2023-04-03 11:53:59 +0000";
layers = (
{
anchors = (
{
name = center;
pos = (156,378);
},
{
name = top;
pos = (156,756);
},
{
name = topright;
pos = (305,632);
}
);
background = {
shapes = (
{
closed = 1;
nodes = (
(200,-13,o),
(285,88,o),
(318,131,cs),
(320,133,o),
(321,137,o),
(321,141,cs),
(321,154,o),
(311,170,o),
(307,170,cs),
(304,170,o),
(303,167,o),
(300,164,c),
(279,136,o),
(197,41,o),
(178,41,cs),
(166,41,o),
(162,48,o),
(162,89,cs),
(162,202,o),
(204,683,o),
(204,729,cs),
(204,747,o),
(176,756,o),
(155,756,cs),
(147,756,o),
(146,753,o),
(146,748,cs),
(141,471,o),
(109,191,o),
(107,63,cs),
(107,40,o),
(106,26,o),
(109,20,cs),
(114,9,o),
(147,-13,o),
(158,-13,cs)
);
}
);
};
layerId = "220B7CD1-1E4F-4884-BA06-A44A5DCE8B14";
shapes = (
{
closed = 0;
nodes = (
(181,704,l),
(145,490,o),
(122,22,o),
(152,14,cs),
(189,4,o),
(260,74,o),
(299,130,c)
);
}
);
width = 312;
},
{
anchors = (
{
name = center;
pos = (156,378);
},
{
name = top;
pos = (156,756);
},
{
name = topright;
pos = (305,632);
}
);
layerId = "2C50D5C7-CD05-484C-A32A-B9C1F3C11D26";
shapes = (
{
closed = 0;
nodes = (
(181,704,l),
(145,490,o),
(122,22,o),
(152,14,cs),
(189,4,o),
(260,74,o),
(299,130,c)
);
}
);
width = 312;
}
);
note = l;
unicode = 108;
userData = {
KernOnName = l;
};
},
{
color = 1;
glyphname = m;
kernLeft = KO_n;
kernRight = KO_n;
lastChange = "2023-04-03 11:53:59 +0000";
layers = (
{
anchors = (
{
name = bottom;
pos = (459,-5);
},
{
name = top;
pos = (490,524);
}
);
background = {
shapes = (
{
closed = 0;
nodes = (
(989,131,l),
(991,133,o),
(992,137,o),
(992,141,cs),
(992,154,o),
(982,170,o),
(978,170,cs),
(975,170,o),
(974,167,o),
(971,164,c),
(950,136,o),
(868,41,o),
(849,41,cs),
(837,41,o),
(832,48,o),
(833,89,cs),
(835,164,o),
(853,370,o),
(856,448,cs),
(857,471,o),
(855,485,o),
(852,491,cs),
(847,503,o),
(814,524,o),
(803,524,cs),
(743,524,o),
(561,286,o),
(500,141,c),
(500,152,o),
(521,414,o),
(521,448,cs),
(521,471,o),
(520,485,o),
(517,491,cs),
(512,503,o),
(479,524,o),
(468,524,cs),
(408,524,o),
(226,286,o),
(165,141,c),
(165,152,o),
(188,451,o),
(188,497,cs),
(188,515,o),
(161,524,o),
(139,524,cs),
(132,524,o),
(131,521,o),
(131,516,cs),
(131,385,o),
(104,18,o),
(104,14,cs),
(104,-4,o),
(125,-13,o),
(144,-13,cs),
(151,-13,o),
(154,-10,o),
(154,-5,cs),
(154,44,o),
(182,111,o),
(220,178,cs),
(292,307,o),
(430,470,o),
(448,470,cs),
(460,470,o),
(463,463,o),
(463,422,cs),
(463,377,o),
(453,218,o),
(446,112,cs),
(445,94,o),
(439,22,o),
(439,14,cs),
(439,-4,o),
(460,-13,o),
(479,-13,cs),
(486,-13,o),
(489,-10,o),
(489,-5,cs),
(489,44,o),
(517,111,o),
(555,178,cs),
(627,307,o),
(765,470,o),
(783,470,cs),
(795,470,o),
(799,463,o),
(798,422,cs),
(797,351,o),
(778,140,o),
(777,63,cs),
(777,40,o),
(776,26,o),
(779,20,cs),
(784,9,o),
(818,-13,o),
(829,-13,cs),
(871,-13,o),
(956,88,o),
(989,131,c)
);
}
);
};
layerId = "220B7CD1-1E4F-4884-BA06-A44A5DCE8B14";
shapes = (
{
closed = 0;
nodes = (
(157,508,l),
(146,354,o),
(149,92,o),
(125,46,cs),
(101,0,o),
(398,514,o),
(463,505,cs),
(528,496,o),
(468,100,o),
(465,38,c),
(592,297,o),
(747,520,o),
(820,489,cs),
(859,472,o),
(787,127,o),
(808,48,cs),
(832,-43,o),
(945,93,o),
(966,137,c)
);
}
);
width = 983;
},
{
anchors = (
{
name = bottom;
pos = (459,-5);
},
{
name = top;
pos = (490,524);
}
);
layerId = "2C50D5C7-CD05-484C-A32A-B9C1F3C11D26";
shapes = (
{
closed = 0;
nodes = (
(157,508,l),
(146,354,o),
(149,92,o),
(125,46,cs),
(101,0,o),
(398,514,o),
(463,505,cs),
(528,496,o),
(468,100,o),
(465,38,c),
(592,297,o),
(747,520,o),
(820,489,cs),
(859,472,o),
(787,127,o),
(808,48,cs),
(832,-43,o),
(945,93,o),
(966,137,c)
);
}
);
width = 983;
}
);
metricLeft = n;
metricRight = n;
note = m;
unicode = 109;
},
{
color = 1;
glyphname = n;
kernLeft = KO_n;
kernRight = KO_n;
lastChange = "2023-04-03 11:53:59 +0000";
layers = (
{
anchors = (
{
name = bottom;
pos = (299,0);
},
{
name = top;
pos = (327,524);
}
);
background = {
shapes = (
{
closed = 1;
nodes = (
(151,-13,o),
(154,-10,o),
(154,-5,cs),
(154,44,o),
(182,111,o),
(220,178,cs),
(292,307,o),
(430,470,o),
(448,470,cs),
(460,470,o),
(464,463,o),
(463,422,cs),
(462,351,o),
(441,140,o),
(441,63,cs),
(441,40,o),
(441,26,o),
(444,20,cs),
(449,9,o),
(484,-13,o),
(495,-13,cs),
(537,-13,o),
(622,88,o),
(655,131,cs),
(657,133,o),
(658,137,o),
(658,141,cs),
(658,154,o),
(648,170,o),
(644,170,cs),
(641,170,o),
(640,167,o),
(637,164,c),
(616,136,o),
(534,41,o),
(515,41,cs),
(502,41,o),
(498,48,o),
(498,89,cs),
(498,164,o),
(521,370,o),
(521,448,cs),
(521,471,o),
(520,485,o),
(517,491,cs),
(512,503,o),
(479,524,o),
(468,524,cs),
(408,524,o),
(226,286,o),
(165,141,c),
(165,152,o),
(189,451,o),
(189,497,cs),
(189,515,o),
(161,524,o),
(139,524,cs),
(132,524,o),
(131,521,o),
(131,516,cs),
(131,385,o),
(104,18,o),
(104,14,cs),
(104,-4,o),
(125,-13,o),
(144,-13,cs)
);
},
{
closed = 0;
nodes = (
(159,499,l),
(128,27,l),
(150,106,l),
(254,239,o),
(419,520,o),
(461,505,cs),
(503,490,o),
(493,452,o),
(493,427,cs),
(493,402,o),
(455,47,o),
(468,32,cs),
(481,17,o),
(493,4,o),
(512,14,c),
(645,151,l)
);
}
);
};
layerId = "220B7CD1-1E4F-4884-BA06-A44A5DCE8B14";
shapes = (
{
closed = 0;
nodes = (
(159,499,l),
(128,27,l),
(150,86,ls),
(209,244,o),
(416,509,o),
(461,498,cs),
(481,493,o),
(493,452,o),
(493,427,cs),
(493,402,o),
(455,47,o),
(468,32,cs),
(481,17,o),
(492,8,o),
(512,14,cs),
(556,27,o),
(616,104,o),
(645,151,c)
);
}
);
width = 649;
},
{
anchors = (
{
name = bottom;
pos = (299,0);
},
{
name = top;
pos = (327,524);
}
);
layerId = "2C50D5C7-CD05-484C-A32A-B9C1F3C11D26";
shapes = (
{
closed = 0;
nodes = (
(159,499,l),
(128,27,l),
(150,86,ls),
(209,244,o),
(416,509,o),
(461,498,cs),
(481,493,o),
(493,452,o),
(493,427,cs),
(493,402,o),
(455,47,o),
(468,32,cs),
(481,17,o),
(492,8,o),
(512,14,cs),
(556,27,o),
(616,104,o),
(645,151,c)
);
}
);
width = 649;
}
);
note = n;
unicode = 110;
userData = {
KernOnName = n;
};
},
{
color = 1;
glyphname = o;
kernLeft = KO_o;
kernRight = KO_o;
lastChange = "2023-04-03 11:53:59 +0000";
layers = (
{
anchors = (
{
name = bottom;
pos = (274,0);
},
{
name = center;
pos = (284,262);
},
{
name = ogonek;
pos = (380,22);
},
{
name = top;
pos = (311,524);
},
{
name = topright;
pos = (422,479);
}
);
background = {
shapes = (
{
closed = 1;
nodes = (
(392,-13,o),
(502,60,o),
(502,292,cs),
(502,471,o),
(417,524,o),
(303,524,cs),
(176,524,o),
(66,451,o),
(66,219,cs),
(66,40,o),
(150,-13,o),
(265,-13,cs)
);
},
{
closed = 1;
nodes = (
(169,22,o),
(126,86,o),
(126,224,cs),
(126,395,o),
(187,489,o),
(296,489,cs),
(397,489,o),
(440,426,o),
(440,287,cs),
(440,116,o),
(380,22,o),
(270,22,cs)
);
}
);
};
layerId = "220B7CD1-1E4F-4884-BA06-A44A5DCE8B14";
shapes = (
{
closed = 0;
nodes = (
(297,505,l),
(182,505,o),
(83,437,o),
(83,221,cs),
(83,55,o),
(159,6,o),
(262,6,cs),
(377,6,o),
(476,74,o),
(476,290,cs),
(476,442,o),
(391,497,o),
(302,505,c)
);
}
);
width = 558;
},
{
anchors = (
{
name = bottom;
pos = (274,0);
},
{
name = center;
pos = (284,262);
},
{
name = ogonek;
pos = (380,22);
},
{
name = top;
pos = (311,524);
},
{
name = topright;
pos = (422,479);
}
);
layerId = "2C50D5C7-CD05-484C-A32A-B9C1F3C11D26";
shapes = (
{
closed = 0;
nodes = (
(297,505,l),
(182,505,o),
(83,437,o),
(83,221,cs),
(83,55,o),
(159,6,o),
(262,6,cs),
(377,6,o),
(476,74,o),
(476,290,cs),
(476,442,o),
(391,497,o),
(302,505,c)
);
}
);
width = 558;
}
);
note = o;
unicode = 111;
userData = {
KernOnName = o;
};
},
{
color = 1;
glyphname = p;
kernLeft = KO_p;
kernRight = KO_b;
lastChange = "2023-04-03 11:53:59 +0000";
layers = (
{
anchors = (
{
name = bottom;
pos = (301,0);
},
{
name = top;
pos = (311,514);
}
);
layerId = "220B7CD1-1E4F-4884-BA06-A44A5DCE8B14";
shapes = (
{
closed = 1;
nodes = (
(149,-244,o),
(150,-242,o),
(150,-237,cs),
(151,-169,o),
(152,-120,o),
(159,5,c),
(222,-5,o),
(287,-13,o),
(307,-13,cs),
(374,-13,o),
(434,28,o),
(480,94,cs),
(512,140,o),
(519,245,o),
(519,333,cs),
(519,438,o),
(516,481,o),
(510,491,cs),
(504,503,o),
(470,524,o),
(458,524,cs),
(395,524,o),
(234,311,o),
(169,166,c),
(175,242,o),
(191,458,o),
(191,497,cs),
(191,515,o),
(164,524,o),
(142,524,cs),
(135,524,o),
(134,521,o),
(134,516,cs),
(134,416,o),
(117,164,o),
(110,52,c),
(105,52,o),
(98,39,o),
(98,21,cs),
(98,16,o),
(101,15,o),
(102,15,cs),
(110,14,l),
(101,-128,o),
(94,-196,o),
(94,-218,cs),
(94,-236,o),
(122,-244,o),
(141,-244,cs)
);
},
{
closed = 1;
nodes = (
(305,30,o),
(248,35,o),
(164,52,c),
(199,193,o),
(409,470,o),
(442,470,cs),
(462,470,o),
(463,438,o),
(463,341,cs),
(463,142,o),
(417,30,o),
(343,30,cs)
);
}
);
width = 582;
},
{
anchors = (
{
name = bottom;
pos = (301,0);
},
{
name = top;
pos = (311,514);
}
);
layerId = "2C50D5C7-CD05-484C-A32A-B9C1F3C11D26";
shapes = (
{
closed = 1;
nodes = (
(149,-244,o),
(150,-242,o),
(150,-237,cs),
(151,-169,o),
(152,-120,o),
(159,5,c),
(222,-5,o),
(287,-13,o),
(307,-13,cs),
(374,-13,o),
(434,28,o),
(480,94,cs),
(512,140,o),
(519,245,o),
(519,333,cs),
(519,438,o),
(516,481,o),
(510,491,cs),
(504,503,o),
(470,524,o),
(458,524,cs),
(395,524,o),
(234,311,o),
(169,166,c),
(175,242,o),
(191,458,o),
(191,497,cs),
(191,515,o),
(164,524,o),
(142,524,cs),
(135,524,o),
(134,521,o),
(134,516,cs),
(134,416,o),
(117,164,o),
(110,52,c),
(105,52,o),
(98,39,o),
(98,21,cs),
(98,16,o),
(101,15,o),
(102,15,cs),
(110,14,l),
(101,-128,o),
(94,-196,o),
(94,-218,cs),
(94,-236,o),
(122,-244,o),
(141,-244,cs)
);
},
{
closed = 1;
nodes = (
(305,30,o),
(248,35,o),
(164,52,c),
(199,193,o),
(409,470,o),
(442,470,cs),
(462,470,o),
(463,438,o),
(463,341,cs),
(463,142,o),
(417,30,o),
(343,30,cs)
);
}
);
width = 582;
}
);
metricRight = b;
note = p;
unicode = 112;
userData = {
KernOnName = p;
};
},
{
color = 1;
glyphname = q;
kernLeft = KO_a;
kernRight = KO_q;
lastChange = "2023-04-03 11:53:59 +0000";
layers = (
{
layerId = "220B7CD1-1E4F-4884-BA06-A44A5DCE8B14";
shapes = (
{
closed = 1;
nodes = (
(477,-244,o),
(479,-242,o),
(479,-237,cs),
(480,-35,o),
(504,438,o),
(511,460,c),
(516,460,o),
(523,472,o),
(523,490,cs),
(523,495,o),
(520,496,o),
(519,496,cs),
(442,513,o),
(338,524,o),
(320,524,cs),
(253,524,o),
(191,484,o),
(142,417,cs),
(91,348,o),
(88,141,o),
(88,63,cs),
(88,40,o),
(89,26,o),
(92,20,cs),
(97,9,o),
(131,-13,o),
(142,-13,cs),
(205,-13,o),
(379,210,o),
(451,355,c),
(448,241,o),
(421,-136,o),
(421,-219,cs),
(421,-237,o),
(448,-244,o),
(470,-244,cs)
);
},
{
closed = 1;
nodes = (
(149,42,o),
(145,48,o),
(145,89,cs),
(145,339,o),
(199,481,o),
(282,481,cs),
(320,481,o),
(377,476,o),
(460,460,c),
(418,319,o),
(194,42,o),
(161,42,cs)
);
}
);
width = 605;
},
{
layerId = "2C50D5C7-CD05-484C-A32A-B9C1F3C11D26";
shapes = (
{
closed = 1;
nodes = (
(477,-244,o),
(479,-242,o),
(479,-237,cs),
(480,-35,o),
(504,438,o),
(511,460,c),
(516,460,o),
(523,472,o),
(523,490,cs),
(523,495,o),
(520,496,o),
(519,496,cs),
(442,513,o),
(338,524,o),
(320,524,cs),
(253,524,o),
(191,484,o),
(142,417,cs),
(91,348,o),
(88,141,o),
(88,63,cs),
(88,40,o),
(89,26,o),
(92,20,cs),
(97,9,o),
(131,-13,o),
(142,-13,cs),
(205,-13,o),
(379,210,o),
(451,355,c),
(448,241,o),
(421,-136,o),
(421,-219,cs),
(421,-237,o),
(448,-244,o),
(470,-244,cs)
);
},
{
closed = 1;
nodes = (
(149,42,o),
(145,48,o),
(145,89,cs),
(145,339,o),
(199,481,o),
(282,481,cs),
(320,481,o),
(377,476,o),
(460,460,c),
(418,319,o),
(194,42,o),
(161,42,cs)
);
}
);
width = 605;
}
);
metricLeft = a;
note = q;
unicode = 113;
},
{
color = 1;
glyphname = r;
kernLeft = KO_n;
kernRight = KO_r;
lastChange = "2023-04-03 11:53:59 +0000";
layers = (
{
anchors = (
{
name = bottom;
pos = (134,0);
},
{
name = top;
pos = (234,524);
}
);
background = {
shapes = (
{
closed = 1;
nodes = (
(147,-13,o),
(151,-10,o),
(151,-5,cs),
(151,53,o),
(160,116,o),
(178,178,cs),
(218,314,o),
(311,465,o),
(376,465,cs),
(400,465,o),
(398,472,o),
(398,487,cs),
(398,506,o),
(377,524,o),
(357,524,cs),
(319,524,o),
(241,457,o),
(171,249,c),
(171,261,o),
(189,451,o),
(189,497,cs),
(189,515,o),
(161,524,o),
(139,524,cs),
(132,524,o),
(131,521,o),
(131,516,cs),
(131,385,o),
(104,19,o),
(104,14,cs),
(104,-4,o),
(124,-13,o),
(142,-13,cs)
);
}
);
};
layerId = "220B7CD1-1E4F-4884-BA06-A44A5DCE8B14";
shapes = (
{
closed = 0;
nodes = (
(157,501,l),
(131,22,l)
);
},
{
closed = 0;
nodes = (
(137,76,l),
(168,272,o),
(288,505,o),
(371,497,c)
);
}
);
width = 371;
},
{
anchors = (
{
name = bottom;
pos = (134,0);
},
{
name = top;
pos = (234,524);
}
);
layerId = "2C50D5C7-CD05-484C-A32A-B9C1F3C11D26";
shapes = (
{
closed = 0;
nodes = (
(157,501,l),
(131,22,l)
);
},
{
closed = 0;
nodes = (
(137,76,l),
(168,272,o),
(288,505,o),
(371,497,c)
);
}
);
width = 371;
}
);
metricLeft = n;
note = r;
unicode = 114;
userData = {
KernOnName = r;
};
},
{
color = 1;
glyphname = s;
kernLeft = KO_s;
kernRight = KO_s;
lastChange = "2023-04-03 11:53:59 +0000";
layers = (
{
anchors = (
{
name = bottom;
pos = (199,0);
},
{
name = top;
pos = (243,524);
}
);
layerId = "220B7CD1-1E4F-4884-BA06-A44A5DCE8B14";
shapes = (
{
closed = 1;
nodes = (
(262,-13,o),
(349,47,o),
(349,139,cs),
(349,199,o),
(321,233,o),
(255,273,cs),
(167,327,o),
(136,355,o),
(136,407,cs),
(136,466,o),
(180,487,o),
(209,487,cs),
(289,487,o),
(331,422,o),
(335,422,cs),
(344,422,o),
(354,441,o),
(354,463,cs),
(354,467,o),
(352,471,o),
(351,472,cs),
(318,508,o),
(271,524,o),
(228,524,cs),
(118,524,o),
(84,441,o),
(84,393,cs),
(84,321,o),
(119,283,o),
(196,236,cs),
(257,199,o),
(300,170,o),
(300,112,cs),
(300,50,o),
(242,26,o),
(201,26,cs),
(112,26,o),
(72,94,o),
(63,94,cs),
(54,94,o),
(48,67,o),
(48,53,cs),
(48,49,o),
(50,43,o),
(53,40,cs),
(93,1,o),
(143,-13,o),
(182,-13,cs)
);
}
);
width = 405;
},
{
anchors = (
{
name = bottom;
pos = (199,0);
},
{
name = top;
pos = (243,524);
}
);
layerId = "2C50D5C7-CD05-484C-A32A-B9C1F3C11D26";
shapes = (
{
closed = 1;
nodes = (
(262,-13,o),
(349,47,o),
(349,139,cs),
(349,199,o),
(321,233,o),
(255,273,cs),
(167,327,o),
(136,355,o),
(136,407,cs),
(136,466,o),
(180,487,o),
(209,487,cs),
(289,487,o),
(331,422,o),
(335,422,cs),
(344,422,o),
(354,441,o),
(354,463,cs),
(354,467,o),
(352,471,o),
(351,472,cs),
(318,508,o),
(271,524,o),
(228,524,cs),
(118,524,o),
(84,441,o),
(84,393,cs),
(84,321,o),
(119,283,o),
(196,236,cs),
(257,199,o),
(300,170,o),
(300,112,cs),
(300,50,o),
(242,26,o),
(201,26,cs),
(112,26,o),
(72,94,o),
(63,94,cs),
(54,94,o),
(48,67,o),
(48,53,cs),
(48,49,o),
(50,43,o),
(53,40,cs),
(93,1,o),
(143,-13,o),
(182,-13,cs)
);
}
);
width = 405;
}
);
note = s;
unicode = 115;
userData = {
KernOnName = s;
};
},
{
color = 1;
glyphname = t;
kernLeft = KO_t;
kernRight = KO_t;
lastChange = "2023-04-03 11:53:59 +0000";
layers = (
{
anchors = (
{
name = bottom;
pos = (199,0);
},
{
name = center;
pos = (170,262);
},
{
name = top;
pos = (180,636);
},
{
name = topright;
pos = (329,524);
}
);
background = {
shapes = (
{
closed = 1;
nodes = (
(218,-13,o),
(282,0,o),
(344,62,cs),
(348,66,o),
(349,71,o),
(349,77,cs),
(349,89,o),
(345,101,o),
(339,101,cs),
(335,101,o),
(333,101,o),
(317,86,cs),
(281,52,o),
(233,34,o),
(209,34,cs),
(178,34,o),
(164,54,o),
(164,156,cs),
(164,283,o),
(183,441,o),
(183,453,c),
(350,453,ls),
(367,453,o),
(373,474,o),
(373,491,cs),
(373,497,o),
(370,499,o),
(365,499,cs),
(185,499,l),
(190,542,o),
(199,616,o),
(199,625,cs),
(199,642,o),
(170,651,o),
(149,651,cs),
(141,651,o),
(140,649,o),
(140,644,cs),
(140,636,o),
(131,530,o),
(129,499,c),
(69,499,ls),
(53,499,o),
(47,478,o),
(47,461,cs),
(47,454,o),
(49,453,o),
(54,453,cs),
(127,453,l),
(127,443,o),
(108,271,o),
(108,137,cs),
(108,21,o),
(127,-13,o),
(180,-13,cs)
);
}
);
};
layerId = "220B7CD1-1E4F-4884-BA06-A44A5DCE8B14";
shapes = (
{
closed = 0;
nodes = (
(65,478,l),
(162,479,o),
(259,481,o),
(356,482,c)
);
},
{
closed = 0;
nodes = (
(158,637,l),
(158,631,o),
(158,626,o),
(157,620,cs),
(148,426,o),
(116,106,o),
(135,60,cs),
(155,13,o),
(192,6,o),
(221,12,cs),
(250,18,o),
(297,51,o),
(325,78,cs)
);
},
{
closed = 0;
nodes = (
(290,484,l),
(356,484,l)
);
}
);
width = 359;
},
{
anchors = (
{
name = bottom;
pos = (199,0);
},
{
name = center;
pos = (170,262);
},
{
name = top;
pos = (180,636);
},
{
name = topright;
pos = (329,524);
}
);
layerId = "2C50D5C7-CD05-484C-A32A-B9C1F3C11D26";
shapes = (
{
closed = 0;
nodes = (
(65,478,l),
(162,479,o),
(259,481,o),
(356,482,c)
);
},
{
closed = 0;
nodes = (
(158,637,l),
(158,631,o),
(158,626,o),
(157,620,cs),
(148,426,o),
(116,106,o),
(135,60,cs),
(155,13,o),
(192,6,o),
(221,12,cs),
(250,18,o),
(297,51,o),
(325,78,cs)
);
},
{
closed = 0;
nodes = (
(290,484,l),
(356,484,l)
);
}
);
width = 359;
}
);
note = t;
unicode = 116;
userData = {
KernOnName = t;
};
},
{
color = 1;
glyphname = u;
kernLeft = KO_u;
kernRight = KO_u;
lastChange = "2023-04-03 11:53:59 +0000";
layers = (
{
anchors = (
{
name = bottom;
pos = (299,0);
},
{
name = ogonek;
pos = (526,10);
},
{
name = top;
pos = (324,524);
},
{
name = topright;
pos = (510,479);
}
);
background = {
shapes = (
{
closed = 1;
nodes = (
(208,-13,o),
(382,210,o),
(453,355,c),
(447,262,o),
(441,121,o),
(441,63,cs),
(441,40,o),
(440,26,o),
(443,20,cs),
(448,9,o),
(481,-13,o),
(494,-13,cs),
(536,-13,o),
(621,88,o),
(654,131,cs),
(656,133,o),
(657,137,o),
(657,141,cs),
(657,154,o),
(647,170,o),
(643,170,cs),
(640,170,o),
(639,167,o),
(636,164,c),
(615,136,o),
(533,41,o),
(514,41,cs),
(501,41,o),
(498,48,o),
(498,89,cs),
(498,237,o),
(518,489,o),
(518,497,cs),
(518,515,o),
(494,524,o),
(475,524,cs),
(467,524,o),
(465,521,o),
(465,515,cs),
(465,465,o),
(436,394,o),
(402,333,cs),
(320,188,o),
(187,41,o),
(164,41,cs),
(151,41,o),
(148,48,o),
(148,89,cs),
(148,180,o),
(185,359,o),
(189,497,cs),
(190,515,o),
(163,524,o),
(141,524,cs),
(134,524,o),
(132,521,o),
(132,516,cs),
(122,316,o),
(91,123,o),
(91,63,cs),
(91,40,o),
(91,26,o),
(94,20,cs),
(100,9,o),
(134,-13,o),
(145,-13,cs)
);
}
);
};
layerId = "220B7CD1-1E4F-4884-BA06-A44A5DCE8B14";
shapes = (
{
closed = 0;
nodes = (
(158,499,l),
(148,348,o),
(92,62,o),
(128,27,cs),
(164,-8,o),
(193,34,o),
(245,90,cs),
(369,223,o),
(453,374,o),
(489,478,c),
(475,367,o),
(425,-33,o),
(523,22,cs),
(565,45,o),
(601,92,o),
(624,131,c)
);
}
);
width = 648;
},
{
anchors = (
{
name = bottom;
pos = (299,0);
},
{
name = ogonek;
pos = (526,10);
},
{
name = top;
pos = (324,524);
},
{
name = topright;
pos = (510,479);
}
);
layerId = "2C50D5C7-CD05-484C-A32A-B9C1F3C11D26";
shapes = (
{
closed = 0;
nodes = (
(158,499,l),
(148,348,o),
(92,62,o),
(128,27,cs),
(164,-8,o),
(193,34,o),
(245,90,cs),
(369,223,o),
(453,374,o),
(489,478,c),
(475,367,o),
(425,-33,o),
(523,22,cs),
(565,45,o),
(601,92,o),
(624,131,c)
);
}
);
width = 648;
}
);
metricRight = a;
note = u;
unicode = 117;
userData = {
KernOnName = u;
};
},
{
color = 1;
glyphname = v;
kernLeft = KO_v;
kernRight = KO_v;
lastChange = "2023-04-03 11:53:59 +0000";
layers = (
{
anchors = (
{
name = bottom;
pos = (203,0);
},
{
name = top;
pos = (253,524);
}
);
layerId = "220B7CD1-1E4F-4884-BA06-A44A5DCE8B14";
shapes = (
{
closed = 1;
nodes = (
(222,-13,o),
(225,-10,o),
(228,-4,cs),
(339,184,o),
(435,398,o),
(435,497,cs),
(435,503,o),
(432,507,o),
(429,511,cs),
(422,519,o),
(405,524,o),
(391,524,cs),
(385,524,o),
(383,521,o),
(383,516,cs),
(383,486,o),
(378,451,o),
(370,414,cs),
(343,295,o),
(274,151,o),
(218,49,c),
(216,60,o),
(214,77,o),
(210,97,cs),
(188,213,o),
(138,441,o),
(121,485,cs),
(109,516,o),
(101,524,o),
(60,524,cs),
(47,524,o),
(45,521,o),
(45,515,cs),
(45,499,o),
(101,416,o),
(167,13,cs),
(170,-6,o),
(200,-13,o),
(216,-13,cs)
);
}
);
width = 455;
},
{
anchors = (
{
name = bottom;
pos = (203,0);
},
{
name = top;
pos = (253,524);
}
);
layerId = "2C50D5C7-CD05-484C-A32A-B9C1F3C11D26";
shapes = (
{
closed = 1;
nodes = (
(222,-13,o),
(225,-10,o),
(228,-4,cs),
(339,184,o),
(435,398,o),
(435,497,cs),
(435,503,o),
(432,507,o),
(429,511,cs),
(422,519,o),
(405,524,o),
(391,524,cs),
(385,524,o),
(383,521,o),
(383,516,cs),
(383,486,o),
(378,451,o),
(370,414,cs),
(343,295,o),
(274,151,o),
(218,49,c),
(216,60,o),
(214,77,o),
(210,97,cs),
(188,213,o),
(138,441,o),
(121,485,cs),
(109,516,o),
(101,524,o),
(60,524,cs),
(47,524,o),
(45,521,o),
(45,515,cs),
(45,499,o),
(101,416,o),
(167,13,cs),
(170,-6,o),
(200,-13,o),
(216,-13,cs)
);
}
);
width = 455;
}
);
note = v;
unicode = 118;
userData = {
KernOnName = v;
};
},
{
color = 1;
glyphname = w;
kernLeft = KO_w;
kernRight = KO_w;
lastChange = "2023-04-03 11:53:59 +0000";
layers = (
{
anchors = (
{
name = bottom;
pos = (371,0);
},
{
name = top;
pos = (415,524);
}
);
layerId = "220B7CD1-1E4F-4884-BA06-A44A5DCE8B14";
shapes = (
{
closed = 1;
nodes = (
(176,-13,o),
(178,-10,o),
(182,-4,cs),
(275,136,o),
(376,329,o),
(409,440,c),
(437,370,o),
(483,238,o),
(540,13,cs),
(545,-6,o),
(575,-13,o),
(592,-13,cs),
(598,-13,o),
(600,-10,o),
(603,-4,cs),
(699,184,o),
(768,373,o),
(768,497,cs),
(768,503,o),
(767,506,o),
(763,510,cs),
(754,519,o),
(736,524,o),
(721,524,cs),
(715,524,o),
(715,521,o),
(715,516,cs),
(715,490,o),
(716,441,o),
(699,365,cs),
(682,290,o),
(651,186,o),
(588,53,c),
(584,67,o),
(580,86,o),
(573,110,cs),
(539,227,o),
(474,442,o),
(456,485,cs),
(450,499,o),
(444,508,o),
(438,514,cs),
(430,521,o),
(418,524,o),
(395,524,cs),
(384,524,o),
(381,523,o),
(380,516,cs),
(375,474,o),
(356,417,o),
(330,354,cs),
(288,252,o),
(228,137,o),
(176,54,c),
(175,71,o),
(172,96,o),
(168,125,cs),
(152,244,o),
(122,443,o),
(112,485,cs),
(104,518,o),
(98,524,o),
(56,524,cs),
(44,524,o),
(40,521,o),
(40,515,cs),
(40,499,o),
(85,383,o),
(124,13,cs),
(126,-6,o),
(153,-13,o),
(170,-13,cs)
);
}
);
width = 781;
},
{
anchors = (
{
name = bottom;
pos = (371,0);
},
{
name = top;
pos = (415,524);
}
);
layerId = "2C50D5C7-CD05-484C-A32A-B9C1F3C11D26";
shapes = (
{
closed = 1;
nodes = (
(176,-13,o),
(178,-10,o),
(182,-4,cs),
(275,136,o),
(376,329,o),
(409,440,c),
(437,370,o),
(483,238,o),
(540,13,cs),
(545,-6,o),
(575,-13,o),
(592,-13,cs),
(598,-13,o),
(600,-10,o),
(603,-4,cs),
(699,184,o),
(768,373,o),
(768,497,cs),
(768,503,o),
(767,506,o),
(763,510,cs),
(754,519,o),
(736,524,o),
(721,524,cs),
(715,524,o),
(715,521,o),
(715,516,cs),
(715,490,o),
(716,441,o),
(699,365,cs),
(682,290,o),
(651,186,o),
(588,53,c),
(584,67,o),
(580,86,o),
(573,110,cs),
(539,227,o),
(474,442,o),
(456,485,cs),
(450,499,o),
(444,508,o),
(438,514,cs),
(430,521,o),
(418,524,o),
(395,524,cs),
(384,524,o),
(381,523,o),
(380,516,cs),
(375,474,o),
(356,417,o),
(330,354,cs),
(288,252,o),
(228,137,o),
(176,54,c),
(175,71,o),
(172,96,o),
(168,125,cs),
(152,244,o),
(122,443,o),
(112,485,cs),
(104,518,o),
(98,524,o),
(56,524,cs),
(44,524,o),
(40,521,o),
(40,515,cs),
(40,499,o),
(85,383,o),
(124,13,cs),
(126,-6,o),
(153,-13,o),
(170,-13,cs)
);
}
);
width = 781;
}
);
note = w;
unicode = 119;
},
{
color = 1;
glyphname = x;
kernLeft = KO_x;
kernRight = KO_x;
lastChange = "2023-04-03 11:53:59 +0000";
layers = (
{
anchors = (
{
name = bottom;
pos = (201,0);
},
{
name = top;
pos = (241,524);
}
);
layerId = "220B7CD1-1E4F-4884-BA06-A44A5DCE8B14";
shapes = (
{
closed = 1;
nodes = (
(40,-13,o),
(65,37,o),
(212,224,c),
(237,185,o),
(348,23,o),
(370,-6,cs),
(374,-11,o),
(375,-13,o),
(380,-13,cs),
(383,-13,o),
(389,-7,o),
(391,-3,cs),
(397,6,o),
(405,23,o),
(405,42,cs),
(405,52,o),
(401,58,o),
(397,63,cs),
(368,98,o),
(290,208,o),
(254,264,c),
(315,341,o),
(385,419,o),
(411,459,cs),
(417,469,o),
(421,476,o),
(421,481,cs),
(421,501,o),
(410,524,o),
(402,524,cs),
(397,524,o),
(362,460,o),
(230,292,c),
(140,428,o),
(113,497,o),
(101,519,cs),
(99,522,o),
(96,524,o),
(92,524,cs),
(87,524,o),
(82,521,o),
(76,516,cs),
(60,502,o),
(57,492,o),
(57,482,cs),
(57,476,o),
(60,467,o),
(67,453,cs),
(91,404,o),
(153,312,o),
(187,253,c),
(124,173,o),
(31,65,o),
(21,49,cs),
(17,43,o),
(16,37,o),
(16,30,cs),
(16,10,o),
(26,-13,o),
(35,-13,cs)
);
}
);
width = 430;
},
{
anchors = (
{
name = bottom;
pos = (201,0);
},
{
name = top;
pos = (241,524);
}
);
layerId = "2C50D5C7-CD05-484C-A32A-B9C1F3C11D26";
shapes = (
{
closed = 1;
nodes = (
(40,-13,o),
(65,37,o),
(212,224,c),
(237,185,o),
(348,23,o),
(370,-6,cs),
(374,-11,o),
(375,-13,o),
(380,-13,cs),
(383,-13,o),
(389,-7,o),
(391,-3,cs),
(397,6,o),
(405,23,o),
(405,42,cs),
(405,52,o),
(401,58,o),
(397,63,cs),
(368,98,o),
(290,208,o),
(254,264,c),
(315,341,o),
(385,419,o),
(411,459,cs),
(417,469,o),
(421,476,o),
(421,481,cs),
(421,501,o),
(410,524,o),
(402,524,cs),
(397,524,o),
(362,460,o),
(230,292,c),
(140,428,o),
(113,497,o),
(101,519,cs),
(99,522,o),
(96,524,o),
(92,524,cs),
(87,524,o),
(82,521,o),
(76,516,cs),
(60,502,o),
(57,492,o),
(57,482,cs),
(57,476,o),
(60,467,o),
(67,453,cs),
(91,404,o),
(153,312,o),
(187,253,c),
(124,173,o),
(31,65,o),
(21,49,cs),
(17,43,o),
(16,37,o),
(16,30,cs),
(16,10,o),
(26,-13,o),
(35,-13,cs)
);
}
);
width = 430;
}
);
note = x;
unicode = 120;
userData = {
KernOnName = x;
};
},
{
color = 1;
glyphname = y;
kernLeft = KO_y;
kernRight = KO_y;
lastChange = "2023-04-03 11:53:59 +0000";
layers = (
{
anchors = (
{
name = bottom;
pos = (590,20);
},
{
name = top;
pos = (316,524);
}
);
background = {
shapes = (
{
closed = 1;
nodes = (
(388,-244,o),
(501,-179,o),
(501,-28,cs),
(501,320,o),
(519,489,o),
(519,497,cs),
(519,515,o),
(495,524,o),
(476,524,cs),
(468,524,o),
(466,521,o),
(466,515,cs),
(466,465,o),
(437,394,o),
(403,333,cs),
(321,188,o),
(188,41,o),
(165,41,cs),
(152,41,o),
(148,48,o),
(148,89,cs),
(148,180,o),
(186,359,o),
(190,497,cs),
(191,515,o),
(164,524,o),
(142,524,cs),
(135,524,o),
(133,521,o),
(133,516,cs),
(123,316,o),
(92,123,o),
(92,63,cs),
(92,40,o),
(92,26,o),
(95,20,cs),
(101,9,o),
(135,-13,o),
(146,-13,cs),
(209,-13,o),
(383,210,o),
(454,355,c),
(447,254,o),
(446,89,o),
(446,45,cs),
(446,-164,o),
(412,-193,o),
(331,-193,cs),
(214,-193,o),
(96,-128,o),
(89,-128,cs),
(84,-128,o),
(81,-135,o),
(81,-149,cs),
(81,-159,o),
(85,-171,o),
(91,-174,cs),
(135,-197,o),
(233,-244,o),
(322,-244,cs)
);
}
);
};
layerId = "220B7CD1-1E4F-4884-BA06-A44A5DCE8B14";
shapes = (
{
closed = 0;
nodes = (
(157,500,l),
(157,344,o),
(77,21,o),
(152,21,cs),
(227,21,o),
(450,318,o),
(497,488,c),
(469,254,o),
(497,44,o),
(469,-92,cs),
(450,-183,o),
(404,-211,o),
(341,-216,cs),
(278,-221,o),
(109,-164,o),
(102,-152,cs)
);
}
);
width = 608;
},
{
anchors = (
{
name = bottom;
pos = (590,20);
},
{
name = top;
pos = (316,524);
}
);
layerId = "2C50D5C7-CD05-484C-A32A-B9C1F3C11D26";
shapes = (
{
closed = 0;
nodes = (
(157,500,l),
(157,344,o),
(77,21,o),
(152,21,cs),
(227,21,o),
(450,318,o),
(497,488,c),
(469,254,o),
(497,44,o),
(469,-92,cs),
(450,-183,o),
(404,-211,o),
(341,-216,cs),
(278,-221,o),
(109,-164,o),
(102,-152,cs)
);
}
);
width = 608;
}
);
note = y;
unicode = 121;
},
{
color = 4;
glyphname = z;
kernLeft = KO_z;
kernRight = KO_z;
lastChange = "2023-04-03 11:53:59 +0000";
layers = (
{
anchors = (
{
name = bottom;
pos = (239,0);
},
{
name = center;
pos = (249,262);
},
{
name = top;
pos = (259,524);
}
);
layerId = "220B7CD1-1E4F-4884-BA06-A44A5DCE8B14";
shapes = (
{
closed = 1;
nodes = (
(382,0,ls),
(398,0,o),
(405,26,o),
(405,49,cs),
(405,57,o),
(402,59,o),
(397,59,cs),
(392,59,o),
(346,38,o),
(158,38,cs),
(143,38,o),
(126,38,o),
(108,38,c),
(119,53,o),
(129,67,o),
(141,83,cs),
(216,186,o),
(342,356,o),
(391,429,cs),
(401,444,o),
(408,455,o),
(408,460,cs),
(408,485,o),
(397,511,o),
(392,511,cs),
(110,511,ls),
(99,511,o),
(92,488,o),
(92,464,cs),
(92,455,o),
(95,454,o),
(100,454,cs),
(109,454,o),
(125,471,o),
(306,471,cs),
(320,471,o),
(336,471,o),
(353,471,c),
(349,462,o),
(339,444,o),
(322,419,cs),
(264,334,o),
(137,163,o),
(69,69,cs),
(61,58,o),
(48,42,o),
(48,39,cs),
(48,20,o),
(57,0,o),
(62,0,cs)
);
}
);
width = 446;
},
{
anchors = (
{
name = bottom;
pos = (239,0);
},
{
name = center;
pos = (249,262);
},
{
name = top;
pos = (259,524);
}
);
layerId = "2C50D5C7-CD05-484C-A32A-B9C1F3C11D26";
shapes = (
{
closed = 1;
nodes = (
(382,0,ls),
(398,0,o),
(405,26,o),
(405,49,cs),
(405,57,o),
(402,59,o),
(397,59,cs),
(392,59,o),
(346,38,o),
(158,38,cs),
(143,38,o),
(126,38,o),
(108,38,c),
(119,53,o),
(129,67,o),
(141,83,cs),
(216,186,o),
(342,356,o),
(391,429,cs),
(401,444,o),
(408,455,o),
(408,460,cs),
(408,485,o),
(397,511,o),
(392,511,cs),
(110,511,ls),
(99,511,o),
(92,488,o),
(92,464,cs),
(92,455,o),
(95,454,o),
(100,454,cs),
(109,454,o),
(125,471,o),
(306,471,cs),
(320,471,o),
(336,471,o),
(353,471,c),
(349,462,o),
(339,444,o),
(322,419,cs),
(264,334,o),
(137,163,o),
(69,69,cs),
(61,58,o),
(48,42,o),
(48,39,cs),
(48,20,o),
(57,0,o),
(62,0,cs)
);
}
);
width = 446;
}
);
note = z;
unicode = 122;
userData = {
KernOnName = z;
};
},
{
color = 1;
glyphname = a.a;
lastChange = "2023-04-03 11:53:59 +0000";
layers = (
{
background = {
shapes = (
{
closed = 1;
nodes = (
(-22,85,o),
(80,214,o),
(140,328,cs),
(152,351,o),
(132,394,o),
(127,372,cs),
(112,319,o),
(-2,162,o),
(-102,64,cs),
(-110,56,o),
(-82,35,o),
(-73,43,cs)
);
}
);
};
layerId = "220B7CD1-1E4F-4884-BA06-A44A5DCE8B14";
shapes = (
{
closed = 0;
nodes = (
(-4,152,l),
(31,203,o),
(125,284,o),
(152,405,c)
);
}
);
width = 0;
},
{
layerId = "2C50D5C7-CD05-484C-A32A-B9C1F3C11D26";
shapes = (
{
closed = 0;
nodes = (
(-4,152,l),
(31,203,o),
(125,284,o),
(152,405,c)
);
}
);
width = 0;
}
);
note = a.a;
},
{
color = 1;
glyphname = b.a;
lastChange = "2023-04-03 11:53:59 +0000";
layers = (
{
layerId = "220B7CD1-1E4F-4884-BA06-A44A5DCE8B14";
shapes = (
{
closed = 1;
nodes = (
(-121,-13,o),
(50,71,o),
(155,303,cs),
(173,343,o),
(164,385,o),
(146,353,cs),
(85,242,o),
(6,80,o),
(-201,36,cs),
(-232,30,o),
(-321,-13,o),
(-288,-13,cs)
);
}
);
width = 30;
},
{
layerId = "2C50D5C7-CD05-484C-A32A-B9C1F3C11D26";
shapes = (
{
closed = 1;
nodes = (
(-121,-13,o),
(50,71,o),
(155,303,cs),
(173,343,o),
(164,385,o),
(146,353,cs),
(85,242,o),
(6,80,o),
(-201,36,cs),
(-232,30,o),
(-321,-13,o),
(-288,-13,cs)
);
}
);
width = 30;
}
);
note = b.a;
},
{
color = 1;
glyphname = c.a;
lastChange = "2023-04-03 11:53:59 +0000";
layers = (
{
layerId = "220B7CD1-1E4F-4884-BA06-A44A5DCE8B14";
shapes = (
{
closed = 1;
nodes = (
(5,101,o),
(174,289,o),
(188,346,cs),
(196,380,o),
(179,407,o),
(176,391,cs),
(168,348,o),
(-4,141,o),
(-58,91,cs),
(-69,81,o),
(-52,47,o),
(-42,57,cs)
);
}
);
width = 43;
},
{
layerId = "2C50D5C7-CD05-484C-A32A-B9C1F3C11D26";
shapes = (
{
closed = 1;
nodes = (
(5,101,o),
(174,289,o),
(188,346,cs),
(196,380,o),
(179,407,o),
(176,391,cs),
(168,348,o),
(-4,141,o),
(-58,91,cs),
(-69,81,o),
(-52,47,o),
(-42,57,cs)
);
}
);
width = 43;
}
);
note = c.a;
},
{
color = 1;
glyphname = d.a;
lastChange = "2023-04-03 11:53:59 +0000";
layers = (
{
background = {
shapes = (
{
closed = 1;
nodes = (
(32,134,o),
(129,287,o),
(144,355,cs),
(157,394,o),
(149,381,o),
(140,403,cs),
(115,328,o),
(30,203,o),
(-108,55,c),
(-110,24,o),
(-118,17,o),
(-98,17,cs)
);
}
);
};
layerId = "220B7CD1-1E4F-4884-BA06-A44A5DCE8B14";
shapes = (
{
closed = 0;
nodes = (
(-4,151,l),
(38,224,o),
(142,350,o),
(165,405,c)
);
}
);
width = 0;
},
{
layerId = "2C50D5C7-CD05-484C-A32A-B9C1F3C11D26";
shapes = (
{
closed = 0;
nodes = (
(-4,151,l),
(38,224,o),
(142,350,o),
(165,405,c)
);
}
);
width = 0;
}
);
note = d_a;
},
{
color = 1;
glyphname = e.a;
lastChange = "2023-04-03 11:53:59 +0000";
layers = (
{
background = {
shapes = (
{
closed = 1;
nodes = (
(-134,280,o),
(35,311,o),
(124,367,cs),
(140,377,o),
(170,453,o),
(145,422,cs),
(114,384,o),
(-106,311,o),
(-178,311,cs),
(-212,311,o),
(-210,272,o),
(-193,274,cs)
);
}
);
};
layerId = "220B7CD1-1E4F-4884-BA06-A44A5DCE8B14";
shapes = (
{
closed = 0;
nodes = (
(-175,290,l),
(-91,301,o),
(148,356,o),
(153,426,c)
);
}
);
width = 0;
},
{
layerId = "2C50D5C7-CD05-484C-A32A-B9C1F3C11D26";
shapes = (
{
closed = 0;
nodes = (
(-175,290,l),
(-91,301,o),
(148,356,o),
(153,426,c)
);
}
);
width = 0;
}
);
note = e.a;
},
{
color = 1;
glyphname = f.a;
lastChange = "2023-04-03 11:53:59 +0000";
layers = (
{
layerId = "220B7CD1-1E4F-4884-BA06-A44A5DCE8B14";
shapes = (
{
closed = 1;
nodes = (
(216,453,ls),
(246,453,o),
(291,499,o),
(269,499,cs),
(-31,499,ls),
(-46,499,o),
(-53,477,o),
(-53,459,cs),
(-53,455,o),
(-51,453,o),
(-45,453,cs)
);
}
);
width = 50;
},
{
layerId = "2C50D5C7-CD05-484C-A32A-B9C1F3C11D26";
shapes = (
{
closed = 1;
nodes = (
(216,453,ls),
(246,453,o),
(291,499,o),
(269,499,cs),
(-31,499,ls),
(-46,499,o),
(-53,477,o),
(-53,459,cs),
(-53,455,o),
(-51,453,o),
(-45,453,cs)
);
}
);
width = 50;
}
);
note = f.a;
},
{
color = 1;
glyphname = k.a;
lastChange = "2023-04-03 11:53:59 +0000";
layers = (
{
layerId = "220B7CD1-1E4F-4884-BA06-A44A5DCE8B14";
shapes = (
{
closed = 1;
nodes = (
(-39,-11,o),
(102,235,o),
(158,353,cs),
(165,367,o),
(151,412,o),
(144,397,cs),
(120,344,o),
(-23,87,o),
(-60,46,cs),
(-73,32,o),
(-69,-14,o),
(-60,-13,cs)
);
}
);
width = 10;
},
{
layerId = "2C50D5C7-CD05-484C-A32A-B9C1F3C11D26";
shapes = (
{
closed = 1;
nodes = (
(-39,-11,o),
(102,235,o),
(158,353,cs),
(165,367,o),
(151,412,o),
(144,397,cs),
(120,344,o),
(-23,87,o),
(-60,46,cs),
(-73,32,o),
(-69,-14,o),
(-60,-13,cs)
);
}
);
width = 10;
}
);
note = k.a;
},
{
color = 1;
glyphname = o.a;
lastChange = "2023-04-03 11:53:59 +0000";
layers = (
{
layerId = "220B7CD1-1E4F-4884-BA06-A44A5DCE8B14";
shapes = (
{
closed = 1;
nodes = (
(247,469,o),
(319,505,o),
(293,505,cs),
(25,505,o),
(-232,524,o),
(-241,524,cs),
(-273,524,o),
(-186,488,o),
(-154,478,cs),
(-118,469,o),
(205,469,o),
(220,469,cs)
);
}
);
width = 15;
},
{
layerId = "2C50D5C7-CD05-484C-A32A-B9C1F3C11D26";
shapes = (
{
closed = 1;
nodes = (
(247,469,o),
(319,505,o),
(293,505,cs),
(25,505,o),
(-232,524,o),
(-241,524,cs),
(-273,524,o),
(-186,488,o),
(-154,478,cs),
(-118,469,o),
(205,469,o),
(220,469,cs)
);
}
);
width = 15;
}
);
note = o.a;
},
{
color = 1;
glyphname = r.a;
lastChange = "2023-04-03 11:53:59 +0000";
layers = (
{
layerId = "220B7CD1-1E4F-4884-BA06-A44A5DCE8B14";
shapes = (
{
closed = 1;
nodes = (
(92,379,o),
(110,387,o),
(152,404,cs),
(173,413,o),
(192,439,o),
(192,453,cs),
(192,457,o),
(190,462,o),
(187,462,cs),
(185,462,o),
(184,460,o),
(183,459,cs),
(141,432,o),
(102,420,o),
(75,420,cs),
(43,420,o),
(17,425,o),
(17,448,cs),
(17,467,o),
(27,462,o),
(27,480,cs),
(27,514,o),
(-4,507,o),
(-18,469,cs),
(-21,460,o),
(-22,452,o),
(-22,443,cs),
(-22,408,o),
(11,379,o),
(65,379,cs)
);
}
);
width = 1;
},
{
layerId = "2C50D5C7-CD05-484C-A32A-B9C1F3C11D26";
shapes = (
{
closed = 1;
nodes = (
(92,379,o),
(110,387,o),
(152,404,cs),
(173,413,o),
(192,439,o),
(192,453,cs),
(192,457,o),
(190,462,o),
(187,462,cs),
(185,462,o),
(184,460,o),
(183,459,cs),
(141,432,o),
(102,420,o),
(75,420,cs),
(43,420,o),
(17,425,o),
(17,448,cs),
(17,467,o),
(27,462,o),
(27,480,cs),
(27,514,o),
(-4,507,o),
(-18,469,cs),
(-21,460,o),
(-22,452,o),
(-22,443,cs),
(-22,408,o),
(11,379,o),
(65,379,cs)
);
}
);
width = 1;
}
);
note = r.a;
},
{
color = 1;
glyphname = s.a;
lastChange = "2023-04-03 11:53:59 +0000";
layers = (
{
layerId = "220B7CD1-1E4F-4884-BA06-A44A5DCE8B14";
shapes = (
{
closed = 1;
nodes = (
(19,-13,o),
(159,255,o),
(177,328,cs),
(188,368,o),
(167,389,o),
(163,373,c),
(145,266,o),
(-17,53,o),
(-145,22,cs),
(-168,16,o),
(-236,-13,o),
(-210,-13,cs)
);
}
);
width = 41;
},
{
layerId = "2C50D5C7-CD05-484C-A32A-B9C1F3C11D26";
shapes = (
{
closed = 1;
nodes = (
(19,-13,o),
(159,255,o),
(177,328,cs),
(188,368,o),
(167,389,o),
(163,373,c),
(145,266,o),
(-17,53,o),
(-145,22,cs),
(-168,16,o),
(-236,-13,o),
(-210,-13,cs)
);
}
);
width = 41;
}
);
note = s.a;
},
{
color = 1;
glyphname = v.a;
lastChange = "2023-04-03 11:53:59 +0000";
layers = (
{
layerId = "220B7CD1-1E4F-4884-BA06-A44A5DCE8B14";
shapes = (
{
closed = 1;
nodes = (
(247,473,o),
(319,505,o),
(293,505,cs),
(175,505,o),
(59,507,o),
(-37,515,cs),
(-49,516,o),
(-52,477,o),
(-39,476,cs),
(67,471,o),
(210,473,o),
(220,473,cs)
);
}
);
width = 15;
},
{
layerId = "2C50D5C7-CD05-484C-A32A-B9C1F3C11D26";
shapes = (
{
closed = 1;
nodes = (
(247,473,o),
(319,505,o),
(293,505,cs),
(175,505,o),
(59,507,o),
(-37,515,cs),
(-49,516,o),
(-52,477,o),
(-39,476,cs),
(67,471,o),
(210,473,o),
(220,473,cs)
);
}
);
width = 15;
}
);
note = v.a;
},
{
color = 1;
glyphname = z.a;
lastChange = "2023-04-03 11:53:59 +0000";
layers = (
{
layerId = "220B7CD1-1E4F-4884-BA06-A44A5DCE8B14";
shapes = (
{
closed = 1;
nodes = (
(-89,9,o),
(-49,15,o),
(-34,43,cs),
(-14,81,o),
(137,279,o),
(174,359,cs),
(187,387,o),
(169,414,o),
(162,401,cs),
(89,274,o),
(-55,90,o),
(-75,42,cs)
);
}
);
width = 18;
},
{
layerId = "2C50D5C7-CD05-484C-A32A-B9C1F3C11D26";
shapes = (
{
closed = 1;
nodes = (
(-89,9,o),
(-49,15,o),
(-34,43,cs),
(-14,81,o),
(137,279,o),
(174,359,cs),
(187,387,o),
(169,414,o),
(162,401,cs),
(89,274,o),
(-55,90,o),
(-75,42,cs)
);
}
);
width = 18;
}
);
note = z.a;
},
{
color = 1;
glyphname = x.asc;
lastChange = "2023-04-03 11:53:59 +0000";
layers = (
{
layerId = "220B7CD1-1E4F-4884-BA06-A44A5DCE8B14";
shapes = (
{
closed = 1;
nodes = (
(50,97,o),
(275,407,o),
(291,476,cs),
(299,509,o),
(299,551,o),
(294,582,c),
(291,506,o),
(72,194,o),
(2,100,cs),
(-21,69,l),
(-20,-4,l)
);
}
);
width = 150;
},
{
layerId = "2C50D5C7-CD05-484C-A32A-B9C1F3C11D26";
shapes = (
{
closed = 1;
nodes = (
(50,97,o),
(275,407,o),
(291,476,cs),
(299,509,o),
(299,551,o),
(294,582,c),
(291,506,o),
(72,194,o),
(2,100,cs),
(-21,69,l),
(-20,-4,l)
);
}
);
width = 150;
}
);
note = x_asc;
},
{
color = 2;
glyphname = a.b;
lastChange = "2023-04-03 11:53:59 +0000";
layers = (
{
background = {
shapes = (
{
closed = 1;
nodes = (
(-25,86,o),
(107,246,o),
(138,352,cs),
(160,431,o),
(142,499,o),
(138,462,cs),
(128,370,o),
(65,237,o),
(-100,64,cs),
(-108,56,o),
(-80,36,o),
(-71,43,c)
);
}
);
};
layerId = "220B7CD1-1E4F-4884-BA06-A44A5DCE8B14";
shapes = (
{
closed = 0;
nodes = (
(-25,130,l),
(36,194,o),
(149,378,o),
(159,497,c)
);
}
);
width = 0;
},
{
layerId = "2C50D5C7-CD05-484C-A32A-B9C1F3C11D26";
shapes = (
{
closed = 0;
nodes = (
(-25,130,l),
(36,194,o),
(149,378,o),
(159,497,c)
);
}
);
width = 0;
}
);
note = a.b;
},
{
color = 1;
glyphname = b.b;
lastChange = "2023-04-03 11:53:59 +0000";
layers = (
{
layerId = "220B7CD1-1E4F-4884-BA06-A44A5DCE8B14";
shapes = (
{
closed = 1;
nodes = (
(-37,-13,o),
(102,168,o),
(170,325,cs),
(206,406,o),
(178,505,o),
(170,459,cs),
(139,275,o),
(-7,65,o),
(-201,39,cs),
(-246,33,o),
(-323,-13,o),
(-288,-13,cs)
);
}
);
width = 32;
},
{
layerId = "2C50D5C7-CD05-484C-A32A-B9C1F3C11D26";
shapes = (
{
closed = 1;
nodes = (
(-37,-13,o),
(102,168,o),
(170,325,cs),
(206,406,o),
(178,505,o),
(170,459,cs),
(139,275,o),
(-7,65,o),
(-201,39,cs),
(-246,33,o),
(-323,-13,o),
(-288,-13,cs)
);
}
);
width = 32;
}
);
note = b.b;
},
{
color = 1;
glyphname = c.b;
lastChange = "2023-04-03 11:53:59 +0000";
layers = (
{
layerId = "220B7CD1-1E4F-4884-BA06-A44A5DCE8B14";
shapes = (
{
closed = 1;
nodes = (
(19,115,o),
(160,271,o),
(183,328,cs),
(221,421,o),
(191,500,o),
(188,456,cs),
(185,353,o),
(4,142,o),
(-49,99,cs),
(-59,91,o),
(-51,49,o),
(-39,60,cs)
);
}
);
width = 46;
},
{
layerId = "2C50D5C7-CD05-484C-A32A-B9C1F3C11D26";
shapes = (
{
closed = 1;
nodes = (
(19,115,o),
(160,271,o),
(183,328,cs),
(221,421,o),
(191,500,o),
(188,456,cs),
(185,353,o),
(4,142,o),
(-49,99,cs),
(-59,91,o),
(-51,49,o),
(-39,60,cs)
);
}
);
width = 46;
}
);
note = c.b;
},
{
color = 1;
glyphname = e.b;
lastChange = "2023-04-03 11:53:59 +0000";
layers = (
{
layerId = "220B7CD1-1E4F-4884-BA06-A44A5DCE8B14";
shapes = (
{
closed = 1;
nodes = (
(-40,289,o),
(85,320,o),
(135,386,cs),
(166,427,o),
(140,465,o),
(135,446,cs),
(115,376,o),
(-33,320,o),
(-193,312,cs),
(-204,311,o),
(-206,273,o),
(-193,274,cs)
);
}
);
width = 0;
},
{
layerId = "2C50D5C7-CD05-484C-A32A-B9C1F3C11D26";
shapes = (
{
closed = 1;
nodes = (
(-40,289,o),
(85,320,o),
(135,386,cs),
(166,427,o),
(140,465,o),
(135,446,cs),
(115,376,o),
(-33,320,o),
(-193,312,cs),
(-204,311,o),
(-206,273,o),
(-193,274,cs)
);
}
);
width = 0;
}
);
note = e.b;
},
{
color = 1;
glyphname = f.b;
lastChange = "2023-04-03 11:53:59 +0000";
layers = (
{
layerId = "220B7CD1-1E4F-4884-BA06-A44A5DCE8B14";
shapes = (
{
closed = 1;
nodes = (
(93,453,ls),
(115,453,o),
(139,458,o),
(153,475,cs),
(173,501,o),
(165,524,o),
(155,524,c),
(155,524,o),
(155,521,o),
(148,514,cs),
(138,504,o),
(115,499,o),
(77,499,cs),
(-33,499,ls),
(-48,499,o),
(-55,477,o),
(-55,459,cs),
(-55,455,o),
(-53,453,o),
(-47,453,cs)
);
}
);
width = 15;
},
{
layerId = "2C50D5C7-CD05-484C-A32A-B9C1F3C11D26";
shapes = (
{
closed = 1;
nodes = (
(93,453,ls),
(115,453,o),
(139,458,o),
(153,475,cs),
(173,501,o),
(165,524,o),
(155,524,c),
(155,524,o),
(155,521,o),
(148,514,cs),
(138,504,o),
(115,499,o),
(77,499,cs),
(-33,499,ls),
(-48,499,o),
(-55,477,o),
(-55,459,cs),
(-55,455,o),
(-53,453,o),
(-47,453,cs)
);
}
);
width = 15;
}
);
note = f.b;
},
{
color = 1;
glyphname = k.b;
lastChange = "2023-04-03 11:53:59 +0000";
layers = (
{
layerId = "220B7CD1-1E4F-4884-BA06-A44A5DCE8B14";
shapes = (
{
closed = 1;
nodes = (
(-39,-13,o),
(128,264,o),
(148,354,cs),
(179,493,o),
(149,526,o),
(148,483,cs),
(145,342,o),
(-8,94,o),
(-57,50,cs),
(-73,37,o),
(-77,-13,o),
(-59,-13,cs)
);
}
);
width = 0;
},
{
layerId = "2C50D5C7-CD05-484C-A32A-B9C1F3C11D26";
shapes = (
{
closed = 1;
nodes = (
(-39,-13,o),
(128,264,o),
(148,354,cs),
(179,493,o),
(149,526,o),
(148,483,cs),
(145,342,o),
(-8,94,o),
(-57,50,cs),
(-73,37,o),
(-77,-13,o),
(-59,-13,cs)
);
}
);
width = 0;
}
);
note = k.b;
},
{
color = 1;
glyphname = o.b;
lastChange = "2023-04-03 11:53:59 +0000";
layers = (
{
layerId = "220B7CD1-1E4F-4884-BA06-A44A5DCE8B14";
shapes = (
{
closed = 1;
nodes = (
(36,480,o),
(172,577,o),
(187,618,cs),
(207,672,o),
(198,679,o),
(187,661,cs),
(144,591,o),
(-4,522,o),
(-243,522,cs),
(-275,522,o),
(-189,480,o),
(-156,480,cs)
);
}
);
width = 17;
},
{
layerId = "2C50D5C7-CD05-484C-A32A-B9C1F3C11D26";
shapes = (
{
closed = 1;
nodes = (
(36,480,o),
(172,577,o),
(187,618,cs),
(207,672,o),
(198,679,o),
(187,661,cs),
(144,591,o),
(-4,522,o),
(-243,522,cs),
(-275,522,o),
(-189,480,o),
(-156,480,cs)
);
}
);
width = 17;
}
);
note = o.b;
},
{
color = 1;
glyphname = r.b;
lastChange = "2023-04-03 11:53:59 +0000";
layers = (
{
layerId = "220B7CD1-1E4F-4884-BA06-A44A5DCE8B14";
shapes = (
{
closed = 1;
nodes = (
(89,385,o),
(122,408,o),
(135,429,cs),
(173,488,o),
(140,521,o),
(138,497,cs),
(134,446,o),
(86,424,o),
(62,424,cs),
(40,424,o),
(24,438,o),
(24,453,cs),
(24,466,o),
(37,466,o),
(37,476,cs),
(37,508,o),
(-8,509,o),
(-19,469,cs),
(-21,460,o),
(-22,454,o),
(-22,446,cs),
(-22,404,o),
(11,385,o),
(43,385,cs)
);
}
);
width = 0;
},
{
layerId = "2C50D5C7-CD05-484C-A32A-B9C1F3C11D26";
shapes = (
{
closed = 1;
nodes = (
(89,385,o),
(122,408,o),
(135,429,cs),
(173,488,o),
(140,521,o),
(138,497,cs),
(134,446,o),
(86,424,o),
(62,424,cs),
(40,424,o),
(24,438,o),
(24,453,cs),
(24,466,o),
(37,466,o),
(37,476,cs),
(37,508,o),
(-8,509,o),
(-19,469,cs),
(-21,460,o),
(-22,454,o),
(-22,446,cs),
(-22,404,o),
(11,385,o),
(43,385,cs)
);
}
);
width = 0;
}
);
note = r.b;
},
{
color = 1;
glyphname = v.b;
lastChange = "2023-04-03 11:53:59 +0000";
layers = (
{
layerId = "220B7CD1-1E4F-4884-BA06-A44A5DCE8B14";
shapes = (
{
closed = 1;
nodes = (
(35,487,o),
(118,503,o),
(152,577,cs),
(160,595,o),
(151,656,o),
(146,636,cs),
(121,532,o),
(47,520,o),
(-47,522,cs),
(-58,522,o),
(-43,489,o),
(-31,489,cs)
);
}
);
width = 0;
},
{
layerId = "2C50D5C7-CD05-484C-A32A-B9C1F3C11D26";
shapes = (
{
closed = 1;
nodes = (
(35,487,o),
(118,503,o),
(152,577,cs),
(160,595,o),
(151,656,o),
(146,636,cs),
(121,532,o),
(47,520,o),
(-47,522,cs),
(-58,522,o),
(-43,489,o),
(-31,489,cs)
);
}
);
width = 0;
}
);
note = v.b;
},
{
color = 1;
glyphname = z.b;
lastChange = "2023-04-03 11:53:59 +0000";
layers = (
{
layerId = "220B7CD1-1E4F-4884-BA06-A44A5DCE8B14";
shapes = (
{
closed = 1;
nodes = (
(-83,13,o),
(-44,5,o),
(-44,40,cs),
(-44,94,o),
(190,321,o),
(187,407,cs),
(186,423,o),
(154,471,o),
(154,435,cs),
(154,331,o),
(-91,102,o),
(-85,40,cs)
);
}
);
width = 19;
},
{
layerId = "2C50D5C7-CD05-484C-A32A-B9C1F3C11D26";
shapes = (
{
closed = 1;
nodes = (
(-83,13,o),
(-44,5,o),
(-44,40,cs),
(-44,94,o),
(190,321,o),
(187,407,cs),
(186,423,o),
(154,471,o),
(154,435,cs),
(154,331,o),
(-91,102,o),
(-85,40,cs)
);
}
);
width = 19;
}
);
note = z.b;
},
{
color = 1;
glyphname = a.c;
lastChange = "2023-04-03 11:53:59 +0000";
layers = (
{
layerId = "220B7CD1-1E4F-4884-BA06-A44A5DCE8B14";
shapes = (
{
closed = 1;
nodes = (
(-2,112,o),
(51,189,o),
(101,282,cs),
(107,294,o),
(91,342,o),
(86,330,c),
(68,271,o),
(-39,129,o),
(-97,68,cs),
(-105,59,o),
(-81,33,o),
(-71,43,cs)
);
}
);
width = 0;
},
{
layerId = "2C50D5C7-CD05-484C-A32A-B9C1F3C11D26";
shapes = (
{
closed = 1;
nodes = (
(-2,112,o),
(51,189,o),
(101,282,cs),
(107,294,o),
(91,342,o),
(86,330,c),
(68,271,o),
(-39,129,o),
(-97,68,cs),
(-105,59,o),
(-81,33,o),
(-71,43,cs)
);
}
);
width = 0;
}
);
note = a.c;
},
{
color = 1;
glyphname = b.c;
lastChange = "2023-04-03 11:53:59 +0000";
layers = (
{
layerId = "220B7CD1-1E4F-4884-BA06-A44A5DCE8B14";
shapes = (
{
closed = 1;
nodes = (
(-109,-13,o),
(74,93,o),
(160,323,c),
(163,334,o),
(151,378,o),
(146,364,cs),
(86,189,o),
(-55,57,o),
(-201,36,cs),
(-232,31,o),
(-324,-13,o),
(-288,-13,cs)
);
}
);
width = 59;
},
{
layerId = "2C50D5C7-CD05-484C-A32A-B9C1F3C11D26";
shapes = (
{
closed = 1;
nodes = (
(-109,-13,o),
(74,93,o),
(160,323,c),
(163,334,o),
(151,378,o),
(146,364,cs),
(86,189,o),
(-55,57,o),
(-201,36,cs),
(-232,31,o),
(-324,-13,o),
(-288,-13,cs)
);
}
);
width = 59;
}
);
note = b.c;
},
{
color = 1;
glyphname = c.c;
lastChange = "2023-04-03 11:53:59 +0000";
layers = (
{
layerId = "220B7CD1-1E4F-4884-BA06-A44A5DCE8B14";
shapes = (
{
closed = 1;
nodes = (
(-18,67,o),
(132,243,o),
(155,302,cs),
(183,374,o),
(168,405,o),
(160,377,cs),
(132,273,o),
(-9,137,o),
(-62,86,cs),
(-73,76,o),
(-90,18,o),
(-77,27,cs)
);
}
);
width = 32;
},
{
layerId = "2C50D5C7-CD05-484C-A32A-B9C1F3C11D26";
shapes = (
{
closed = 1;
nodes = (
(-18,67,o),
(132,243,o),
(155,302,cs),
(183,374,o),
(168,405,o),
(160,377,cs),
(132,273,o),
(-9,137,o),
(-62,86,cs),
(-73,76,o),
(-90,18,o),
(-77,27,cs)
);
}
);
width = 32;
}
);
note = c.c;
},
{
color = 1;
glyphname = e.c;
lastChange = "2023-04-03 11:53:59 +0000";
layers = (
{
layerId = "220B7CD1-1E4F-4884-BA06-A44A5DCE8B14";
shapes = (
{
closed = 1;
nodes = (
(-134,280,o),
(37,312,o),
(119,365,cs),
(163,394,o),
(150,440,o),
(140,422,cs),
(118,382,o),
(-100,311,o),
(-193,311,cs),
(-205,311,o),
(-206,273,o),
(-193,274,cs)
);
}
);
width = 30;
},
{
layerId = "2C50D5C7-CD05-484C-A32A-B9C1F3C11D26";
shapes = (
{
closed = 1;
nodes = (
(-134,280,o),
(37,312,o),
(119,365,cs),
(163,394,o),
(150,440,o),
(140,422,cs),
(118,382,o),
(-100,311,o),
(-193,311,cs),
(-205,311,o),
(-206,273,o),
(-193,274,cs)
);
}
);
width = 30;
}
);
note = e.c;
},
{
color = 1;
glyphname = f.c;
lastChange = "2023-04-03 11:53:59 +0000";
layers = (
{
layerId = "220B7CD1-1E4F-4884-BA06-A44A5DCE8B14";
shapes = (
{
closed = 0;
nodes = (
(-15,482,l),
(169,485,l)
);
}
);
width = 15;
},
{
layerId = "2C50D5C7-CD05-484C-A32A-B9C1F3C11D26";
shapes = (
{
closed = 0;
nodes = (
(-15,482,l),
(169,485,l)
);
}
);
width = 15;
}
);
note = f.c;
},
{
color = 1;
glyphname = k.c;
lastChange = "2023-04-03 11:53:59 +0000";
layers = (
{
layerId = "220B7CD1-1E4F-4884-BA06-A44A5DCE8B14";
shapes = (
{
closed = 1;
nodes = (
(-40,-13,o),
(49,168,o),
(125,312,cs),
(139,340,o),
(117,371,o),
(111,356,cs),
(97,319,o),
(-23,89,o),
(-57,50,cs),
(-74,32,o),
(-71,-13,o),
(-59,-13,cs)
);
}
);
width = 29;
},
{
layerId = "2C50D5C7-CD05-484C-A32A-B9C1F3C11D26";
shapes = (
{
closed = 1;
nodes = (
(-40,-13,o),
(49,168,o),
(125,312,cs),
(139,340,o),
(117,371,o),
(111,356,cs),
(97,319,o),
(-23,89,o),
(-57,50,cs),
(-74,32,o),
(-71,-13,o),
(-59,-13,cs)
);
}
);
width = 29;
}
);
note = k.c;
},
{
color = 1;
glyphname = o.c;
lastChange = "2023-04-03 11:53:59 +0000";
layers = (
{
layerId = "220B7CD1-1E4F-4884-BA06-A44A5DCE8B14";
shapes = (
{
closed = 1;
nodes = (
(232,469,o),
(282,505,o),
(261,505,cs),
(-6,505,o),
(-232,524,o),
(-241,524,cs),
(-273,524,o),
(-186,488,o),
(-154,478,cs),
(-118,469,o),
(191,469,o),
(206,469,cs)
);
}
);
width = 25;
},
{
layerId = "2C50D5C7-CD05-484C-A32A-B9C1F3C11D26";
shapes = (
{
closed = 1;
nodes = (
(232,469,o),
(282,505,o),
(261,505,cs),
(-6,505,o),
(-232,524,o),
(-241,524,cs),
(-273,524,o),
(-186,488,o),
(-154,478,cs),
(-118,469,o),
(191,469,o),
(206,469,cs)
);
}
);
width = 25;
}
);
note = o.c;
},
{
color = 1;
glyphname = r.c;
lastChange = "2023-04-03 11:53:59 +0000";
layers = (
{
layerId = "220B7CD1-1E4F-4884-BA06-A44A5DCE8B14";
shapes = (
{
closed = 1;
nodes = (
(82,381,o),
(121,389,o),
(149,406,cs),
(185,427,o),
(189,472,o),
(173,458,cs),
(139,431,o),
(102,422,o),
(75,422,cs),
(43,422,o),
(24,436,o),
(24,451,cs),
(24,465,o),
(36,459,o),
(37,480,cs),
(39,528,o),
(-6,507,o),
(-19,469,cs),
(-22,460,o),
(-23,452,o),
(-23,443,cs),
(-23,408,o),
(1,381,o),
(55,381,cs)
);
}
);
width = 36;
},
{
layerId = "2C50D5C7-CD05-484C-A32A-B9C1F3C11D26";
shapes = (
{
closed = 1;
nodes = (
(82,381,o),
(121,389,o),
(149,406,cs),
(185,427,o),
(189,472,o),
(173,458,cs),
(139,431,o),
(102,422,o),
(75,422,cs),
(43,422,o),
(24,436,o),
(24,451,cs),
(24,465,o),
(36,459,o),
(37,480,cs),
(39,528,o),
(-6,507,o),
(-19,469,cs),
(-22,460,o),
(-23,452,o),
(-23,443,cs),
(-23,408,o),
(1,381,o),
(55,381,cs)
);
}
);
width = 36;
}
);
note = r.c;
},
{
color = 1;
glyphname = s.c;
lastChange = "2023-04-03 11:53:59 +0000";
layers = (
{
layerId = "220B7CD1-1E4F-4884-BA06-A44A5DCE8B14";
shapes = (
{
closed = 1;
nodes = (
(23,-13,o),
(142,242,o),
(177,310,cs),
(210,373,o),
(162,388,o),
(158,373,cs),
(128,258,o),
(-37,31,o),
(-145,27,cs),
(-169,25,o),
(-236,-13,o),
(-210,-13,cs)
);
}
);
width = 68;
},
{
layerId = "2C50D5C7-CD05-484C-A32A-B9C1F3C11D26";
shapes = (
{
closed = 1;
nodes = (
(23,-13,o),
(142,242,o),
(177,310,cs),
(210,373,o),
(162,388,o),
(158,373,cs),
(128,258,o),
(-37,31,o),
(-145,27,cs),
(-169,25,o),
(-236,-13,o),
(-210,-13,cs)
);
}
);
width = 68;
}
);
note = s.c;
},
{
color = 1;
glyphname = v.c;
lastChange = "2023-04-03 11:53:59 +0000";
layers = (
{
layerId = "220B7CD1-1E4F-4884-BA06-A44A5DCE8B14";
shapes = (
{
closed = 1;
nodes = (
(247,469,o),
(283,505,o),
(268,505,cs),
(175,505,o),
(59,507,o),
(-37,515,cs),
(-49,516,o),
(-52,477,o),
(-39,476,cs),
(67,471,o),
(210,469,o),
(211,469,cs)
);
}
);
width = 30;
},
{
layerId = "2C50D5C7-CD05-484C-A32A-B9C1F3C11D26";
shapes = (
{
closed = 1;
nodes = (
(247,469,o),
(283,505,o),
(268,505,cs),
(175,505,o),
(59,507,o),
(-37,515,cs),
(-49,516,o),
(-52,477,o),
(-39,476,cs),
(67,471,o),
(210,469,o),
(211,469,cs)
);
}
);
width = 30;
}
);
note = v.c;
},
{
color = 1;
glyphname = z.c;
lastChange = "2023-04-03 11:53:59 +0000";
layers = (
{
layerId = "220B7CD1-1E4F-4884-BA06-A44A5DCE8B14";
shapes = (
{
closed = 1;
nodes = (
(-74,7,o),
(-44,-6,o),
(-37,28,c),
(-34,51,o),
(16,138,o),
(63,209,cs),
(98,263,o),
(131,316,o),
(142,343,cs),
(156,380,o),
(142,406,o),
(129,385,c),
(108,344,o),
(72,289,o),
(36,235,cs),
(-19,152,o),
(-74,70,o),
(-74,40,cs)
);
}
);
width = 38;
},
{
layerId = "2C50D5C7-CD05-484C-A32A-B9C1F3C11D26";
shapes = (
{
closed = 1;
nodes = (
(-74,7,o),
(-44,-6,o),
(-37,28,c),
(-34,51,o),
(16,138,o),
(63,209,cs),
(98,263,o),
(131,316,o),
(142,343,cs),
(156,380,o),
(142,406,o),
(129,385,c),
(108,344,o),
(72,289,o),
(36,235,cs),
(-19,152,o),
(-74,70,o),
(-74,40,cs)
);
}
);
width = 38;
}
);
note = z.c;
},
{
color = 1;
glyphname = x.exit;
lastChange = "2023-04-03 11:53:59 +0000";
layers = (
{
layerId = "220B7CD1-1E4F-4884-BA06-A44A5DCE8B14";
shapes = (
{
closed = 1;
nodes = (
(-13,32,o),
(18,80,o),
(94,191,cs),
(101,202,o),
(95,221,o),
(84,233,cs),
(81,236,o),
(78,238,o),
(76,235,cs),
(66,217,o),
(-6,116,o),
(-18,100,cs),
(-41,70,l),
(-40,-4,l)
);
}
);
width = 0;
},
{
layerId = "2C50D5C7-CD05-484C-A32A-B9C1F3C11D26";
shapes = (
{
closed = 1;
nodes = (
(-13,32,o),
(18,80,o),
(94,191,cs),
(101,202,o),
(95,221,o),
(84,233,cs),
(81,236,o),
(78,238,o),
(76,235,cs),
(66,217,o),
(-6,116,o),
(-18,100,cs),
(-41,70,l),
(-40,-4,l)
);
}
);
width = 0;
}
);
note = x_exit;
},
{
color = 1;
glyphname = f.f;
lastChange = "2023-04-03 11:53:59 +0000";
layers = (
{
layerId = "220B7CD1-1E4F-4884-BA06-A44A5DCE8B14";
shapes = (
{
closed = 1;
nodes = (
(155,453,l),
(169,453,o),
(180,499,o),
(169,499,c),
(4,499,ls),
(-13,499,o),
(-30,453,o),
(-10,453,cs)
);
}
);
width = 0;
},
{
layerId = "2C50D5C7-CD05-484C-A32A-B9C1F3C11D26";
shapes = (
{
closed = 1;
nodes = (
(155,453,l),
(169,453,o),
(180,499,o),
(169,499,c),
(4,499,ls),
(-13,499,o),
(-30,453,o),
(-10,453,cs)
);
}
);
width = 0;
}
);
note = f.s;
},
{
color = 1;
glyphname = o.i;
lastChange = "2023-04-03 11:53:59 +0000";
layers = (
{
layerId = "220B7CD1-1E4F-4884-BA06-A44A5DCE8B14";
shapes = (
{
closed = 0;
nodes = (
(-254,505,l),
(-178,490,o),
(-91,461,o),
(-22,459,cs),
(37,457,o),
(81,455,o),
(140,461,cs),
(150,462,o),
(167,467,o),
(170,485,c)
);
}
);
width = 13;
},
{
layerId = "2C50D5C7-CD05-484C-A32A-B9C1F3C11D26";
shapes = (
{
closed = 0;
nodes = (
(-254,505,l),
(-178,490,o),
(-91,461,o),
(-22,459,cs),
(37,457,o),
(81,455,o),
(140,461,cs),
(150,462,o),
(167,467,o),
(170,485,c)
);
}
);
width = 13;
}
);
note = o.i;
},
{
color = 1;
glyphname = s.i;
lastChange = "2023-04-03 11:53:59 +0000";
layers = (
{
layerId = "220B7CD1-1E4F-4884-BA06-A44A5DCE8B14";
shapes = (
{
closed = 1;
nodes = (
(63,-11,o),
(189,313,o),
(194,456,cs),
(195,484,o),
(157,491,o),
(156,468,cs),
(146,289,o),
(-5,44,o),
(-153,23,cs),
(-175,20,o),
(-233,-13,o),
(-210,-13,cs)
);
}
);
width = 25;
},
{
layerId = "2C50D5C7-CD05-484C-A32A-B9C1F3C11D26";
shapes = (
{
closed = 1;
nodes = (
(63,-11,o),
(189,313,o),
(194,456,cs),
(195,484,o),
(157,491,o),
(156,468,cs),
(146,289,o),
(-5,44,o),
(-153,23,cs),
(-175,20,o),
(-233,-13,o),
(-210,-13,cs)
);
}
);
width = 25;
}
);
note = s.i;
},
{
color = 1;
glyphname = v.i;
lastChange = "2023-04-03 11:53:59 +0000";
layers = (
{
layerId = "220B7CD1-1E4F-4884-BA06-A44A5DCE8B14";
shapes = (
{
closed = 1;
nodes = (
(89,454,o),
(128,462,o),
(132,491,cs),
(133,498,o),
(134,522,o),
(129,509,cs),
(124,492,o),
(35,497,o),
(-46,515,cs),
(-57,517,o),
(-65,482,o),
(-40,477,cs)
);
}
);
width = 0;
},
{
layerId = "2C50D5C7-CD05-484C-A32A-B9C1F3C11D26";
shapes = (
{
closed = 1;
nodes = (
(89,454,o),
(128,462,o),
(132,491,cs),
(133,498,o),
(134,522,o),
(129,509,cs),
(124,492,o),
(35,497,o),
(-46,515,cs),
(-57,517,o),
(-65,482,o),
(-40,477,cs)
);
}
);
width = 0;
}
);
note = v.i;
},
{
color = 1;
glyphname = a.s;
lastChange = "2023-04-03 11:53:59 +0000";
layers = (
{
layerId = "220B7CD1-1E4F-4884-BA06-A44A5DCE8B14";
shapes = (
{
closed = 1;
nodes = (
(-24,85,o),
(123,274,o),
(129,325,c),
(137,375,o),
(112,408,o),
(111,387,c),
(102,301,o),
(-37,124,o),
(-94,72,cs),
(-109,58,o),
(-86,29,o),
(-70,43,cs)
);
}
);
width = 10;
},
{
layerId = "2C50D5C7-CD05-484C-A32A-B9C1F3C11D26";
shapes = (
{
closed = 1;
nodes = (
(-24,85,o),
(123,274,o),
(129,325,c),
(137,375,o),
(112,408,o),
(111,387,c),
(102,301,o),
(-37,124,o),
(-94,72,cs),
(-109,58,o),
(-86,29,o),
(-70,43,cs)
);
}
);
width = 10;
}
);
note = a.s;
},
{
color = 1;
glyphname = b.s;
lastChange = "2023-04-03 11:53:59 +0000";
layers = (
{
layerId = "220B7CD1-1E4F-4884-BA06-A44A5DCE8B14";
shapes = (
{
closed = 1;
nodes = (
(-1,-13,o),
(108,217,o),
(140,325,cs),
(152,369,o),
(121,399,o),
(121,383,cs),
(120,286,o),
(-14,54,o),
(-201,30,cs),
(-233,26,o),
(-327,-13,o),
(-292,-13,cs)
);
}
);
width = 13;
},
{
layerId = "2C50D5C7-CD05-484C-A32A-B9C1F3C11D26";
shapes = (
{
closed = 1;
nodes = (
(-1,-13,o),
(108,217,o),
(140,325,cs),
(152,369,o),
(121,399,o),
(121,383,cs),
(120,286,o),
(-14,54,o),
(-201,30,cs),
(-233,26,o),
(-327,-13,o),
(-292,-13,cs)
);
}
);
width = 13;
}
);
note = b.s;
},
{
color = 1;
glyphname = c.s;
lastChange = "2023-04-03 11:53:59 +0000";
layers = (
{
layerId = "220B7CD1-1E4F-4884-BA06-A44A5DCE8B14";
shapes = (
{
closed = 1;
nodes = (
(-19,62,o),
(157,213,o),
(166,314,cs),
(168,349,o),
(148,390,o),
(146,369,cs),
(133,254,o),
(-36,95,o),
(-88,64,cs),
(-99,57,o),
(-90,19,o),
(-77,27,cs)
);
}
);
width = 83;
},
{
layerId = "2C50D5C7-CD05-484C-A32A-B9C1F3C11D26";
shapes = (
{
closed = 1;
nodes = (
(-19,62,o),
(157,213,o),
(166,314,cs),
(168,349,o),
(148,390,o),
(146,369,cs),
(133,254,o),
(-36,95,o),
(-88,64,cs),
(-99,57,o),
(-90,19,o),
(-77,27,cs)
);
}
);
width = 83;
}
);
note = c.s;
},
{
color = 1;
glyphname = e.s;
lastChange = "2023-04-03 11:53:59 +0000";
layers = (
{
layerId = "220B7CD1-1E4F-4884-BA06-A44A5DCE8B14";
shapes = (
{
closed = 1;
nodes = (
(-53,288,o),
(84,326,o),
(109,369,cs),
(141,420,o),
(114,443,o),
(110,424,cs),
(98,371,o),
(-43,322,o),
(-197,308,cs),
(-209,307,o),
(-212,271,o),
(-197,273,cs)
);
}
);
width = 48;
},
{
layerId = "2C50D5C7-CD05-484C-A32A-B9C1F3C11D26";
shapes = (
{
closed = 1;
nodes = (
(-53,288,o),
(84,326,o),
(109,369,cs),
(141,420,o),
(114,443,o),
(110,424,cs),
(98,371,o),
(-43,322,o),
(-197,308,cs),
(-209,307,o),
(-212,271,o),
(-197,273,cs)
);
}
);
width = 48;
}
);
note = e.s;
},
{
color = 1;
glyphname = f.s;
lastChange = "2023-04-03 11:53:59 +0000";
layers = (
{
layerId = "220B7CD1-1E4F-4884-BA06-A44A5DCE8B14";
shapes = (
{
closed = 1;
nodes = (
(192,453,l),
(206,470,o),
(200,489,o),
(222,499,c),
(-31,499,ls),
(-46,499,o),
(-53,477,o),
(-53,459,cs),
(-53,455,o),
(-51,453,o),
(-45,453,cs)
);
}
);
width = 50;
},
{
layerId = "2C50D5C7-CD05-484C-A32A-B9C1F3C11D26";
shapes = (
{
closed = 1;
nodes = (
(192,453,l),
(206,470,o),
(200,489,o),
(222,499,c),
(-31,499,ls),
(-46,499,o),
(-53,477,o),
(-53,459,cs),
(-53,455,o),
(-51,453,o),
(-45,453,cs)
);
}
);
width = 50;
}
);
note = f.s;
},
{
color = 1;
glyphname = k.s;
lastChange = "2023-04-03 11:53:59 +0000";
layers = (
{
layerId = "220B7CD1-1E4F-4884-BA06-A44A5DCE8B14";
shapes = (
{
closed = 1;
nodes = (
(-43,-13,o),
(147,301,o),
(145,334,cs),
(140,396,o),
(121,405,o),
(121,382,cs),
(121,343,o),
(1,126,o),
(-60,50,c),
(-74,35,o),
(-77,-13,o),
(-62,-13,cs)
);
}
);
width = 54;
},
{
layerId = "2C50D5C7-CD05-484C-A32A-B9C1F3C11D26";
shapes = (
{
closed = 1;
nodes = (
(-43,-13,o),
(147,301,o),
(145,334,cs),
(140,396,o),
(121,405,o),
(121,382,cs),
(121,343,o),
(1,126,o),
(-60,50,c),
(-74,35,o),
(-77,-13,o),
(-62,-13,cs)
);
}
);
width = 54;
}
);
note = k.s;
},
{
color = 1;
glyphname = o.s;
lastChange = "2023-04-03 11:53:59 +0000";
layers = (
{
layerId = "220B7CD1-1E4F-4884-BA06-A44A5DCE8B14";
shapes = (
{
closed = 1;
nodes = (
(187,471,o),
(216,505,o),
(193,505,cs),
(-29,505,o),
(-242,524,o),
(-249,524,cs),
(-282,524,o),
(-206,488,o),
(-174,478,cs),
(-138,469,o),
(88,471,o),
(130,471,cs)
);
}
);
width = 41;
},
{
layerId = "2C50D5C7-CD05-484C-A32A-B9C1F3C11D26";
shapes = (
{
closed = 1;
nodes = (
(187,471,o),
(216,505,o),
(193,505,cs),
(-29,505,o),
(-242,524,o),
(-249,524,cs),
(-282,524,o),
(-206,488,o),
(-174,478,cs),
(-138,469,o),
(88,471,o),
(130,471,cs)
);
}
);
width = 41;
}
);
note = o.s;
},
{
color = 1;
glyphname = r.s;
lastChange = "2023-04-03 11:53:59 +0000";
layers = (
{
layerId = "220B7CD1-1E4F-4884-BA06-A44A5DCE8B14";
shapes = (
{
closed = 1;
nodes = (
(47,410,o),
(67,414,o),
(76,418,cs),
(100,429,o),
(132,473,o),
(121,473,cs),
(114,473,o),
(89,447,o),
(45,447,cs),
(26,447,o),
(19,452,o),
(19,458,cs),
(19,468,o),
(27,467,o),
(27,477,cs),
(27,486,o),
(-18,503,o),
(-18,452,cs),
(-18,427,o),
(2,410,o),
(29,410,cs)
);
}
);
width = 5;
},
{
layerId = "2C50D5C7-CD05-484C-A32A-B9C1F3C11D26";
shapes = (
{
closed = 1;
nodes = (
(47,410,o),
(67,414,o),
(76,418,cs),
(100,429,o),
(132,473,o),
(121,473,cs),
(114,473,o),
(89,447,o),
(45,447,cs),
(26,447,o),
(19,452,o),
(19,458,cs),
(19,468,o),
(27,467,o),
(27,477,cs),
(27,486,o),
(-18,503,o),
(-18,452,cs),
(-18,427,o),
(2,410,o),
(29,410,cs)
);
}
);
width = 5;
}
);
note = r.s;
},
{
color = 1;
glyphname = s.s;
lastChange = "2023-04-03 11:53:59 +0000";
layers = (
{
layerId = "220B7CD1-1E4F-4884-BA06-A44A5DCE8B14";
shapes = (
{
closed = 1;
nodes = (
(19,-13,o),
(167,249,o),
(177,336,cs),
(181,381,o),
(155,411,o),
(154,391,cs),
(145,230,o),
(-65,30,o),
(-145,30,cs),
(-176,30,o),
(-236,-13,o),
(-210,-13,cs)
);
}
);
width = 74;
},
{
layerId = "2C50D5C7-CD05-484C-A32A-B9C1F3C11D26";
shapes = (
{
closed = 1;
nodes = (
(19,-13,o),
(167,249,o),
(177,336,cs),
(181,381,o),
(155,411,o),
(154,391,cs),
(145,230,o),
(-65,30,o),
(-145,30,cs),
(-176,30,o),
(-236,-13,o),
(-210,-13,cs)
);
}
);
width = 74;
}
);
note = s.s;
},
{
color = 1;
glyphname = v.s;
lastChange = "2023-04-03 11:53:59 +0000";
layers = (
{
layerId = "220B7CD1-1E4F-4884-BA06-A44A5DCE8B14";
shapes = (
{
closed = 1;
nodes = (
(170,480,o),
(244,509,o),
(202,508,cs),
(119,505,o),
(-15,511,o),
(-37,515,cs),
(-57,518,o),
(-52,478,o),
(-39,476,cs),
(-8,473,o),
(129,471,o),
(144,473,c)
);
}
);
width = 41;
},
{
layerId = "2C50D5C7-CD05-484C-A32A-B9C1F3C11D26";
shapes = (
{
closed = 1;
nodes = (
(170,480,o),
(244,509,o),
(202,508,cs),
(119,505,o),
(-15,511,o),
(-37,515,cs),
(-57,518,o),
(-52,478,o),
(-39,476,cs),
(-8,473,o),
(129,471,o),
(144,473,c)
);
}
);
width = 41;
}
);
note = v.s;
},
{
color = 1;
glyphname = z.s;
lastChange = "2023-04-03 11:53:59 +0000";
layers = (
{
layerId = "220B7CD1-1E4F-4884-BA06-A44A5DCE8B14";
shapes = (
{
closed = 1;
nodes = (
(-74,3,o),
(-35,10,o),
(-35,43,cs),
(-35,64,o),
(14,139,o),
(60,213,cs),
(94,267,o),
(126,320,o),
(136,350,cs),
(147,384,o),
(120,407,o),
(118,391,c),
(115,369,o),
(74,303,o),
(31,234,cs),
(-20,152,o),
(-74,65,o),
(-74,40,cs)
);
}
);
width = 60;
},
{
layerId = "2C50D5C7-CD05-484C-A32A-B9C1F3C11D26";
shapes = (
{
closed = 1;
nodes = (
(-74,3,o),
(-35,10,o),
(-35,43,cs),
(-35,64,o),
(14,139,o),
(60,213,cs),
(94,267,o),
(126,320,o),
(136,350,cs),
(147,384,o),
(120,407,o),
(118,391,c),
(115,369,o),
(74,303,o),
(31,234,cs),
(-20,152,o),
(-74,65,o),
(-74,40,cs)
);
}
);
width = 60;
}
);
note = z.s;
},
{
color = 1;
glyphname = a.v;
lastChange = "2023-04-03 11:53:59 +0000";
layers = (
{
layerId = "220B7CD1-1E4F-4884-BA06-A44A5DCE8B14";
shapes = (
{
closed = 1;
nodes = (
(59,164,o),
(142,369,o),
(137,454,cs),
(135,481,o),
(101,497,o),
(101,463,cs),
(101,367,o),
(24,182,o),
(-101,64,cs),
(-121,43,o),
(-88,29,o),
(-73,42,cs)
);
}
);
width = 34;
},
{
layerId = "2C50D5C7-CD05-484C-A32A-B9C1F3C11D26";
shapes = (
{
closed = 1;
nodes = (
(59,164,o),
(142,369,o),
(137,454,cs),
(135,481,o),
(101,497,o),
(101,463,cs),
(101,367,o),
(24,182,o),
(-101,64,cs),
(-121,43,o),
(-88,29,o),
(-73,42,cs)
);
}
);
width = 34;
}
);
note = a.v;
},
{
color = 1;
glyphname = b.v;
lastChange = "2023-04-03 11:53:59 +0000";
layers = (
{
layerId = "220B7CD1-1E4F-4884-BA06-A44A5DCE8B14";
shapes = (
{
closed = 1;
nodes = (
(-11,-11,o),
(145,251,o),
(145,462,cs),
(145,473,o),
(112,511,o),
(109,453,cs),
(97,223,o),
(-80,64,o),
(-166,48,cs),
(-210,40,o),
(-334,-13,o),
(-288,-13,cs)
);
}
);
width = 61;
},
{
layerId = "2C50D5C7-CD05-484C-A32A-B9C1F3C11D26";
shapes = (
{
closed = 1;
nodes = (
(-11,-11,o),
(145,251,o),
(145,462,cs),
(145,473,o),
(112,511,o),
(109,453,cs),
(97,223,o),
(-80,64,o),
(-166,48,cs),
(-210,40,o),
(-334,-13,o),
(-288,-13,cs)
);
}
);
width = 61;
}
);
note = b.v;
},
{
color = 1;
glyphname = c.v;
lastChange = "2023-04-03 11:53:59 +0000";
layers = (
{
layerId = "220B7CD1-1E4F-4884-BA06-A44A5DCE8B14";
shapes = (
{
closed = 1;
nodes = (
(-16,60,o),
(144,254,o),
(145,469,cs),
(145,481,o),
(109,512,o),
(109,457,cs),
(106,294,o),
(-11,120,o),
(-86,66,cs),
(-96,59,o),
(-90,20,o),
(-77,27,cs)
);
}
);
width = 61;
},
{
layerId = "2C50D5C7-CD05-484C-A32A-B9C1F3C11D26";
shapes = (
{
closed = 1;
nodes = (
(-16,60,o),
(144,254,o),
(145,469,cs),
(145,481,o),
(109,512,o),
(109,457,cs),
(106,294,o),
(-11,120,o),
(-86,66,cs),
(-96,59,o),
(-90,20,o),
(-77,27,cs)
);
}
);
width = 61;
}
);
note = c.v;
},
{
color = 1;
glyphname = e.v;
lastChange = "2023-04-03 11:53:59 +0000";
layers = (
{
layerId = "220B7CD1-1E4F-4884-BA06-A44A5DCE8B14";
shapes = (
{
closed = 1;
nodes = (
(-43,287,o),
(149,333,o),
(153,460,cs),
(153,481,o),
(120,494,o),
(117,460,cs),
(112,370,o),
(-40,319,o),
(-194,311,cs),
(-205,310,o),
(-220,270,o),
(-203,272,cs)
);
}
);
width = 45;
},
{
layerId = "2C50D5C7-CD05-484C-A32A-B9C1F3C11D26";
shapes = (
{
closed = 1;
nodes = (
(-43,287,o),
(149,333,o),
(153,460,cs),
(153,481,o),
(120,494,o),
(117,460,cs),
(112,370,o),
(-40,319,o),
(-194,311,cs),
(-205,310,o),
(-220,270,o),
(-203,272,cs)
);
}
);
width = 45;
}
);
note = e.v;
},
{
color = 1;
glyphname = k.v;
lastChange = "2023-04-03 11:53:59 +0000";
layers = (
{
layerId = "220B7CD1-1E4F-4884-BA06-A44A5DCE8B14";
shapes = (
{
closed = 1;
nodes = (
(-60,-13,o),
(188,232,o),
(187,469,cs),
(187,482,o),
(154,500,o),
(151,460,cs),
(142,326,o),
(46,146,o),
(-77,43,cs),
(-92,32,o),
(-91,-13,o),
(-80,-13,cs)
);
},
{
closed = 1;
nodes = (
(-125,798,l),
(-127,798,o),
(-127,797,o),
(-127,796,c)
);
}
);
width = 100;
},
{
layerId = "2C50D5C7-CD05-484C-A32A-B9C1F3C11D26";
shapes = (
{
closed = 1;
nodes = (
(-60,-13,o),
(188,232,o),
(187,469,cs),
(187,482,o),
(154,500,o),
(151,460,cs),
(142,326,o),
(46,146,o),
(-77,43,cs),
(-92,32,o),
(-91,-13,o),
(-80,-13,cs)
);
},
{
closed = 1;
nodes = (
(-125,798,l),
(-127,798,o),
(-127,797,o),
(-127,796,c)
);
}
);
width = 100;
}
);
note = k.v;
},
{
color = 1;
glyphname = o.v;
lastChange = "2023-04-03 11:53:59 +0000";
layers = (
{
layerId = "220B7CD1-1E4F-4884-BA06-A44A5DCE8B14";
shapes = (
{
closed = 1;
nodes = (
(106,476,o),
(118,510,o),
(95,510,cs),
(-114,510,o),
(-244,524,o),
(-253,524,cs),
(-284,524,o),
(-186,488,o),
(-154,478,cs),
(-118,469,o),
(74,476,o),
(91,476,cs)
);
}
);
width = 35;
},
{
layerId = "2C50D5C7-CD05-484C-A32A-B9C1F3C11D26";
shapes = (
{
closed = 1;
nodes = (
(106,476,o),
(118,510,o),
(95,510,cs),
(-114,510,o),
(-244,524,o),
(-253,524,cs),
(-284,524,o),
(-186,488,o),
(-154,478,cs),
(-118,469,o),
(74,476,o),
(91,476,cs)
);
}
);
width = 35;
}
);
note = o.v;
},
{
color = 1;
glyphname = r.v;
lastChange = "2023-04-03 11:53:59 +0000";
layers = (
{
layerId = "220B7CD1-1E4F-4884-BA06-A44A5DCE8B14";
shapes = (
{
closed = 1;
nodes = (
(81,396,o),
(117,434,o),
(117,460,cs),
(117,471,o),
(109,477,o),
(98,477,cs),
(93,477,o),
(88,480,o),
(88,474,cs),
(88,460,o),
(77,442,o),
(48,442,cs),
(34,442,o),
(28,446,o),
(28,453,cs),
(28,459,o),
(37,463,o),
(37,483,cs),
(37,499,o),
(29,499,o),
(19,499,cs),
(0,499,o),
(-12,475,o),
(-13,451,cs),
(-13,424,o),
(0,396,o),
(33,396,cs)
);
}
);
width = 45;
},
{
layerId = "2C50D5C7-CD05-484C-A32A-B9C1F3C11D26";
shapes = (
{
closed = 1;
nodes = (
(81,396,o),
(117,434,o),
(117,460,cs),
(117,471,o),
(109,477,o),
(98,477,cs),
(93,477,o),
(88,480,o),
(88,474,cs),
(88,460,o),
(77,442,o),
(48,442,cs),
(34,442,o),
(28,446,o),
(28,453,cs),
(28,459,o),
(37,463,o),
(37,483,cs),
(37,499,o),
(29,499,o),
(19,499,cs),
(0,499,o),
(-12,475,o),
(-13,451,cs),
(-13,424,o),
(0,396,o),
(33,396,cs)
);
}
);
width = 45;
}
);
note = r.v;
},
{
color = 1;
glyphname = s.v;
lastChange = "2023-04-03 11:53:59 +0000";
layers = (
{
layerId = "220B7CD1-1E4F-4884-BA06-A44A5DCE8B14";
shapes = (
{
closed = 1;
nodes = (
(60,-13,o),
(202,323,o),
(202,443,cs),
(202,507,o),
(166,498,o),
(166,449,cs),
(167,315,o),
(6,56,o),
(-153,25,cs),
(-174,22,o),
(-233,-13,o),
(-210,-13,cs)
);
}
);
width = 108;
},
{
layerId = "2C50D5C7-CD05-484C-A32A-B9C1F3C11D26";
shapes = (
{
closed = 1;
nodes = (
(60,-13,o),
(202,323,o),
(202,443,cs),
(202,507,o),
(166,498,o),
(166,449,cs),
(167,315,o),
(6,56,o),
(-153,25,cs),
(-174,22,o),
(-233,-13,o),
(-210,-13,cs)
);
}
);
width = 108;
}
);
note = s.v;
},
{
color = 1;
glyphname = t.v;
lastChange = "2023-04-03 11:53:59 +0000";
layers = (
{
layerId = "220B7CD1-1E4F-4884-BA06-A44A5DCE8B14";
shapes = (
{
closed = 1;
nodes = (
(39,453,ls),
(56,453,o),
(62,474,o),
(62,491,cs),
(62,497,o),
(59,499,o),
(54,499,cs),
(-17,499,ls),
(-33,499,o),
(-39,478,o),
(-39,461,cs),
(-39,454,o),
(-37,453,o),
(-32,453,cs)
);
}
);
width = 0;
},
{
layerId = "2C50D5C7-CD05-484C-A32A-B9C1F3C11D26";
shapes = (
{
closed = 1;
nodes = (
(39,453,ls),
(56,453,o),
(62,474,o),
(62,491,cs),
(62,497,o),
(59,499,o),
(54,499,cs),
(-17,499,ls),
(-33,499,o),
(-39,478,o),
(-39,461,cs),
(-39,454,o),
(-37,453,o),
(-32,453,cs)
);
}
);
width = 0;
}
);
note = t.v;
},
{
color = 1;
glyphname = v.v;
lastChange = "2023-04-03 11:53:59 +0000";
layers = (
{
layerId = "220B7CD1-1E4F-4884-BA06-A44A5DCE8B14";
shapes = (
{
closed = 1;
nodes = (
(107,472,o),
(73,483,o),
(77,467,cs),
(80,454,o),
(-21,452,o),
(-21,488,cs),
(-21,503,o),
(-73,504,o),
(-68,488,cs),
(-42,399,o),
(107,418,o),
(107,462,cs)
);
}
);
width = 0;
},
{
layerId = "2C50D5C7-CD05-484C-A32A-B9C1F3C11D26";
shapes = (
{
closed = 1;
nodes = (
(107,472,o),
(73,483,o),
(77,467,cs),
(80,454,o),
(-21,452,o),
(-21,488,cs),
(-21,503,o),
(-73,504,o),
(-68,488,cs),
(-42,399,o),
(107,418,o),
(107,462,cs)
);
}
);
width = 0;
}
);
note = v.v;
},
{
color = 1;
glyphname = z.v;
lastChange = "2023-04-03 11:53:59 +0000";
layers = (
{
layerId = "220B7CD1-1E4F-4884-BA06-A44A5DCE8B14";
shapes = (
{
closed = 1;
nodes = (
(-75,2,o),
(-34,25,o),
(-34,41,cs),
(-34,85,o),
(160,393,o),
(172,465,cs),
(175,480,o),
(128,501,o),
(125,456,cs),
(122,417,o),
(-75,87,o),
(-75,40,cs)
);
}
);
width = 73;
},
{
layerId = "2C50D5C7-CD05-484C-A32A-B9C1F3C11D26";
shapes = (
{
closed = 1;
nodes = (
(-75,2,o),
(-34,25,o),
(-34,41,cs),
(-34,85,o),
(160,393,o),
(172,465,cs),
(175,480,o),
(128,501,o),
(125,456,cs),
(122,417,o),
(-75,87,o),
(-75,40,cs)
);
}
);
width = 73;
}
);
note = z.v;
},
{
color = 1;
glyphname = d.x;
lastChange = "2023-04-03 11:53:59 +0000";
layers = (
{
layerId = "220B7CD1-1E4F-4884-BA06-A44A5DCE8B14";
shapes = (
{
closed = 1;
nodes = (
(32,131,o),
(162,354,o),
(177,422,cs),
(190,461,o),
(166,466,o),
(157,459,cs),
(132,384,o),
(38,207,o),
(-108,55,cs),
(-110,45,o),
(-108,22,o),
(-98,17,cs)
);
}
);
width = 96;
},
{
layerId = "2C50D5C7-CD05-484C-A32A-B9C1F3C11D26";
shapes = (
{
closed = 1;
nodes = (
(32,131,o),
(162,354,o),
(177,422,cs),
(190,461,o),
(166,466,o),
(157,459,cs),
(132,384,o),
(38,207,o),
(-108,55,cs),
(-110,45,o),
(-108,22,o),
(-98,17,cs)
);
}
);
width = 96;
}
);
note = d_x;
},
{
color = 1;
glyphname = x.x;
lastChange = "2023-04-03 11:53:59 +0000";
layers = (
{
layerId = "220B7CD1-1E4F-4884-BA06-A44A5DCE8B14";
shapes = (
{
closed = 1;
nodes = (
(38,93,o),
(181,300,o),
(254,406,cs),
(274,435,l),
(277,511,l),
(274,517,l),
(273,513,o),
(272,506,o),
(263,493,cs),
(204,407,o),
(60,188,o),
(-9,96,cs),
(-28,71,l),
(-30,-7,l)
);
}
);
width = 227;
},
{
layerId = "2C50D5C7-CD05-484C-A32A-B9C1F3C11D26";
shapes = (
{
closed = 1;
nodes = (
(38,93,o),
(181,300,o),
(254,406,cs),
(274,435,l),
(277,511,l),
(274,517,l),
(273,513,o),
(272,506,o),
(263,493,cs),
(204,407,o),
(60,188,o),
(-9,96,cs),
(-28,71,l),
(-30,-7,l)
);
}
);
width = 227;
}
);
note = x_x;
},
{
color = 7;
glyphname = period;
kernLeft = KO_period;
kernRight = KO_period;
lastChange = "2023-04-03 11:53:59 +0000";
layers = (
{
layerId = "220B7CD1-1E4F-4884-BA06-A44A5DCE8B14";
shapes = (
{
closed = 1;
nodes = (
(152,0,o),
(169,19,o),
(169,40,cs),
(169,74,o),
(155,91,o),
(141,91,cs),
(125,91,o),
(96,68,o),
(96,35,cs),
(96,11,o),
(105,0,o),
(126,0,cs)
);
}
);
width = 275;
},
{
layerId = "2C50D5C7-CD05-484C-A32A-B9C1F3C11D26";
shapes = (
{
closed = 1;
nodes = (
(152,0,o),
(169,19,o),
(169,40,cs),
(169,74,o),
(155,91,o),
(141,91,cs),
(125,91,o),
(96,68,o),
(96,35,cs),
(96,11,o),
(105,0,o),
(126,0,cs)
);
}
);
width = 275;
}
);
note = period;
unicode = 46;
userData = {
KernOnName = period;
KernOnSpecialSpacing = {
L = period;
R = period;
};
};
},
{
category = Mark;
glyphname = dot;
lastChange = "2023-04-03 11:59:40 +0000";
layers = (
{
layerId = "220B7CD1-1E4F-4884-BA06-A44A5DCE8B14";
shapes = (
{
closed = 1;
nodes = (
(8,-21,o),
(17,-12,o),
(17,-3,cs),
(17,13,o),
(10,21,o),
(4,21,cs),
(-4,21,o),
(-17,10,o),
(-17,-5,cs),
(-17,-16,o),
(-13,-21,o),
(-3,-21,cs)
);
}
);
width = 600;
},
{
layerId = "2C50D5C7-CD05-484C-A32A-B9C1F3C11D26";
shapes = (
{
closed = 1;
nodes = (
(19,-46,o),
(37,-27,o),
(37,-6,cs),
(37,28,o),
(22,46,o),
(9,46,cs),
(-8,46,o),
(-36,22,o),
(-36,-10,cs),
(-36,-34,o),
(-27,-46,o),
(-6,-46,cs)
);
}
);
width = 600;
}
);
subCategory = Spacing;
},
{
color = 1;
glyphname = dotted;
lastChange = "2023-04-03 11:53:59 +0000";
layers = (
{
layerId = "220B7CD1-1E4F-4884-BA06-A44A5DCE8B14";
shapes = (
{
closed = 1;
nodes = (
(435,665,o),
(452,684,o),
(452,705,cs),
(452,739,o),
(438,756,o),
(424,756,cs),
(408,756,o),
(379,733,o),
(379,700,cs),
(379,676,o),
(388,665,o),
(409,665,cs)
);
},
{
closed = 1;
nodes = (
(635,575,o),
(652,594,o),
(652,615,cs),
(652,649,o),
(638,666,o),
(624,666,cs),
(608,666,o),
(579,643,o),
(579,610,cs),
(579,586,o),
(588,575,o),
(609,575,cs)
);
},
{
closed = 1;
nodes = (
(722,369,o),
(739,388,o),
(739,409,cs),
(739,443,o),
(725,460,o),
(711,460,cs),
(695,460,o),
(666,437,o),
(666,404,cs),
(666,380,o),
(675,369,o),
(696,369,cs)
);
},
{
closed = 1;
nodes = (
(640,162,o),
(657,181,o),
(657,202,cs),
(657,236,o),
(643,253,o),
(629,253,cs),
(613,253,o),
(584,230,o),
(584,197,cs),
(584,173,o),
(593,162,o),
(614,162,cs)
);
},
{
closed = 1;
nodes = (
(435,70,o),
(452,89,o),
(452,110,cs),
(452,144,o),
(438,161,o),
(424,161,cs),
(408,161,o),
(379,138,o),
(379,105,cs),
(379,81,o),
(388,70,o),
(409,70,cs)
);
},
{
closed = 1;
nodes = (
(214,154,o),
(231,173,o),
(231,194,cs),
(231,228,o),
(217,245,o),
(203,245,cs),
(187,245,o),
(158,222,o),
(158,189,cs),
(158,165,o),
(167,154,o),
(188,154,cs)
);
},
{
closed = 1;
nodes = (
(127,369,o),
(144,388,o),
(144,409,cs),
(144,443,o),
(130,460,o),
(116,460,cs),
(100,460,o),
(71,437,o),
(71,404,cs),
(71,380,o),
(80,369,o),
(101,369,cs)
);
},
{
closed = 1;
nodes = (
(219,583,o),
(236,602,o),
(236,623,cs),
(236,657,o),
(222,674,o),
(208,674,cs),
(192,674,o),
(163,651,o),
(163,618,cs),
(163,594,o),
(172,583,o),
(193,583,cs)
);
}
);
width = 795;
},
{
layerId = "2C50D5C7-CD05-484C-A32A-B9C1F3C11D26";
shapes = (
{
closed = 1;
nodes = (
(435,665,o),
(452,684,o),
(452,705,cs),
(452,739,o),
(438,756,o),
(424,756,cs),
(408,756,o),
(379,733,o),
(379,700,cs),
(379,676,o),
(388,665,o),
(409,665,cs)
);
},
{
closed = 1;
nodes = (
(635,575,o),
(652,594,o),
(652,615,cs),
(652,649,o),
(638,666,o),
(624,666,cs),
(608,666,o),
(579,643,o),
(579,610,cs),
(579,586,o),
(588,575,o),
(609,575,cs)
);
},
{
closed = 1;
nodes = (
(722,369,o),
(739,388,o),
(739,409,cs),
(739,443,o),
(725,460,o),
(711,460,cs),
(695,460,o),
(666,437,o),
(666,404,cs),
(666,380,o),
(675,369,o),
(696,369,cs)
);
},
{
closed = 1;
nodes = (
(640,162,o),
(657,181,o),
(657,202,cs),
(657,236,o),
(643,253,o),
(629,253,cs),
(613,253,o),
(584,230,o),
(584,197,cs),
(584,173,o),
(593,162,o),
(614,162,cs)
);
},
{
closed = 1;
nodes = (
(435,70,o),
(452,89,o),
(452,110,cs),
(452,144,o),
(438,161,o),
(424,161,cs),
(408,161,o),
(379,138,o),
(379,105,cs),
(379,81,o),
(388,70,o),
(409,70,cs)
);
},
{
closed = 1;
nodes = (
(214,154,o),
(231,173,o),
(231,194,cs),
(231,228,o),
(217,245,o),
(203,245,cs),
(187,245,o),
(158,222,o),
(158,189,cs),
(158,165,o),
(167,154,o),
(188,154,cs)
);
},
{
closed = 1;
nodes = (
(127,369,o),
(144,388,o),
(144,409,cs),
(144,443,o),
(130,460,o),
(116,460,cs),
(100,460,o),
(71,437,o),
(71,404,cs),
(71,380,o),
(80,369,o),
(101,369,cs)
);
},
{
closed = 1;
nodes = (
(219,583,o),
(236,602,o),
(236,623,cs),
(236,657,o),
(222,674,o),
(208,674,cs),
(192,674,o),
(163,651,o),
(163,618,cs),
(163,594,o),
(172,583,o),
(193,583,cs)
);
}
);
width = 795;
}
);
},
{
color = 1;
glyphname = macroncombnar.case;
lastChange = "2023-04-03 11:53:59 +0000";
layers = (
{
anchors = (
{
name = _top;
pos = (182,652);
},
{
name = top;
pos = (191,778);
}
);
layerId = "220B7CD1-1E4F-4884-BA06-A44A5DCE8B14";
shapes = (
{
closed = 1;
nodes = (
(285,744,ls),
(302,744,o),
(308,765,o),
(308,785,cs),
(308,793,o),
(305,794,o),
(300,794,cs),
(87,794,ls),
(70,794,o),
(64,771,o),
(64,753,cs),
(64,745,o),
(67,744,o),
(72,744,cs)
);
}
);
width = 600;
},
{
anchors = (
{
name = _top;
pos = (182,652);
},
{
name = top;
pos = (191,778);
}
);
layerId = "2C50D5C7-CD05-484C-A32A-B9C1F3C11D26";
shapes = (
{
closed = 1;
nodes = (
(285,744,ls),
(302,744,o),
(308,765,o),
(308,785,cs),
(308,793,o),
(305,794,o),
(300,794,cs),
(87,794,ls),
(70,794,o),
(64,771,o),
(64,753,cs),
(64,745,o),
(67,744,o),
(72,744,cs)
);
}
);
width = 600;
}
);
},
